<?xml version="1.0" standalone="no"?>
<!DOCTYPE svg PUBLIC "-//W3C//DTD SVG 1.1//EN" "http://www.w3.org/Graphics/SVG/1.1/DTD/svg11.dtd" >
<svg>
<metadata>
Created by FontForge 20090914 at Tue Mar 10 20:17:47 2015
 By www-data
Copyright (c) 2011 by EdgarTolentino, PabloImpallari, IginoMarini. All rights reserved.
</metadata>
<defs>
<font id="Dosis-Bold" horiz-adv-x="524" >
  <font-face 
    font-family="Dosis"
    font-weight="700"
    font-stretch="normal"
    units-per-em="1000"
    panose-1="2 1 8 3 2 2 2 6 0 3"
    ascent="800"
    descent="-200"
    x-height="475"
    cap-height="731"
    bbox="-132 -237 1099 1012"
    underline-thickness="26"
    underline-position="-25"
    unicode-range="U+000D-U+FB02"
  />
<missing-glyph horiz-adv-x="388" 
d="M37 74c0 11.333 2.66797 20.333 8.00098 27l91 135l-91 135c-5.33301 7.33301 -8 16.333 -8 27c0 13.333 5.33301 24.5 16 33.5s22.667 13.5 36 13.5c15.333 0 28 -6.66699 38 -20l67 -112l68 112c9.33301 13.333 21.666 20 36.999 20c14 0 26.333 -4.5 37 -13.5
s16 -20.167 16 -33.5c0 -9.33301 -3 -18.333 -9 -27l-91 -135l91 -135c6 -8 9 -17 9 -27c0 -13.333 -5.33301 -24.333 -16 -33s-23 -13 -37 -13c-16 0 -28.333 6.33301 -37 19l-68 112l-67 -112c-10 -12.667 -22.667 -19 -38 -19c-13.333 0 -25.333 4.33301 -36 13
s-16 19.667 -16 33z" />
    <glyph glyph-name="uniFB01" unicode="fi" horiz-adv-x="566" 
d="M51 40v493.002c0 61.333 22.5 113.166 67.5 155.499s104.833 63.5 179.5 63.5c44 0 83.5 -6.83301 118.5 -20.5s52.5 -30.5 52.5 -50.5c0 -12.667 -4.33301 -28.334 -13 -47.001s-19.667 -28 -33 -28c-4 0 -17.833 6.16699 -41.5 18.5s-51.167 18.5 -82.5 18.5
c-37.333 0 -66.5 -9 -87.5 -27s-31.5 -44 -31.5 -78v-63h102c10.667 0 19 -4.66699 25 -14s9 -20.333 9 -33s-3 -23.667 -9 -33s-14.333 -14 -25 -14h-102v-341c0 -12 -6.5 -21.667 -19.5 -29s-28.5 -11 -46.5 -11s-33 3.66699 -45 11s-18 17 -18 29zM388 41.002
l-0.00292969 394c0 12 5.83301 21.667 17.5 29s26.834 11 45.501 11s34.334 -3.66699 47.001 -11s19 -17 19 -29v-394c0 -10 -6.66699 -19.333 -20 -28s-28.666 -13 -45.999 -13c-18 0 -33 4.16699 -45 12.5s-18 17.833 -18 28.5z" />
    <glyph glyph-name="uniFB02" unicode="fl" horiz-adv-x="577" 
d="M51 40l-0.000976562 493.001c0 67.333 25.667 120.666 77 159.999s113.333 59 186 59c38.667 0 77.334 -5.5 116.001 -16.5s68 -26.5 88 -46.5v-648c0 -10.667 -6.5 -20.167 -19.5 -28.5s-28.5 -12.5 -46.5 -12.5c-17.333 0 -32.166 4.16699 -44.499 12.5
s-18.5 17.833 -18.5 28.5v583c-19.333 14 -46 21 -80 21c-34.667 0 -64.834 -9.5 -90.501 -28.5s-38.5 -45.167 -38.5 -78.5v-63h102c10.667 0 19 -4.66699 25 -14s9 -20.333 9 -33s-3 -23.667 -9 -33s-14.333 -14 -25 -14h-102v-341c0 -12 -6.5 -21.667 -19.5 -29
s-28.5 -11 -46.5 -11s-33 3.66699 -45 11s-18 17 -18 29z" />
    <glyph glyph-name=".notdef" horiz-adv-x="388" 
d="M37 74c0 11.333 2.66797 20.333 8.00098 27l91 135l-91 135c-5.33301 7.33301 -8 16.333 -8 27c0 13.333 5.33301 24.5 16 33.5s22.667 13.5 36 13.5c15.333 0 28 -6.66699 38 -20l67 -112l68 112c9.33301 13.333 21.666 20 36.999 20c14 0 26.333 -4.5 37 -13.5
s16 -20.167 16 -33.5c0 -9.33301 -3 -18.333 -9 -27l-91 -135l91 -135c6 -8 9 -17 9 -27c0 -13.333 -5.33301 -24.333 -16 -33s-23 -13 -37 -13c-16 0 -28.333 6.33301 -37 19l-68 112l-67 -112c-10 -12.667 -22.667 -19 -38 -19c-13.333 0 -25.333 4.33301 -36 13
s-16 19.667 -16 33z" />
    <glyph glyph-name="NULL" horiz-adv-x="0" 
 />
    <glyph glyph-name="NULL" horiz-adv-x="0" 
 />
    <glyph glyph-name="uni000D" unicode="&#xd;" horiz-adv-x="0" 
 />
    <glyph glyph-name="space" unicode=" " horiz-adv-x="200" 
 />
    <glyph glyph-name="exclam" unicode="!" horiz-adv-x="220" 
d="M42 62c0 18.667 6.5 34.667 19.5 48s29.167 20 48.5 20c18.667 0 34.667 -6.66699 48 -20s20 -29.333 20 -48c0 -18 -6.66699 -33.833 -20 -47.5s-29.333 -20.5 -48 -20.5c-19.333 0 -35.5 6.66699 -48.5 20s-19.5 29.333 -19.5 48zM47 680
c0 17.333 5.83301 30.833 17.5 40.5s26.5 14.5 44.5 14.5s33 -5 45 -15s18 -23.333 18 -40c0 -44 -2.33301 -117.333 -7 -220s-7 -176 -7 -220c0 -12 -5.16699 -21.333 -15.5 -28s-21.5 -10 -33.5 -10c-32.667 0 -49 12.667 -49 38c0 44 -2.16699 117.333 -6.5 220
s-6.5 176 -6.5 220z" />
    <glyph glyph-name="quotedbl" unicode="&#x22;" horiz-adv-x="303" 
d="M28 735c0 9.33301 4.66797 17.168 14.001 23.501s20.333 9.5 33 9.5s24 -3.16699 34 -9.5s15 -14.166 15 -23.499l-10 -138c0 -8.66699 -3.33301 -16.334 -10 -23.001s-16.334 -10 -29.001 -10s-22 3.16699 -28 9.5s-9 14.166 -9 23.499zM179.001 735.002
c0 9.33301 4.66602 17.168 13.999 23.501s20.333 9.5 33 9.5s24 -3.16699 34 -9.5s15 -14.166 15 -23.499l-10 -138c0 -8.66699 -3.16699 -16.334 -9.5 -23.001s-16.166 -10 -29.499 -10c-12.667 0 -22 3.16699 -28 9.5s-9 14.166 -9 23.499z" />
    <glyph glyph-name="numbersign" unicode="#" horiz-adv-x="678" 
d="M23 267c0 14 3.33496 25.8301 10.002 35.4971s15.334 14.5 26.001 14.5h97l22 123h-78c-11.333 0 -20.333 4.16699 -27 12.5s-10 19.833 -10 34.5c0 14 3.33301 25.667 10 35s15.334 14 26.001 14h98l27 150c2 8 8.16699 14.5 18.5 19.5s22.166 7.5 35.499 7.5
c16.667 0 30.667 -4 42 -12s17 -20.333 17 -37l-23 -128h110l27 150c1.33301 8 7.16602 14.5 17.499 19.5s22.166 7.5 35.499 7.5c16.667 0 30.667 -4 42 -12s17.333 -20.333 18 -37l-24 -128h78c10 0 18.833 -4.66699 26.5 -14s11.5 -20.666 11.5 -33.999
s-3.66699 -24.666 -11 -33.999s-16 -14 -26 -14h-96l-23 -123h78c10 0 19 -4.66699 27 -14s12 -20.666 12 -33.999c0 -14 -4 -25.667 -12 -35s-16.667 -14 -26 -14h-97l-29 -160c-1.33301 -8.66699 -7.16602 -15.834 -17.499 -21.501s-21.5 -8.5 -33.5 -8.5
c-16 0 -30.667 4.33301 -44 13s-20 20.334 -20 35.001l25 142h-108l-29 -160c-1.33301 -8.66699 -7.33301 -15.834 -18 -21.501s-21.334 -8.5 -32.001 -8.5c-16 0 -30.5 4.33301 -43.5 13s-19.5 20.334 -19.5 35.001l24 142h-78c-10.667 0 -19.334 4.33301 -26.001 13
s-10 20 -10 34zM274.002 316.997h108l23 123h-109z" />
    <glyph glyph-name="dollar" unicode="$" horiz-adv-x="525" 
d="M26 125c0 15.333 5.66504 30.835 16.998 46.502s24.333 23.5 39 23.5c10 0 21.833 -5.5 35.5 -16.5s30.834 -22.833 51.501 -35.5s43.667 -20.334 69 -23.001v199c-24.667 9.33301 -43.5 16.666 -56.5 21.999s-29.667 14 -50 26s-35.833 24.333 -46.5 37
s-20.167 29 -28.5 49s-12.5 42.333 -12.5 67c0 59.333 18.333 104.833 55 136.5s83 51.167 139 58.5v28c0 6.66699 3.33301 12.5 10 17.5s14.667 7.5 24 7.5c8.66699 0 16.5 -2.5 23.5 -7.5s10.5 -10.833 10.5 -17.5v-26c42 -1.33301 81 -8.33301 117 -21s54 -32 54 -58
c0 -14.667 -4.66699 -29.834 -14 -45.501s-22.333 -23.5 -39 -23.5c-6.66699 0 -21.667 5.66699 -45 17s-47.666 18 -72.999 20v-176c27.333 -10 50 -19.667 68 -29s37.5 -22.166 58.5 -38.499s36.667 -36.833 47 -61.5s15.5 -53 15.5 -85c0 -60 -17 -108 -51 -144
s-80 -58.667 -138 -68v-31c0 -6.66699 -3.5 -12.5 -10.5 -17.5s-14.833 -7.5 -23.5 -7.5c-9.33301 0 -17.333 2.5 -24 7.5s-10 10.833 -10 17.5v28c-58 1.33301 -107.833 15 -149.5 41s-62.5 53.667 -62.5 83zM165.998 533.002c0 -20 6.66699 -35.832 20 -47.499
s33.333 -22.834 60 -33.501v151c-53.333 -8.66699 -80 -32 -80 -70zM297.998 121.003c50 10 75 37.333 75 82c0 22.667 -6.5 41 -19.5 55s-31.5 26.333 -55.5 37v-174z" />
    <glyph glyph-name="percent" unicode="%" horiz-adv-x="787" 
d="M25 457v145c0 44.667 13 77.334 39 98.001s60.667 31 104 31s77.833 -10.333 103.5 -31s38.5 -53.334 38.5 -98.001v-145c0 -44.667 -12.833 -77.334 -38.5 -98.001s-60.167 -31 -103.5 -31s-78 10.333 -104 31s-39 53.334 -39 98.001zM112 457c0 -36 18.667 -54 56 -54
c38 0 57 18 57 54v145c0 36 -19 54 -57 54c-37.333 0 -56 -18 -56 -54v-145zM171 4c0 4.66699 1.33301 10.334 4 17.001l360 729c7.33301 14 19.333 21 36 21c12.667 0 24.167 -4.33301 34.5 -13s15.5 -19.334 15.5 -32.001c0 -6.66699 -1.33301 -12.667 -4 -18l-360 -726
c-6 -14.667 -19 -22 -39 -22c-13.333 0 -24.5 4.5 -33.5 13.5s-13.5 19.167 -13.5 30.5zM476 126v145.001c0 44.667 13 77.334 39 98.001s60.667 31 104 31s77.833 -10.333 103.5 -31s38.5 -53.334 38.5 -98.001v-145c0 -44.667 -12.833 -77.334 -38.5 -98.001
s-60.167 -31 -103.5 -31c-95.333 0 -143 43 -143 129zM563 126.001c0 -36 18.667 -54 56 -54c38 0 57 18 57 54v145c0 36 -19 54 -57 54c-37.333 0 -56 -18 -56 -54v-145z" />
    <glyph glyph-name="ampersand" unicode="&#x26;" horiz-adv-x="642" 
d="M22 210c0 43.333 11.9971 83.1709 35.9971 119.504s53.667 64.166 89 83.499c-46.667 52.667 -70 104 -70 154c0 56 20 100.167 60 132.5s90 48.5 150 48.5c56 0 102.667 -12.833 140 -38.5s56 -51.834 56 -78.501c0 -14.667 -6.33301 -28.334 -19 -41.001
s-26.667 -19 -42 -19c-10 0 -19.667 3.83301 -29 11.5s-17.5 16 -24.5 25s-17.667 17.333 -32 25s-30.5 11.5 -48.5 11.5c-26 0 -47.333 -7.33301 -64 -22s-25 -35 -25 -61c0 -8 1 -16.167 3 -24.5s5.66699 -17.166 11 -26.499l13 -23c3.33301 -6 9.33301 -14.333 18 -25
l18 -20l22 -22l18 -19l161 -170c5.33301 12 9.5 24.833 12.5 38.5s4.83301 25 5.5 34s1.33398 20.167 2.00098 33.5s1.33398 22.333 2.00098 27c1.33301 14 6 24.167 14 30.5s22.667 9.5 44 9.5s35.833 -4.83301 43.5 -14.5s11.5 -24.834 11.5 -45.501
c0 -66.667 -18.667 -131.334 -56 -194.001l81 -84c5.33301 -6 8 -13.333 8 -22c0 -13.333 -6.16699 -25.5 -18.5 -36.5s-26.166 -16.5 -41.499 -16.5c-11.333 0 -22 5 -32 15l-62 64c-56.667 -53.333 -124.667 -80 -204 -80c-74.667 0 -135.167 21.5 -181.5 64.5
s-69.5 94.833 -69.5 155.5zM152.997 221.005c0 -34 12.001 -62.166 36.001 -84.499s57 -33.5 99 -33.5c47.333 0 84.666 15.333 111.999 46l-180 188c-44.667 -32.667 -67 -71.334 -67 -116.001z" />
    <glyph glyph-name="quotesingle" unicode="'" horiz-adv-x="152" 
d="M28 735c0 9.33301 4.66797 17.168 14.001 23.501s20.333 9.5 33 9.5s24 -3.16699 34 -9.5s15 -14.166 15 -23.499l-10 -138c0 -8.66699 -3.33301 -16.334 -10 -23.001s-16.334 -10 -29.001 -10s-22 3.16699 -28 9.5s-9 14.166 -9 23.499z" />
    <glyph glyph-name="parenleft" unicode="(" horiz-adv-x="341" 
d="M48 166v402.001c0 57.333 22 105 66 143s93 57 147 57c42.667 0 64 -18.667 64 -56c0 -16.667 -3.83301 -30.334 -11.5 -41.001s-17.5 -16 -29.5 -16c-32 0 -57.833 -8.83301 -77.5 -26.5s-29.5 -37.834 -29.5 -60.501v-402c0 -48.667 35.667 -73 107 -73
c27.333 0 41 -19 41 -57c0 -18.667 -4.66699 -32.667 -14 -42s-27 -14 -53 -14c-56 0 -105 15.833 -147 47.5s-63 77.834 -63 138.501z" />
    <glyph glyph-name="parenright" unicode=")" horiz-adv-x="341" 
d="M16 36c0 38 13.667 56.999 41 56.999c70.667 0 106 24.333 106 73v402c0 22.667 -9.66699 42.834 -29 60.501s-45 26.5 -77 26.5c-12 0 -21.833 5.33301 -29.5 16s-11.5 24.334 -11.5 41.001c0 37.333 21.333 56 64 56c54 0 103 -19 147 -57s66 -85.667 66 -143v-402
c0 -60.667 -21 -106.834 -63 -138.501s-91 -47.5 -147 -47.5c-26 0 -43.667 4.66699 -53 14s-14 23.333 -14 42z" />
    <glyph glyph-name="asterisk" unicode="*" horiz-adv-x="470" 
d="M23 571c0 12 4.49512 22.999 13.4951 32.999s20.167 15 33.5 15c4.66699 0 9 -1 13 -3l111 -37l-5 111c0.666992 13.333 5.33398 23.5 14.001 30.5s19.334 10.5 32.001 10.5s23.334 -3.5 32.001 -10.5s13.334 -17.167 14.001 -30.5l-5 -112l112 38
c5.33301 2 9.66602 3 12.999 3c12.667 0 23.334 -5.5 32.001 -16.5s13 -23.167 13 -36.5c0 -21.333 -10 -34 -30 -38l-108 -27l73 -104c4.66699 -6 7 -14 7 -24c0 -13.333 -5.33301 -24.5 -16 -33.5s-22.667 -13.5 -36 -13.5c-14.667 0 -25.667 5.66699 -33 17l-68 103
l-69 -104c-6.66699 -10.667 -16.667 -16 -30 -16c-11.333 0 -23.166 4.33301 -35.499 13s-18.5 19.334 -18.5 32.001c0 9.33301 3.66699 18.333 11 27l70 98l-111 32c-19.333 4 -29 18.333 -29 43z" />
    <glyph glyph-name="plus" unicode="+" horiz-adv-x="444" 
d="M21 240c0 15.333 3.66309 28.168 10.9961 38.501s17 15.5 29 15.5h107v106c0 10.667 5.33301 20.167 16 28.5s23.334 12.5 38.001 12.5c15.333 0 28 -4.16699 38 -12.5s15 -17.833 15 -28.5v-106h106c10.667 0 20.334 -5.33301 29.001 -16s13 -23.334 13 -38.001
c0 -15.333 -4.16699 -28 -12.5 -38s-18.166 -15 -29.499 -15h-106v-107c0 -12 -4.83301 -21.667 -14.5 -29s-22.5 -11 -38.5 -11c-15.333 0 -28.166 3.66699 -38.499 11s-15.5 17 -15.5 29v107h-107c-12 0 -21.667 4.83301 -29 14.5s-11 22.5 -11 38.5z" />
    <glyph glyph-name="comma" unicode="," horiz-adv-x="193" 
d="M29 62c0 18.667 6.5 34.667 19.5 48s28.833 20 47.5 20s34.667 -6.5 48 -19.5s20 -28.833 20 -47.5c0 -11.333 -18.333 -60 -55 -146c-5.33301 -11.333 -14.333 -17 -27 -17c-10 0 -19.667 3.16699 -29 9.5s-14 14.5 -14 24.5c0 4.66699 1.33301 9.33398 4 14.001l23 53
c-24.667 13.333 -37 33.666 -37 60.999z" />
    <glyph glyph-name="hyphen" unicode="-" horiz-adv-x="413" 
d="M36 240c0 15.333 3.66504 28.168 10.998 38.501s17 15.5 29 15.5h260c10.667 0 20.334 -5.33301 29.001 -16s13 -23.334 13 -38.001c0 -15.333 -4.16699 -28 -12.5 -38s-18.166 -15 -29.499 -15h-260c-12 0 -21.667 4.83301 -29 14.5s-11 22.5 -11 38.5z" />
    <glyph glyph-name="period" unicode="." horiz-adv-x="191" 
d="M28 62c0 18.667 6.5 34.667 19.5 48s29.167 20 48.5 20c18 0 33.667 -6.66699 47 -20s20 -29.333 20 -48c0 -18 -6.66699 -33.833 -20 -47.5s-29 -20.5 -47 -20.5c-19.333 0 -35.5 6.66699 -48.5 20s-19.5 29.333 -19.5 48z" />
    <glyph glyph-name="slash" unicode="/" horiz-adv-x="484" 
d="M17 4c0 6 1.66699 11.668 5 17.001l359 729c7.33301 14 19.333 21 36 21c12.667 0 24.167 -4.33301 34.5 -13s15.5 -19.334 15.5 -32.001c0 -6.66699 -1.33301 -12.667 -4 -18l-359 -726c-7.33301 -14.667 -20.333 -22 -39 -22c-14 0 -25.5 4.5 -34.5 13.5
s-13.5 19.167 -13.5 30.5z" />
    <glyph glyph-name="zero" unicode="0" horiz-adv-x="561" 
d="M46 223v279c0 79.333 21.167 137.333 63.5 174s99.166 55 170.499 55s128.333 -18.333 171 -55s64 -94.667 64 -174v-279c0 -79.333 -21.333 -137.333 -64 -174s-99.667 -55 -171 -55s-128.166 18.333 -170.499 55s-63.5 94.667 -63.5 174zM176 223
c0 -76.667 34.667 -115 104 -115c70 0 105 38.333 105 115v279c0 76.667 -35 115 -105 115c-69.333 0 -104 -38.333 -104 -115v-279zM234 362c0 14 4.16699 25.167 12.5 33.5s19.833 12.5 34.5 12.5c14 0 25.167 -4.16699 33.5 -12.5s12.5 -19.5 12.5 -33.5
s-4.16699 -25.333 -12.5 -34s-19.5 -13 -33.5 -13s-25.333 4.33301 -34 13s-13 20 -13 34z" />
    <glyph glyph-name="one" unicode="1" horiz-adv-x="288" 
d="M3 586c0 20.667 8.33301 36.333 25 47l118 90c8 6.66699 17 10 27 10c14.667 0 28 -4 40 -12s18 -18 18 -30v-650c0 -12.667 -6.5 -22.667 -19.5 -30s-28.167 -11 -45.5 -11c-18 0 -33.333 3.66699 -46 11s-19 17.333 -19 30v534l-32 -32c-6.66699 -6 -14.667 -9 -24 -9
c-12 0 -22 5.33301 -30 16s-12 22.667 -12 36z" />
    <glyph glyph-name="two" unicode="2" horiz-adv-x="507" 
d="M27 41l0.00195312 97.0029c0 29.333 11 58.333 33 87s48.667 54.667 80 78l96 69c31.333 23.333 58 48 80 74s33 52 33 78c0 23.333 -7.83301 44 -23.5 62s-38.834 27 -69.501 27c-26 0 -47.333 -7.33301 -64 -22s-25 -36.667 -25 -66
c0 -12.667 -6.16699 -23.834 -18.5 -33.501s-28.833 -14.5 -49.5 -14.5c-39.333 0 -59 23.333 -59 70c0 54.667 21.333 99 64 133s93 51 151 51c60.667 0 113.167 -18.5 157.5 -55.5s66.5 -86.167 66.5 -147.5c0 -40 -10.833 -77.5 -32.5 -112.5s-48.167 -64.667 -79.5 -89
s-62.5 -46.833 -93.5 -67.5s-57.333 -41.334 -79 -62.001s-32.5 -40.334 -32.5 -59.001v-24h278c10.667 0 20.167 -5.5 28.5 -16.5s12.5 -24.167 12.5 -39.5s-4.16699 -28.833 -12.5 -40.5s-17.833 -17.5 -28.5 -17.5h-356c-12.667 0 -25.334 4 -38.001 12
s-19 17.667 -19 29z" />
    <glyph glyph-name="three" unicode="3" horiz-adv-x="521" 
d="M20 176c0 19.333 4.66699 32.667 14 40s25.333 11 48 11c26 0 43.667 -3.5 53 -10.5s14 -18.833 14 -35.5c0 -22.667 9.33301 -40.5 28 -53.5s44 -19.5 76 -19.5c37.333 0 64.5 8.5 81.5 25.5s25.5 44.5 25.5 82.5v19c0 63.333 -36.667 95 -110 95c-26 0 -39 17 -39 51
s13 51 39 51c29.333 0 52 6.5 68 19.5s24 39.167 24 78.5c0 58.667 -29.333 88 -88 88c-59.333 0 -89 -22.333 -89 -67c0 -33.333 -20.667 -50 -62 -50c-28 0 -46.167 3.83301 -54.5 11.5s-12.5 22.5 -12.5 44.5c0 19.333 3.66699 38.5 11 57.5s18.833 37.5 34.5 55.5
s38.5 32.667 68.5 44s65 17 105 17c140.667 0 211 -59.667 211 -179c0 -40 -6.83301 -74.833 -20.5 -104.5s-32.834 -50.167 -57.501 -61.5c68 -26.667 102 -77 102 -151v-19c0 -76 -22.167 -132 -66.5 -168s-102.166 -54 -173.499 -54c-75.333 0 -132.5 18.667 -171.5 56
s-58.5 79.333 -58.5 126z" />
    <glyph glyph-name="four" unicode="4" horiz-adv-x="502" 
d="M-1 205c0 8.66699 2.33301 17.333 7 26l237 466c10.667 22.667 29 34 55 34c13.333 0 27.5 -4.83301 42.5 -14.5s22.5 -21.5 22.5 -35.5c0 -4.66699 -1.66699 -10.334 -5 -17.001l-192 -384h117v105c0 13.333 6.33301 23.5 19 30.5s28 10.5 46 10.5s33.333 -3.5 46 -10.5
s19 -17.167 19 -30.5v-105h47c12.667 0 22.667 -6 30 -18s11 -26.333 11 -43c0 -15.333 -4.16699 -29.166 -12.5 -41.499s-17.833 -18.5 -28.5 -18.5h-47v-118c0 -12.667 -6.33301 -22.667 -19 -30s-28 -11 -46 -11c-17.333 0 -32.5 3.66699 -45.5 11s-19.5 17.333 -19.5 30
v118h-240c-12.667 0 -23.167 4.16699 -31.5 12.5s-12.5 19.5 -12.5 33.5z" />
    <glyph glyph-name="five" unicode="5" horiz-adv-x="509" 
d="M18 175c0 22 5.33203 37.3281 15.999 45.9951s27 13 49 13c25.333 0 42.5 -4.33301 51.5 -13s13.5 -21 13.5 -37c0 -24 9.66699 -42.667 29 -56s44 -20 74 -20c70.667 0 106 37 106 111v19c0 37.333 -9.16699 65.333 -27.5 84s-44.166 28 -77.499 28h-148
c-19.333 0 -32.833 4.33301 -40.5 13s-11.5 21.334 -11.5 38.001c0 2.66699 0.166992 6.83398 0.5 12.501s0.5 10.167 0.5 13.5l26 263c2 27.333 10.333 41 25 41h308c12 0 21.5 -5.66699 28.5 -17s10.5 -24.666 10.5 -39.999s-3.5 -28.666 -10.5 -39.999
s-16.5 -17 -28.5 -17h-225l-12 -165h77c71.333 0 128.333 -17.167 171 -51.5s64 -88.5 64 -162.5v-19c0 -77.333 -21.333 -134.166 -64 -170.499s-99 -54.5 -169 -54.5c-72.667 0 -130.167 17.833 -172.5 53.5s-63.5 78.167 -63.5 127.5z" />
    <glyph glyph-name="six" unicode="6" horiz-adv-x="549" 
d="M46 223l-0.000976562 279c0 79.333 21.833 137.333 65.5 174s102.167 55 175.5 55c74 0 130.5 -18.5 169.5 -55.5s58.5 -79.5 58.5 -127.5c0 -20 -4.83301 -34 -14.5 -42s-25.167 -12 -46.5 -12c-45.333 0 -68 16.333 -68 49c0 22.667 -9.83301 40.667 -29.5 54
s-43.834 20 -72.501 20c-72.667 0 -109 -38.333 -109 -115v-109c28.667 34 73 51 133 51c62.667 0 112.834 -16 150.501 -48s56.5 -85 56.5 -159v-14c0 -79.333 -21.167 -137.333 -63.5 -174s-99.166 -55 -170.499 -55s-128.333 18.333 -171 55s-64 94.667 -64 174z
M174.999 215c0 -76.667 35.333 -115 106 -115c69.333 0 104 38.333 104 115v13c0 76 -35 114 -105 114s-105 -35 -105 -105v-22z" />
    <glyph glyph-name="seven" unicode="7" horiz-adv-x="498" 
d="M17 536l-0.00292969 153.998c0 10 5.83301 19.333 17.5 28s24.834 13 39.501 13h355c12.667 0 25.334 -4.33301 38.001 -13s19 -18 19 -28v-114c0 -17.333 -8.33301 -42.666 -25 -75.999l-253 -486c-6.66699 -12.667 -19 -19 -37 -19c-21.333 0 -40.333 6.33301 -57 19
s-25 28 -25 46c0 8.66699 2 16.334 6 23.001l261 468v66h-209v-81c0 -12 -6.66699 -22 -20 -30s-28.666 -12 -45.999 -12c-18 0 -33.167 4 -45.5 12s-18.5 18 -18.5 30z" />
    <glyph glyph-name="eight" unicode="8" horiz-adv-x="533" 
d="M32 200l0.000976562 12.001c0 96 39.667 158.667 119 188c-64 22.667 -96 74 -96 154c0 60.667 19 105.334 57 134.001s89.667 43 155 43c64.667 0 116 -14.333 154 -43s57 -73.334 57 -134.001c0 -80 -32 -131.333 -96 -154c79.333 -28.667 119 -91.334 119 -188.001
v-12c0 -70.667 -21.333 -122.667 -64 -156s-99.334 -50 -170.001 -50s-127.5 16.667 -170.5 50s-64.5 85.333 -64.5 156zM162.001 215.001c0 -76.667 35 -115 105 -115c69.333 0 104 38.333 104 115v20c0 73.333 -34.667 110 -104 110c-70 0 -105 -36.667 -105 -110v-20z
M181.001 538.001c0 -58 28.667 -87 86 -87s86 29 86 87s-28.667 87 -86 87s-86 -29 -86 -87z" />
    <glyph glyph-name="nine" unicode="9" horiz-adv-x="550" 
d="M34 177c0 20 4.83203 34.001 14.499 42.001s25.167 12 46.5 12c45.333 0 68 -16.333 68 -49c0 -22.667 9.83301 -40.667 29.5 -54s44.167 -20 73.5 -20c72 0 108 38.333 108 115v109c-28.667 -34 -73 -51 -133 -51c-62.667 0 -112.834 16 -150.501 48s-56.5 85 -56.5 159
v14c0 79.333 21.333 137.333 64 174s99.334 55 170.001 55c71.333 0 128.5 -18.5 171.5 -55.5s64.5 -94.833 64.5 -173.5v-279c0 -79.333 -22 -137.333 -66 -174s-102.667 -55 -176 -55s-129.666 18.667 -168.999 56s-59 79.666 -59 126.999zM163.999 497.001
c0 -76 35 -114 105 -114s105 35 105 105v22c0 76.667 -35.333 115 -106 115c-69.333 0 -104 -38.333 -104 -115v-13z" />
    <glyph glyph-name="colon" unicode=":" horiz-adv-x="223" 
d="M44 62c0 18.667 6.5 34.667 19.5 48s29.167 20 48.5 20c18 0 33.667 -6.66699 47 -20s20 -29.333 20 -48c0 -18 -6.66699 -33.833 -20 -47.5s-29 -20.5 -47 -20.5c-19.333 0 -35.5 6.66699 -48.5 20s-19.5 29.333 -19.5 48zM44 354c0 18.667 6.5 34.667 19.5 48
s29.167 20 48.5 20c18 0 33.667 -6.66699 47 -20s20 -29.333 20 -48c0 -18 -6.66699 -33.833 -20 -47.5s-29 -20.5 -47 -20.5c-19.333 0 -35.5 6.66699 -48.5 20s-19.5 29.333 -19.5 48z" />
    <glyph glyph-name="semicolon" unicode=";" horiz-adv-x="224" 
d="M42 62c0 18.667 6.5 34.667 19.5 48s28.833 20 47.5 20s34.667 -6.5 48 -19.5s20 -28.833 20 -47.5c0 -11.333 -18.333 -60 -55 -146c-5.33301 -11.333 -14.333 -17 -27 -17c-10 0 -19.667 3.16699 -29 9.5s-14 14.5 -14 24.5c0 4.66699 1.33301 9.33398 4 14.001l23 53
c-24.667 13.333 -37 33.666 -37 60.999zM47 354c0 18.667 6.5 34.667 19.5 48s29.167 20 48.5 20c18 0 33.667 -6.66699 47 -20s20 -29.333 20 -48c0 -18 -6.66699 -33.833 -20 -47.5s-29 -20.5 -47 -20.5c-19.333 0 -35.5 6.66699 -48.5 20s-19.5 29.333 -19.5 48z" />
    <glyph glyph-name="less" unicode="&#x3c;" horiz-adv-x="418" 
d="M19 277c0 20.667 8.99902 36.667 26.999 48l258 169c4.66699 2.66699 10.334 4 17.001 4c14 0 27 -6 39 -18s18 -26.333 18 -43c0 -15.333 -5.33301 -26.333 -16 -33l-193 -127l193 -126c10.667 -6.66699 16 -18 16 -34c0 -16.667 -6 -31 -18 -43s-25 -18 -39 -18
c-7.33301 0 -13 1.66699 -17 5l-258 168c-18 12 -27 28 -27 48z" />
    <glyph glyph-name="equal" unicode="=" horiz-adv-x="445" 
d="M53 144c0 15.333 3.66504 28.168 10.998 38.501s17 15.5 29 15.5h258c10.667 0 20.334 -5.33301 29.001 -16s13 -23.334 13 -38.001c0 -15.333 -4.16699 -28 -12.5 -38s-18.166 -15 -29.499 -15h-258c-12 0 -21.667 4.83301 -29 14.5s-11 22.5 -11 38.5zM52.998 347.002
c0 15.333 3.66504 28.168 10.998 38.501s17 15.5 29 15.5h258c10.667 0 20.334 -5.33301 29.001 -16s13 -23.334 13 -38.001c0 -15.333 -4.16699 -28 -12.5 -38s-18.166 -15 -29.499 -15h-258c-12 0 -21.667 4.83301 -29 14.5s-11 22.5 -11 38.5z" />
    <glyph glyph-name="greater" unicode="&#x3e;" horiz-adv-x="417" 
d="M39 117c0 15.333 5.33301 26.667 16 34l194 126l-194 127c-10.667 7.33301 -16 18.333 -16 33c0 16.667 6.16699 31 18.5 43s25.5 18 39.5 18c7.33301 0 12.666 -1.33301 15.999 -4l259 -169c17.333 -10.667 26 -26.667 26 -48c0 -20 -8.66699 -36 -26 -48l-259 -168
c-3.33301 -3.33301 -8.66602 -5 -15.999 -5c-14 0 -27.167 6.16699 -39.5 18.5s-18.5 26.5 -18.5 42.5z" />
    <glyph glyph-name="question" unicode="?" horiz-adv-x="435" 
d="M21 617c0 28 16.666 54.666 49.999 79.999s78 38 134 38c62.667 0 112.667 -16 150 -48s56 -72.333 56 -121c0 -16.667 -2.5 -33 -7.5 -49s-10.333 -29.5 -16 -40.5s-14 -23.333 -25 -37s-19.167 -23.167 -24.5 -28.5l-26 -25l-19 -16c-22.667 -18 -36.667 -36 -42 -54
s-8 -44 -8 -78c0 -24 -16.667 -36 -50 -36c-16.667 0 -28.5 4 -35.5 12s-10.5 22.667 -10.5 44c0 69.333 20 122 60 158l29 24c15.333 13.333 26.833 23.833 34.5 31.5s15.334 19 23.001 34s11.5 30.5 11.5 46.5c0 27.333 -9.33301 48.5 -28 63.5s-43.667 22.5 -75 22.5
c-22 0 -40.333 -3.66699 -55 -11s-24.667 -15.166 -30 -23.499s-11.833 -16.166 -19.5 -23.499s-16.5 -11 -26.5 -11c-12.667 0 -24.167 4.16699 -34.5 12.5s-15.5 20.166 -15.5 35.499zM126.999 61.999c0 18.667 6.5 34.667 19.5 48s28.833 20 47.5 20
s34.667 -6.66699 48 -20s20 -29.333 20 -48c0 -18 -6.66699 -33.833 -20 -47.5s-29.333 -20.5 -48 -20.5s-34.5 6.83301 -47.5 20.5s-19.5 29.5 -19.5 47.5z" />
    <glyph glyph-name="at" unicode="@" horiz-adv-x="737" 
d="M38 209c0 69.333 12.0039 130.503 36.0039 183.503s62.167 95.833 114.5 128.5s116.166 49 191.499 49c104.667 0 186.167 -29.333 244.5 -88s87.5 -139.667 87.5 -243c0 -66 -12.5 -120.333 -37.5 -163s-61.833 -64 -110.5 -64c-28 0 -51.333 6.83301 -70 20.5
s-30.334 31.167 -35.001 52.5c-35.333 -45.333 -77 -68 -125 -68c-34 0 -63.333 9.66699 -88 29s-37 48 -37 86c0 82 67 123 201 123h32v15c0 46.667 -27 70 -81 70c-24 0 -45.667 -4.5 -65 -13.5s-30.333 -13.5 -33 -13.5c-8 0 -15.167 5.66699 -21.5 17
s-9.5 21.666 -9.5 30.999c0 18.667 14.833 34.5 44.5 47.5s62.5 19.5 98.5 19.5c45.333 0 83.5 -11.667 114.5 -35s46.5 -56.333 46.5 -99v-169c4.66699 -32 16.667 -48 36 -48c38.667 0 58 47.333 58 142c0 184.667 -83.333 277 -250 277c-48 0 -89.333 -7.5 -124 -22.5
s-61.334 -36.333 -80.001 -64s-32.334 -57.834 -41.001 -90.501s-13 -69 -13 -109c0 -37.333 3.83301 -71.333 11.5 -102s19.834 -58.834 36.501 -84.501s40.167 -45.667 70.5 -60s66.833 -21.5 109.5 -21.5c32 0 61.5 4.33301 88.5 13s41.833 13 44.5 13
c9.33301 0 17 -4.33301 23 -13s9 -17 9 -25c0 -19.333 -20 -34.5 -60 -45.5s-80 -16.5 -120 -16.5c-82.667 0 -152.834 29.5 -210.501 88.5s-86.5 143.167 -86.5 252.5zM312.004 134.003c0 -15.333 4.16699 -27.167 12.5 -35.5s19.5 -12.5 33.5 -12.5
c22.667 0 43.167 8.5 61.5 25.5s27.5 35.833 27.5 56.5v31h-25c-73.333 0 -110 -21.667 -110 -65z" />
    <glyph glyph-name="A" unicode="A" horiz-adv-x="575" 
d="M9 54c0 1.33301 0.668945 4.66797 2.00195 10.001l193 629c4 14 13.833 24.833 29.5 32.5s33.5 11.5 53.5 11.5s38 -3.83301 54 -11.5s26 -18.5 30 -32.5l193 -629c1.33301 -5.33301 2 -8.66602 2 -9.99902c0 -14.667 -9 -27.334 -27 -38.001s-36.333 -16 -55 -16
c-24.667 0 -39.334 8.66699 -44.001 26l-38 133h-229l-38 -133c-4.66699 -17.333 -19.334 -26 -44.001 -26c-19.333 0 -37.833 5.16699 -55.5 15.5s-26.5 23.166 -26.5 38.499zM200.002 261.002h174l-87 307z" />
    <glyph glyph-name="B" unicode="B" horiz-adv-x="562" 
d="M60 40l0.00195312 649.999c0 12.667 5.66699 22.667 17 30s24.666 11 39.999 11h193c134 0 201 -58.667 201 -176c0 -81.333 -28.333 -134.333 -85 -159c34 -13.333 59.667 -32.166 77 -56.499s26 -59.833 26 -106.5v-21c0 -74 -18 -127.833 -54 -161.5
s-84.667 -50.5 -146 -50.5h-212c-16.667 0 -30.334 4 -41.001 12s-16 17.333 -16 28zM189.002 113.999h113c64.667 0 97 36.333 97 109v16c0 37.333 -8.16699 64.333 -24.5 81s-40.5 25 -72.5 25h-113v-231zM189.002 446.999h111.999c26 0 45.833 7.66699 59.5 23
s20.5 36.333 20.5 63c0 26 -7.16699 46.5 -21.5 61.5s-34.166 22.5 -59.499 22.5h-111v-170z" />
    <glyph glyph-name="C" unicode="C" horiz-adv-x="550" 
d="M53 223l0.00390625 279.001c0 78.667 21.333 136.5 64 173.5s98.334 55.5 167.001 55.5c70 0 127.167 -17.333 171.5 -52s66.5 -80.667 66.5 -138c0 -24.667 -5 -41.5 -15 -50.5s-26.667 -13.5 -50 -13.5c-42.667 0 -64.334 13.667 -65.001 41
c-0.666992 8.66699 -1.5 16.167 -2.5 22.5s-3.66699 14.666 -8 24.999s-9.83301 19 -16.5 26s-16.667 13 -30 18s-29 7.5 -47 7.5c-70 0 -105 -38.333 -105 -115v-279c0 -76.667 35.667 -115 107 -115c21.333 0 39.166 3.33301 53.499 10s24.666 16.167 30.999 28.5
s10.666 23.333 12.999 33s3.83301 21.5 4.5 35.5c2 27.333 23.333 41 64 41c23.333 0 40.166 -4.5 50.499 -13.5s15.5 -25.833 15.5 -50.5c0 -60 -22.167 -108 -66.5 -144s-101.833 -54 -172.5 -54c-68.667 0 -124.167 18.5 -166.5 55.5s-63.5 94.833 -63.5 173.5z" />
    <glyph glyph-name="D" unicode="D" horiz-adv-x="580" 
d="M60 40v651c0 10.667 5.33301 20 16 28s24.334 12 41.001 12h177c71.333 0 128.333 -18.333 171 -55s64 -94.667 64 -174v-273c0 -79.333 -21.333 -137.333 -64 -174s-99.667 -55 -171 -55h-177c-16.667 0 -30.334 4 -41.001 12s-16 17.333 -16 28zM190 114h104
c70 0 105 38.333 105 115v273c0 76.667 -35 115 -105 115h-104v-503z" />
    <glyph glyph-name="E" unicode="E" horiz-adv-x="530" 
d="M60 41v649c0 12.667 5.66699 22.667 17 30s24.666 11 39.999 11h356c13.333 0 23.5 -5.66699 30.5 -17s10.5 -24.333 10.5 -39c0 -16 -3.66699 -29.667 -11 -41s-17.333 -17 -30 -17h-283v-200h152c12.667 0 22.667 -5.16699 30 -15.5s11 -22.5 11 -36.5
c0 -12.667 -3.5 -24.167 -10.5 -34.5s-17.167 -15.5 -30.5 -15.5h-152v-201h283c12.667 0 22.667 -5.66699 30 -17s11 -25 11 -41c0 -14.667 -3.5 -27.667 -10.5 -39s-17.167 -17 -30.5 -17h-356c-15.333 0 -28.666 3.66699 -39.999 11s-17 17.333 -17 30z" />
    <glyph glyph-name="F" unicode="F" horiz-adv-x="508" 
d="M60 41l0.000976562 649c0 12.667 5.66699 22.667 17 30s24.666 11 39.999 11h349c13.333 0 23.333 -5.5 30 -16.5s10 -24.167 10 -39.5c0 -16 -3.5 -29.667 -10.5 -41s-16.833 -17 -29.5 -17h-276v-200h153c12.667 0 22.5 -5 29.5 -15s10.5 -22.333 10.5 -37
c0 -13.333 -3.5 -25 -10.5 -35s-16.833 -15 -29.5 -15h-153v-274c0 -12.667 -6.5 -22.667 -19.5 -30s-28.167 -11 -45.5 -11c-18 0 -33.333 3.66699 -46 11s-19 17.333 -19 30z" />
    <glyph glyph-name="G" unicode="G" horiz-adv-x="564" 
d="M52 223l0.000976562 279.002c0 78.667 21.167 136.5 63.5 173.5s97.833 55.5 166.5 55.5c70.667 0 128.167 -17.333 172.5 -52s66.5 -81.334 66.5 -140.001c0 -24 -5.16699 -40.333 -15.5 -49s-26.833 -13 -49.5 -13c-42.667 0 -64.334 13.667 -65.001 41
c-2 29.333 -10.333 53.166 -25 71.499s-41 27.5 -79 27.5c-70 0 -105 -38.333 -105 -115v-279c0 -76.667 34.667 -115 104 -115c33.333 0 59.166 9.66699 77.499 29s27.5 48 27.5 86v59h-81c-12.667 0 -22.5 5 -29.5 15s-10.5 22 -10.5 36
c0 13.333 3.66699 25.166 11 35.499s17 15.5 29 15.5h170c12.667 0 22.667 -4.16699 30 -12.5s11 -18.166 11 -29.499v-119c0 -79.333 -21.333 -137.333 -64 -174s-99.667 -55 -171 -55s-128.166 18.333 -170.499 55s-63.5 94.667 -63.5 174z" />
    <glyph glyph-name="H" unicode="H" horiz-adv-x="605" 
d="M60 41v650c0 13.333 6.33301 23.333 19 30s28 10 46 10s33.333 -3.33301 46 -10s19 -16.667 19 -30v-261h225v261c0 13.333 6.33301 23.333 19 30s28 10 46 10s33.333 -3.33301 46 -10s19 -16.667 19 -30v-650c0 -12.667 -6.5 -22.667 -19.5 -30s-28.167 -11 -45.5 -11
c-18 0 -33.333 3.66699 -46 11s-19 17.333 -19 30v287h-225v-287c0 -12.667 -6.5 -22.667 -19.5 -30s-28.167 -11 -45.5 -11c-18 0 -33.333 3.66699 -46 11s-19 17.333 -19 30z" />
    <glyph glyph-name="I" unicode="I" horiz-adv-x="250" 
d="M60 41v650c0 13.333 6.33301 23.333 19 30s28 10 46 10s33.333 -3.33301 46 -10s19 -16.667 19 -30v-650c0 -12.667 -6.5 -22.667 -19.5 -30s-28.167 -11 -45.5 -11c-18 0 -33.333 3.66699 -46 11s-19 17.333 -19 30z" />
    <glyph glyph-name="J" unicode="J" horiz-adv-x="539" 
d="M13 193c0 24 5 40.5 15 49.5s26.667 13.5 50 13.5c40.667 0 62.334 -13.667 65.001 -41c2.66699 -71.333 37 -107 103 -107c70.667 0 106 38.333 106 115v394h-102c-12.667 0 -22.667 5.66699 -30 17s-11 25 -11 41c0 15.333 3.5 28.5 10.5 39.5s17.167 16.5 30.5 16.5
h175c15.333 0 28.666 -3.66699 39.999 -11s17 -17.333 17 -30v-467c0 -78.667 -21.167 -136.5 -63.5 -173.5s-97.833 -55.5 -166.5 -55.5c-70.667 0 -128.167 17.833 -172.5 53.5s-66.5 84.167 -66.5 145.5z" />
    <glyph glyph-name="K" unicode="K" horiz-adv-x="552" 
d="M60 41l-0.00195312 650.001c0 13.333 6.33301 23.333 19 30s28 10 46 10s33.333 -3.33301 46 -10s19 -16.667 19 -30v-273l216 294c9.33301 12.667 21.333 19 36 19c16.667 0 33.334 -7.16699 50.001 -21.5s25 -29.5 25 -45.5c0 -10 -2.66699 -18.333 -8 -25l-179 -224
l218 -332c4.66699 -6.66699 7 -14.334 7 -23.001c0 -16 -8.16699 -30.833 -24.5 -44.5s-34.166 -20.5 -53.499 -20.5c-20 0 -35 8.33301 -45 25l-188 285l-54 -68v-196c0 -12.667 -6.5 -22.667 -19.5 -30s-28.167 -11 -45.5 -11c-18 0 -33.333 3.66699 -46 11
s-19 17.333 -19 30z" />
    <glyph glyph-name="L" unicode="L" horiz-adv-x="484" 
d="M60 41l-0.000976562 649.998c0 13.333 6.33301 23.333 19 30s28 10 46 10s33.333 -3.33301 46 -10s19 -16.667 19 -30v-577h244c12 0 21.5 -5.66699 28.5 -17s10.5 -24.666 10.5 -39.999s-3.5 -28.666 -10.5 -39.999s-16.5 -17 -28.5 -17h-317
c-15.333 0 -28.666 3.66699 -39.999 11s-17 17.333 -17 30z" />
    <glyph glyph-name="M" unicode="M" horiz-adv-x="699" 
d="M60 41l-0.00195312 625c0 22 6.16699 38.333 18.5 49s27.833 16 46.5 16c24.667 0 43.667 -4.33301 57 -13s28 -27.334 44 -56.001l123 -224l123 224c16 28.667 30.833 47.334 44.5 56.001s32.834 13 57.501 13c18.667 0 34.167 -5.33301 46.5 -16s18.5 -27 18.5 -49
v-625c0 -12.667 -6.5 -22.667 -19.5 -30s-28.167 -11 -45.5 -11c-18 0 -33.333 3.66699 -46 11s-19 17.333 -19 30v430l-117 -208c-9.33301 -17.333 -24 -26 -44 -26c-19.333 0 -33.666 8.66699 -42.999 26l-115 216v-438c0 -12.667 -6.5 -22.667 -19.5 -30
s-28.167 -11 -45.5 -11c-18 0 -33.333 3.66699 -46 11s-19 17.333 -19 30z" />
    <glyph glyph-name="N" unicode="N" horiz-adv-x="605" 
d="M60 41v649.001c0 13.333 6.33301 23.5 19 30.5s28 10.5 46 10.5c24 0 42.333 -4.33301 55 -13s26.667 -27.334 42 -56.001l193 -373v402c0 13.333 6.33301 23.333 19 30s28 10 46 10s33.333 -3.33301 46 -10s19 -16.667 19 -30v-650c0 -12.667 -6.5 -22.667 -19.5 -30
s-28.167 -11 -45.5 -11c-35.333 0 -60.333 13.667 -75 41l-215 402v-402c0 -12.667 -6.5 -22.667 -19.5 -30s-28.167 -11 -45.5 -11c-18 0 -33.333 3.66699 -46 11s-19 17.333 -19 30z" />
    <glyph glyph-name="O" unicode="O" horiz-adv-x="572" 
d="M52 223v279c0 79.333 21.167 137.333 63.5 174s99.166 55 170.499 55s128.333 -18.333 171 -55s64 -94.667 64 -174v-279c0 -79.333 -21.333 -137.333 -64 -174s-99.667 -55 -171 -55s-128.166 18.333 -170.499 55s-63.5 94.667 -63.5 174zM182 223
c0 -76.667 34.667 -115 104 -115c70 0 105 38.333 105 115v279c0 76.667 -35 115 -105 115c-69.333 0 -104 -38.333 -104 -115v-279z" />
    <glyph glyph-name="P" unicode="P" horiz-adv-x="557" 
d="M60 41v649.999c0 10.667 4.5 20 13.5 28s20.833 12 35.5 12h201c68.667 0 123.667 -18.167 165 -54.5s62 -93.166 62 -170.499v-6c0 -78 -21.5 -135.333 -64.5 -172s-99.833 -55 -170.5 -55h-112v-232c0 -12.667 -6.5 -22.667 -19.5 -30s-28.167 -11 -45.5 -11
c-18 0 -33.333 3.66699 -46 11s-19 17.333 -19 30zM190 374.999h112c33.333 0 59.166 9.66699 77.499 29s27.5 48 27.5 86v12c0 38 -9.16699 66.667 -27.5 86s-44.166 29 -77.499 29h-112v-242z" />
    <glyph glyph-name="Q" unicode="Q" horiz-adv-x="572" 
d="M52 223v279.002c0 79.333 21.167 137.333 63.5 174s99.166 55 170.499 55s128.333 -18.333 171 -55s64 -94.667 64 -174v-279c0 -70.667 -17.333 -124.334 -52 -161.001s-82 -58.334 -142 -65.001v-65c0 -12.667 -4 -22.667 -12 -30s-17.667 -11 -29 -11
s-21.166 3.66699 -29.499 11s-12.5 17.333 -12.5 30v65c-128 14 -192 89.333 -192 226zM182 223.002c0 -58 20.667 -93.667 62 -107v53c0 13.333 4.16699 23.333 12.5 30s18.166 10 29.499 10s21 -3.33301 29 -10s12 -16.667 12 -30v-53c42.667 14 64 49.667 64 107v279
c0 38 -9.16699 66.667 -27.5 86s-44.166 29 -77.499 29c-69.333 0 -104 -38.333 -104 -115v-279z" />
    <glyph glyph-name="R" unicode="R" horiz-adv-x="570" 
d="M60 41l-0.000976562 650c0 10.667 4 20 12 28s18 12 30 12h198c158 0 237 -69.667 237 -209c0 -54.667 -11.833 -98.667 -35.5 -132s-55.5 -56 -95.5 -68l131 -243c3.33301 -4 5 -9.33301 5 -16c0 -16.667 -8.66699 -32.167 -26 -46.5s-35.666 -21.5 -54.999 -21.5
s-34.333 10.333 -45 31l-142 276h-84v-261c0 -12.667 -6.33301 -22.667 -19 -30s-28 -11 -46 -11c-17.333 0 -32.5 3.66699 -45.5 11s-19.5 17.333 -19.5 30zM189.999 404h110c71.333 0 107 35.333 107 106c0 71.333 -35.667 107 -107 107h-110v-213z" />
    <glyph glyph-name="S" unicode="S" horiz-adv-x="522" 
d="M24 115c0 15.333 5.83203 30.8291 17.499 46.4961s24.834 23.5 39.501 23.5c8.66699 0 18.5 -4 29.5 -12s21.667 -16.833 32 -26.5s25.166 -18.5 44.499 -26.5s40.666 -12 63.999 -12c32 0 58.667 7.33301 80 22s32 36.334 32 65.001c0 20 -5.83301 37.833 -17.5 53.5
s-27 28.667 -46 39s-39.833 20.333 -62.5 30s-45.5 20.5 -68.5 32.5s-44 25.5 -63 40.5s-34.333 35 -46 60s-17.5 53.5 -17.5 85.5c0 35.333 7.16699 66.5 21.5 93.5s33.5 48 57.5 63s49.667 26 77 33s56.333 10.5 87 10.5c17.333 0 35.666 -1.16699 54.999 -3.5
s39.833 -6.16602 61.5 -11.499s39.334 -13.666 53.001 -24.999s20.5 -24.666 20.5 -39.999c0 -14.667 -4.66699 -29.834 -14 -45.501s-22 -23.5 -38 -23.5c-6 0 -22.333 6.33301 -49 19s-56.334 19 -89.001 19c-36 0 -63.833 -6.83301 -83.5 -20.5s-29.5 -32.5 -29.5 -56.5
c0 -19.333 8 -36.166 24 -50.499s35.833 -26 59.5 -35s49.334 -20.333 77.001 -34s53.334 -28.5 77.001 -44.5s43.5 -39.167 59.5 -69.5s24 -65.833 24 -106.5c0 -69.333 -21.833 -122.833 -65.5 -160.5s-101.167 -56.5 -172.5 -56.5c-63.333 0 -117.666 13 -162.999 39
s-68 54.333 -68 85z" />
    <glyph glyph-name="T" unicode="T" horiz-adv-x="528" 
d="M12 673c0 15.333 3.5 28.833 10.5 40.5s17.167 17.5 30.5 17.5h423c13.333 0 23.5 -5.83301 30.5 -17.5s10.5 -25.167 10.5 -40.5c0 -16 -3.66699 -29.833 -11 -41.5s-17.333 -17.5 -30 -17.5h-146v-573c0 -12.667 -6.5 -22.667 -19.5 -30s-28.167 -11 -45.5 -11
c-18 0 -33.333 3.66699 -46 11s-19 17.333 -19 30v573h-147c-12.667 0 -22.667 5.66699 -30 17s-11 25.333 -11 42z" />
    <glyph glyph-name="U" unicode="U" horiz-adv-x="594" 
d="M57 223l0.00195312 468c0 13.333 6.33301 23.333 19 30s28 10 46 10s33.333 -3.33301 46 -10s19 -16.667 19 -30v-468c0 -76.667 36.667 -115 110 -115s110 38.333 110 115v468c0 13.333 6.33301 23.333 19 30s28 10 46 10s33.333 -3.33301 46 -10s19 -16.667 19 -30
v-468c0 -78.667 -21.833 -136.5 -65.5 -173.5s-101.834 -55.5 -174.501 -55.5s-130.834 18.333 -174.501 55s-65.5 94.667 -65.5 174z" />
    <glyph glyph-name="V" unicode="V" horiz-adv-x="575" 
d="M9 677c0 15.333 8.83105 28.168 26.498 38.501s36.167 15.5 55.5 15.5c24.667 0 39.334 -8.66699 44.001 -26l153 -542l152 542c4.66699 17.333 19.334 26 44.001 26c18.667 0 37 -5.33301 55 -16s27 -23.334 27 -38.001c0 -1.33301 -0.666992 -4.66602 -2 -9.99902
l-192 -629c-4 -14 -14 -24.833 -30 -32.5s-34 -11.5 -54 -11.5c-46 0 -74 14.667 -84 44l-193 629c-1.33301 5.33301 -2 8.66602 -2 9.99902z" />
    <glyph glyph-name="W" unicode="W" horiz-adv-x="883" 
d="M9 679c0 14 9 26.167 27 36.5s36.667 15.5 56 15.5c24 0 38.333 -8.66699 43 -26l158 -542l85 348c6 24 27.333 36 64 36c36 0 57 -12 63 -36l85 -348l158 542c4.66699 17.333 19 26 43 26c19.333 0 38 -5.16699 56 -15.5s27 -22.5 27 -36.5c0 -4 -0.666992 -8 -2 -12
l-198 -629c-10 -29.333 -38.333 -44 -85 -44c-20 0 -38 3.83301 -54 11.5s-25.667 18.5 -29 32.5l-64 270l-65 -270c-3.33301 -14 -13 -24.833 -29 -32.5s-34 -11.5 -54 -11.5c-20.667 0 -39 3.83301 -55 11.5s-26 18.5 -30 32.5l-198 629c-1.33301 4 -2 8 -2 12z" />
    <glyph glyph-name="X" unicode="X" horiz-adv-x="561" 
d="M13 60c0 6.66699 2.66602 14.667 7.99902 24l173 282l-167 281c-6 10 -9 19.333 -9 28c0 16.667 8.83301 31 26.5 43s36.5 18 56.5 18c18.667 0 33 -9.33301 43 -28l136 -245l136 245c10.667 18.667 25.334 28 44.001 28c20 0 38.833 -6 56.5 -18s26.5 -26.333 26.5 -43
c0 -8.66699 -3 -18 -9 -28l-167 -281l173 -282c4.66699 -8.66699 7 -16.667 7 -24c0 -17.333 -9.33301 -32.5 -28 -45.5s-37.667 -19.5 -57 -19.5c-16 0 -27.667 7 -35 21l-147 257l-146 -257c-8 -14 -20 -21 -36 -21c-18.667 0 -37.5 6.5 -56.5 19.5
s-28.5 28.167 -28.5 45.5z" />
    <glyph glyph-name="Y" unicode="Y" horiz-adv-x="574" 
d="M9 677c0 14.667 9.5 27.334 28.5 38.001s38.167 16 57.5 16c18 0 31.333 -8.66699 40 -26l152 -289l153 289c9.33301 17.333 22.333 26 39 26c19.333 0 38.5 -5.33301 57.5 -16s28.5 -23.334 28.5 -38.001c0 -5.33301 -1 -9.66602 -3 -12.999l-206 -358
c-2.66699 -4 -4 -8.33301 -4 -13v-252c0 -12.667 -6.33301 -22.667 -19 -30s-28 -11 -46 -11c-17.333 0 -32.5 3.66699 -45.5 11s-19.5 17.333 -19.5 30v252c0 6 -1 10.333 -3 13l-207 358c-2 5.33301 -3 9.66602 -3 12.999z" />
    <glyph glyph-name="Z" unicode="Z" horiz-adv-x="522" 
d="M14 36c0 14.667 4.66699 29.6709 14 45.0039l297 536h-253c-12.667 0 -22.5 5.5 -29.5 16.5s-10.5 24.5 -10.5 40.5c0 15.333 3.33301 28.666 10 39.999s16.667 17 30 17h380c26 0 39 -11.667 39 -35c0 -14.667 -5 -30.334 -15 -47.001l-296 -535h288
c12 0 21.833 -5.83301 29.5 -17.5s11.5 -24.834 11.5 -39.501s-3.83301 -27.834 -11.5 -39.501s-17.5 -17.5 -29.5 -17.5h-415c-26 0 -39 12 -39 36z" />
    <glyph glyph-name="bracketleft" unicode="[" horiz-adv-x="341" 
d="M56 20v707c0 12.667 5.66699 22.667 17 30s24.666 11 39.999 11h172c13.333 0 23.333 -5.5 30 -16.5s10 -24.167 10 -39.5c0 -16 -3.66699 -29.667 -11 -41s-17 -17 -29 -17h-99v-561h99c12 0 21.667 -5.66699 29 -17s11 -25 11 -41c0 -15.333 -3.33301 -28.5 -10 -39.5
s-16.667 -16.5 -30 -16.5h-172c-15.333 0 -28.666 3.66699 -39.999 11s-17 17.333 -17 30z" />
    <glyph glyph-name="backslash" unicode="\" horiz-adv-x="370" 
d="M19 711c0 11.333 4.83398 21.499 14.501 30.499s21.167 13.5 34.5 13.5c19.333 0 32 -8.66699 38 -26l243 -672c1.33301 -2.66699 2 -6.66699 2 -12c0 -12 -4.83301 -22.667 -14.5 -32s-20.834 -14 -33.501 -14c-19.333 0 -32.333 9.33301 -39 28l-243 670
c-1.33301 6.66699 -2 11.334 -2 14.001z" />
    <glyph glyph-name="bracketright" unicode="]" horiz-adv-x="342" 
d="M16 35c0 16 3.66699 29.667 11 41s17.333 17 30 17h99v561h-99c-12.667 0 -22.667 5.66699 -30 17s-11 25 -11 41c0 14.667 3.5 27.667 10.5 39s17.167 17 30.5 17h171c15.333 0 28.833 -3.66699 40.5 -11s17.5 -17.333 17.5 -30v-707
c0 -12.667 -5.83301 -22.667 -17.5 -30s-25.167 -11 -40.5 -11h-171c-13.333 0 -23.5 5.66699 -30.5 17s-10.5 24.333 -10.5 39z" />
    <glyph glyph-name="asciicircum" unicode="^" horiz-adv-x="285" 
d="M0 616c0 17.333 7.33105 29.667 21.998 37l104 56c5.33301 3.33301 11 5 17 5c4.66699 0 10.334 -1.66699 17.001 -5l104 -55c14 -8.66699 21 -21.667 21 -39c0 -10 -2.66699 -19 -8 -27s-12 -12 -20 -12c-3.33301 0 -6.66602 1 -9.99902 3l-104 56l-104 -56
c-4 -2 -7.66699 -3 -11 -3c-8 0 -14.667 4 -20 12s-8 17.333 -8 28z" />
    <glyph glyph-name="underscore" unicode="_" horiz-adv-x="316" 
d="M-42 -54c0 15.333 3.66504 28.168 10.998 38.501s17 15.5 29 15.5h320c10.667 0 20.334 -5.33301 29.001 -16s13 -23.334 13 -38.001c0 -15.333 -4.16699 -28 -12.5 -38s-18.166 -15 -29.499 -15h-320c-12 0 -21.667 4.83301 -29 14.5s-11 22.5 -11 38.5z" />
    <glyph glyph-name="grave" unicode="`" horiz-adv-x="202" 
d="M0 665c0 12 4.00098 23.166 12.001 33.499s17.333 15.5 28 15.5c2 0 6.33301 -0.666992 13 -2l132 -64c11.333 -5.33301 17 -15.666 17 -30.999c0 -11.333 -4 -22.333 -12 -33s-17.333 -16 -28 -16c-2.66699 0 -7.33398 1.33301 -14.001 4l-130 63
c-12 5.33301 -18 15.333 -18 30z" />
    <glyph glyph-name="a" unicode="a" horiz-adv-x="471" 
d="M22 124c0 54 19.999 92.001 59.999 114.001s97.667 33 173 33h41v13c0 24.667 -7.16699 46.167 -21.5 64.5s-36.5 27.5 -66.5 27.5s-55.667 -5.16699 -77 -15.5s-33.666 -15.5 -36.999 -15.5c-13.333 0 -24 6.66699 -32 20s-12 28 -12 44
c0 19.333 17.167 36.166 51.5 50.499s70.5 21.5 108.5 21.5c72.667 0 126.667 -18.5 162 -55.5s53 -83.5 53 -139.5v-245c0 -11.333 -6 -21 -18 -29s-27 -12 -45 -12c-16.667 0 -30.5 4 -41.5 12s-16.5 17.667 -16.5 29v29c-46 -52.667 -96.667 -79 -152 -79
c-38 0 -69.167 11.333 -93.5 34s-36.5 55.667 -36.5 99zM150.999 141.001c0 -18 4.83301 -31.501 14.5 -40.501s22.5 -13.5 38.5 -13.5c21.333 0 42 10 62 30s30 42 30 66v21h-15c-40.667 0 -72.5 -4.16699 -95.5 -12.5s-34.5 -25.166 -34.5 -50.499z" />
    <glyph glyph-name="b" unicode="b" horiz-adv-x="519" 
d="M51 41v671c0 12 5.83301 21.667 17.5 29s26.834 11 45.501 11s34.334 -3.66699 47.001 -11s19 -17 19 -29v-307c11.333 21.333 28.166 39.333 50.499 54s48.166 22 77.499 22c48.667 0 90.5 -20 125.5 -60s52.5 -87.667 52.5 -143v-82c0 -54 -17.667 -101.667 -53 -143
s-76 -62 -122 -62c-30 0 -58 7.83301 -84 23.5s-44.333 34.167 -55 55.5v-29c0 -10 -5.83301 -19.333 -17.5 -28s-25.167 -13 -40.5 -13c-18 0 -33 4.16699 -45 12.5s-18 17.833 -18 28.5zM180 178c0 -12.667 9.16895 -28.165 27.502 -46.498s39.166 -27.5 62.499 -27.5
s43.666 9.5 60.999 28.5s26 40.167 26 63.5v82c0 23.333 -8.66699 44.166 -26 62.499s-38 27.5 -62 27.5c-22.667 0 -43.167 -8.33301 -61.5 -25s-27.5 -38.334 -27.5 -65.001v-100z" />
    <glyph glyph-name="c" unicode="c" horiz-adv-x="434" 
d="M34 196l0.000976562 80c0 61.333 18 110.833 54 148.5s90 56.5 162 56.5c45.333 0 83.333 -8 114 -24s46 -34 46 -54c0 -14 -5 -28 -15 -42s-22 -21 -36 -21c-4 0 -15.833 4.66699 -35.5 14s-40.834 14 -63.501 14c-64.667 0 -97 -30.667 -97 -92v-80
c0 -61.333 32.667 -92 98 -92c22.667 0 43.667 5 63 15s31.666 15 36.999 15c16 0 29.167 -6.66699 39.5 -20s15.5 -27 15.5 -41c0 -20.667 -16.167 -39.5 -48.5 -56.5s-71.166 -25.5 -116.499 -25.5c-72.667 0 -127 18.667 -163 56s-54 87 -54 149z" />
    <glyph glyph-name="d" unicode="d" horiz-adv-x="520" 
d="M33 196l0.00292969 82c0 55.333 17.5 103 52.5 143s76.833 60 125.5 60c29.333 0 55.166 -7.33301 77.499 -22s39.5 -32.667 51.5 -54v307c0 12 6.16699 21.667 18.5 29s27.833 11 46.5 11s34 -3.66699 46 -11s18 -17 18 -29v-671
c0 -10.667 -6.16699 -20.167 -18.5 -28.5s-27.5 -12.5 -45.5 -12.5c-15.333 -0 -28.833 4.33301 -40.5 13s-17.5 18 -17.5 28v29c-10.667 -21.333 -28.834 -39.833 -54.501 -55.5s-53.834 -23.5 -84.501 -23.5c-46 0 -86.667 20.667 -122 62s-53 89 -53 143zM162.003 196
c0 -23.333 8.66699 -44.502 26 -63.502s37.666 -28.5 60.999 -28.5s44.333 9.16699 63 27.5s28 33.833 28 46.5v100c0 26.667 -9.16699 48.334 -27.5 65.001s-39.166 25 -62.499 25c-24 0 -44.667 -9.16699 -62 -27.5s-26 -39.166 -26 -62.499v-82z" />
    <glyph glyph-name="e" unicode="e" horiz-adv-x="484" 
d="M32 196v85c0 54.667 21.333 101.667 64 141s94.334 59 155.001 59c56.667 0 105.167 -17.833 145.5 -53.5s60.5 -80.5 60.5 -134.5c0 -20 -2.5 -36.5 -7.5 -49.5s-12.667 -22.167 -23 -27.5s-19.833 -8.66602 -28.5 -9.99902s-20 -2 -34 -2h-203v-15
c0 -28.667 10.667 -51.834 32 -69.501s49.666 -26.5 84.999 -26.5c25.333 0 50.333 6.33301 75 19s40.667 19 48 19c14 0 25.667 -6.5 35 -19.5s14 -25.5 14 -37.5c0 -18.667 -16.833 -37.167 -50.5 -55.5s-75.5 -27.5 -125.5 -27.5c-71.333 0 -129.5 18.833 -174.5 56.5
s-67.5 87.167 -67.5 148.5zM161 280l145.999 -0.00195312c10.667 0 18.167 1.83301 22.5 5.5s6.5 10.834 6.5 21.501c0 23.333 -8.5 42.333 -25.5 57s-37.833 22 -62.5 22c-23.333 0 -43.666 -7.16699 -60.999 -21.5s-26 -33.166 -26 -56.499v-28z" />
    <glyph glyph-name="f" unicode="f" horiz-adv-x="340" 
d="M51 40v516.001c0 55.333 17.167 101.833 51.5 139.5s75.833 56.5 124.5 56.5h59c15.333 0 27.333 -5.33301 36 -16s13 -23.334 13 -38.001c0 -15.333 -4.33301 -28.333 -13 -39s-20.667 -16 -36 -16h-32c-22 0 -39.833 -6.66699 -53.5 -20s-20.5 -31 -20.5 -53v-95h122
c10 0 18 -4.66699 24 -14s9 -20.333 9 -33s-3 -23.667 -9 -33s-14 -14 -24 -14h-122v-341c0 -12 -6.5 -21.667 -19.5 -29s-28.5 -11 -46.5 -11s-33 3.66699 -45 11s-18 17 -18 29z" />
    <glyph glyph-name="g" unicode="g" horiz-adv-x="470" 
d="M15 -80c0 46 24.334 81.334 73.001 106.001c-28 13.333 -42 34.666 -42 63.999s17 55.333 51 78c-41.333 32 -62 74.333 -62 127v21c0 48.667 18 88.334 54 119.001s83 46 141 46c44 0 82 -9.66699 114 -29c20 45.333 40.333 68 61 68
c15.333 0 27.666 -4.33301 36.999 -13s14 -17.667 14 -27c0 -10.667 -5.33301 -20 -16 -28c-24.667 -17.333 -40.334 -30 -47.001 -38c23.333 -27.333 35 -60 35 -98v-21c0 -48 -18.5 -87.833 -55.5 -119.5s-84.5 -47.5 -142.5 -47.5c-24 0 -45.667 3 -65 9
c-8 -6.66699 -12 -13.334 -12 -20.001c0 -11.333 10.333 -19.666 31 -24.999s45.834 -9.83301 75.501 -13.5s59.167 -9 88.5 -16s54.333 -21.167 75 -42.5s31 -49.333 31 -84c0 -52 -21 -91.167 -63 -117.5s-93.667 -39.5 -155 -39.5c-62 0 -114.333 12.667 -157 38
s-64 59.666 -64 102.999zM137.001 -66.999c0 -22 9.33008 -39.333 27.9971 -52s41.667 -19 69 -19s50 6.33301 68 19s27 29.667 27 51c0 9.33301 -1.66699 17.5 -5 24.5s-9.16602 12.833 -17.499 17.5s-15.666 8.5 -21.999 11.5s-16.5 5.66699 -30.5 8
s-24.167 3.83301 -30.5 4.5s-17.166 2 -32.499 4c-36 -16.667 -54 -39.667 -54 -69zM159.998 296.001c0 -26 6.33203 -47.502 18.999 -64.502s30.334 -25.5 53.001 -25.5c22 0 39.333 8.16699 52 24.5s19 37.833 19 64.5v21c0 24.667 -6.5 45.334 -19.5 62.001
s-30.5 25 -52.5 25s-39.333 -8.16699 -52 -24.5s-19 -37.166 -19 -62.499v-20z" />
    <glyph glyph-name="h" unicode="h" 
d="M51 41l-0.000976562 671c0 12 5.83301 21.667 17.5 29s27.167 11 46.5 11c18 0 33.333 -3.66699 46 -11s19 -17 19 -29v-307c10 21.333 26 39.333 48 54s48 22 78 22c46 0 86.167 -20 120.5 -60s51.5 -87.667 51.5 -143v-237c0 -12.667 -6.5 -22.667 -19.5 -30
s-28.167 -11 -45.5 -11c-16.667 0 -31.5 3.66699 -44.5 11s-19.5 17.333 -19.5 30v237c0 22.667 -8.66699 43.334 -26 62.001s-37.666 28 -60.999 28c-22 0 -41.167 -8.33301 -57.5 -25s-24.5 -38.334 -24.5 -65.001v-237c0 -10 -6.5 -19.333 -19.5 -28
s-28.167 -13 -45.5 -13c-18 0 -33.167 4.16699 -45.5 12.5s-18.5 17.833 -18.5 28.5z" />
    <glyph glyph-name="i" unicode="i" horiz-adv-x="229" 
d="M43 644c0 17.333 6.83301 32.166 20.5 44.499s30.5 18.5 50.5 18.5c19.333 0 35.833 -6.16699 49.5 -18.5s20.5 -27.166 20.5 -44.499c0 -16.667 -6.83301 -31.334 -20.5 -44.001s-30.167 -19 -49.5 -19c-20 0 -36.833 6.33301 -50.5 19s-20.5 27.334 -20.5 44.001z
M50 41v394c0 12 6 21.667 18 29s27.333 11 46 11s34.167 -3.66699 46.5 -11s18.5 -17 18.5 -29v-394c0 -10 -6.5 -19.333 -19.5 -28s-28.167 -13 -45.5 -13c-18 0 -33.167 4.16699 -45.5 12.5s-18.5 17.833 -18.5 28.5z" />
    <glyph glyph-name="j" unicode="j" horiz-adv-x="231" 
d="M-38 -168c0 16.667 4.66602 30.166 13.999 40.499s21 15.5 35 15.5c16.667 0 27.5 6.66699 32.5 20s7.5 33.333 7.5 60v467c0 12 6 21.667 18 29s27 11 45 11c18.667 0 34.334 -3.66699 47.001 -11s19 -17 19 -29v-467c0 -57.333 -13 -103.166 -39 -137.499
s-63.333 -51.5 -112 -51.5c-44.667 0 -67 17.667 -67 53zM43.999 643.999c0 17.333 6.83301 32.166 20.5 44.499s30.5 18.5 50.5 18.5c19.333 0 35.833 -6.16699 49.5 -18.5s20.5 -27.166 20.5 -44.499c0 -16.667 -6.83301 -31.334 -20.5 -44.001s-30.167 -19 -49.5 -19
c-20 0 -36.833 6.33301 -50.5 19s-20.5 27.334 -20.5 44.001z" />
    <glyph glyph-name="k" unicode="k" horiz-adv-x="492" 
d="M51 41l-0.00292969 671c0 12 5.83301 21.667 17.5 29s26.834 11 45.501 11s34.334 -3.66699 47.001 -11s19 -17 19 -29v-419l188 177c8 6.66699 16.667 10 26 10c14 0 28 -6.66699 42 -20s21 -27.333 21 -42c0 -8.66699 -3.66699 -16.667 -11 -24l-118 -107l147 -210
c4.66699 -6.66699 7 -13.667 7 -21c0 -14.667 -8.16699 -29 -24.5 -43s-32.5 -21 -48.5 -21c-13.333 0 -24 5.66699 -32 17l-135 199l-62 -57v-110c0 -10 -6.66699 -19.333 -20 -28s-28.666 -13 -45.999 -13c-18 0 -33 4.16699 -45 12.5s-18 17.833 -18 28.5z" />
    <glyph glyph-name="l" unicode="l" horiz-adv-x="247" 
d="M59 41v671c0 12 5.83301 21.667 17.5 29s27.167 11 46.5 11c18 0 33.333 -3.66699 46 -11s19 -17 19 -29v-671c0 -10 -6.5 -19.333 -19.5 -28s-28.167 -13 -45.5 -13c-18 0 -33.167 4.16699 -45.5 12.5s-18.5 17.833 -18.5 28.5z" />
    <glyph glyph-name="m" unicode="m" horiz-adv-x="803" 
d="M50 41l-0.000976562 393.998c0 12 5.83301 21.667 17.5 29s27.167 11 46.5 11c16 0 29.5 -3.66699 40.5 -11s16.5 -17 16.5 -29v-30c28.667 50.667 72.667 76 132 76c28 0 53.167 -9.16699 75.5 -27.5s38.833 -42.5 49.5 -72.5c16.667 32.667 38.5 57.5 65.5 74.5
s55.5 25.5 85.5 25.5c48 0 89.667 -18.333 125 -55s53 -86 53 -148v-237c0 -10 -6.5 -19.333 -19.5 -28s-28.167 -13 -45.5 -13c-16.667 0 -31.5 4.33301 -44.5 13s-19.5 18 -19.5 28v237c0 28 -8 50.167 -24 66.5s-35 24.5 -57 24.5
c-21.333 0 -39.833 -8.16699 -55.5 -24.5s-23.5 -38.166 -23.5 -65.499v-239c0 -13.333 -6.33301 -23.333 -19 -30s-28 -10 -46 -10c-16.667 0 -31.5 3.5 -44.5 10.5s-19.5 16.833 -19.5 29.5v238c0 26.667 -8.16699 48.334 -24.5 65.001s-35.5 25 -57.5 25
c-21.333 0 -39.666 -8 -54.999 -24s-23 -38 -23 -66v-237c0 -10 -6.5 -19.333 -19.5 -28s-28.167 -13 -45.5 -13c-18 0 -33.167 4.16699 -45.5 12.5s-18.5 17.833 -18.5 28.5z" />
    <glyph glyph-name="n" unicode="n" horiz-adv-x="523" 
d="M50 41l-0.00195312 394.002c0 12 5.83301 21.667 17.5 29s27.167 11 46.5 11c16 0 29.5 -3.66699 40.5 -11s16.5 -17 16.5 -29v-30c10.667 21.333 27.834 39.333 51.501 54s51.167 22 82.5 22c46 0 86.167 -20 120.5 -60s51.5 -87.667 51.5 -143v-237
c0 -12.667 -6.5 -22.667 -19.5 -30s-28.167 -11 -45.5 -11c-16.667 0 -31.5 3.66699 -44.5 11s-19.5 17.333 -19.5 30v237c0 23.333 -8.66699 44.166 -26 62.499s-37.666 27.5 -60.999 27.5c-22 0 -41.167 -8.33301 -57.5 -25s-24.5 -38.334 -24.5 -65.001v-237
c0 -10 -6.5 -19.333 -19.5 -28s-28.167 -13 -45.5 -13c-18 0 -33.167 4.16699 -45.5 12.5s-18.5 17.833 -18.5 28.5z" />
    <glyph glyph-name="o" unicode="o" horiz-adv-x="498" 
d="M32 196v82c0 54.667 21.333 102.167 64 142.5s93.667 60.5 153 60.5c58 0 108.667 -20 152 -60s65 -87.667 65 -143v-82c0 -54 -21.667 -101.667 -65 -143s-94 -62 -152 -62s-108.667 20.667 -152 62s-65 89 -65 143zM161 196c0 -24 8.66699 -45.335 26 -64.002
s38 -28 62 -28c23.333 0 43.833 9.33301 61.5 28s26.5 40 26.5 64v82c0 22.667 -8.83301 43.334 -26.5 62.001s-38.167 28 -61.5 28c-24 0 -44.667 -9.16699 -62 -27.5s-26 -39.166 -26 -62.499v-82z" />
    <glyph glyph-name="p" unicode="p" horiz-adv-x="519" 
d="M51 -180v615c0 12 5.83301 21.667 17.5 29s26.167 11 43.5 11s31.666 -3.66699 42.999 -11s17 -17 17 -29v-30c12.667 21.333 30.834 39.333 54.501 54s50.5 22 80.5 22c50 0 92.333 -19.833 127 -59.5s52 -87.5 52 -143.5v-82c0 -54 -17.667 -101.667 -53 -143
s-76 -62 -122 -62c-28.667 0 -55.167 7.83301 -79.5 23.5s-41.5 34.167 -51.5 55.5v-250c0 -10.667 -6.5 -20.167 -19.5 -28.5s-28.5 -12.5 -46.5 -12.5s-33 4.16699 -45 12.5s-18 17.833 -18 28.5zM180 178c0 -13.333 9 -28.998 27 -46.998s38.333 -27 61 -27
c23.333 0 44 9.5 62 28.5s27 40.167 27 63.5v82c0 23.333 -9 44.166 -27 62.499s-39.333 27.5 -64 27.5c-22.667 0 -42.667 -8.33301 -60 -25s-26 -38.334 -26 -65.001v-100z" />
    <glyph glyph-name="q" unicode="q" horiz-adv-x="520" 
d="M33 196l0.000976562 82c0 56 17.5 103.833 52.5 143.5s77.5 59.5 127.5 59.5c30 0 56.833 -7.33301 80.5 -22s41.5 -32.667 53.5 -54v30c0 12 5.66699 21.667 17 29s25.666 11 42.999 11s32 -3.66699 44 -11s18 -17 18 -29v-615c0 -10.667 -6.16699 -20.167 -18.5 -28.5
s-27.5 -12.5 -45.5 -12.5s-33.333 4.16699 -46 12.5s-19 17.833 -19 28.5v250c-10.667 -22 -28.167 -40.667 -52.5 -56s-50.833 -23 -79.5 -23c-46 0 -86.667 20.667 -122 62s-53 89 -53 143zM162.001 196c0 -23.333 9.00098 -44.502 27.001 -63.502s38.667 -28.5 62 -28.5
s44 9 62 27s27 33.667 27 47v100c0 26.667 -8.83301 48.334 -26.5 65.001s-37.834 25 -60.501 25c-24.667 0 -46 -9.16699 -64 -27.5s-27 -39.166 -27 -62.499v-82z" />
    <glyph glyph-name="r" unicode="r" horiz-adv-x="377" 
d="M50 41l-0.00292969 394c0 12 5.83301 21.667 17.5 29s26.834 11 45.501 11c16.667 0 30.5 -3.66699 41.5 -11s16.5 -17 16.5 -29v-41c10.667 23.333 27.334 43.666 50.001 60.999s47 26 73 26h31c12 0 22.833 -5.66699 32.5 -17s14.5 -24.333 14.5 -39
c0 -15.333 -4.83301 -28.666 -14.5 -39.999s-20.5 -17 -32.5 -17h-31c-30.667 0 -57.5 -13.667 -80.5 -41s-34.5 -63 -34.5 -107v-179c0 -10 -6.66699 -19.333 -20 -28s-28.666 -13 -45.999 -13c-18 0 -33 4.16699 -45 12.5s-18 17.833 -18 28.5z" />
    <glyph glyph-name="s" unicode="s" horiz-adv-x="414" 
d="M23 77c0 12 4.33203 24.4971 12.999 37.4971s18.667 19.5 30 19.5c7.33301 0 16.5 -3.66699 27.5 -11s25.5 -14.833 43.5 -22.5s39.333 -11.5 64 -11.5c48.667 0 73 14.333 73 43c0 16 -8.16699 28.667 -24.5 38s-36 17 -59 23s-46.167 13.167 -69.5 21.5
s-43.166 22.333 -59.499 42s-24.5 44.834 -24.5 75.501c0 40.667 14.333 75.667 43 105s74 44 136 44c41.333 0 78.166 -6.33301 110.499 -19s48.5 -28 48.5 -46c0 -11.333 -4.5 -24.5 -13.5 -39.5s-20.167 -22.5 -33.5 -22.5c-5.33301 0 -19.833 4.83301 -43.5 14.5
s-45.834 14.5 -66.501 14.5c-22.667 0 -40 -4.66699 -52 -14s-18 -19.666 -18 -30.999s6 -20.666 18 -27.999s26.833 -13 44.5 -17s36.834 -9.5 57.501 -16.5s39.834 -15.167 57.501 -24.5s32.5 -23.833 44.5 -43.5s18 -43.5 18 -71.5c0 -45.333 -16.167 -81 -48.5 -107
s-77.5 -39 -135.5 -39c-50 0 -92.667 8.66699 -128 26s-53 37.333 -53 60z" />
    <glyph glyph-name="t" unicode="t" horiz-adv-x="347" 
d="M49 162v485.001c0 11.333 6.66699 20.833 20 28.5s28 11.5 44 11.5c17.333 0 32.5 -3.83301 45.5 -11.5s19.5 -17.167 19.5 -28.5v-172h118c10 0 18 -4.66699 24 -14s9 -20.333 9 -33s-3 -23.667 -9 -33s-14 -14 -24 -14h-118v-219c0 -19.333 4.16699 -33 12.5 -41
s22.833 -12 43.5 -12h39c17.333 0 30.833 -5.33301 40.5 -16s14.5 -23.334 14.5 -38.001c0 -15.333 -4.83301 -28.333 -14.5 -39s-23.167 -16 -40.5 -16h-39c-123.333 0 -185 54 -185 162z" />
    <glyph glyph-name="u" unicode="u" 
d="M45 194l0.000976562 240c0 10 6.5 19.333 19.5 28s28.167 13 45.5 13c16.667 0 31.5 -4.33301 44.5 -13s19.5 -18 19.5 -28v-240c0 -23.333 8.66699 -44.166 26 -62.499s38 -27.5 62 -27.5s44.5 9.16699 61.5 27.5s25.5 39.166 25.5 62.499v241c0 10.667 6.5 20 19.5 28
s28.167 12 45.5 12c18.667 0 34 -4 46 -12s18 -17.333 18 -28v-241c0 -54 -21.333 -101.333 -64 -142s-93.334 -61 -152.001 -61s-109.5 20.333 -152.5 61s-64.5 88 -64.5 142z" />
    <glyph glyph-name="v" unicode="v" horiz-adv-x="481" 
d="M6 426c0 14 9.83301 26.667 29.5 38s38.5 17 56.5 17c19.333 0 32 -7.33301 38 -22l111 -290l111 288c6 16 18.333 24 37 24c16 0 34.333 -5.83301 55 -17.5s31 -24.5 31 -38.5c0 -6 -1.33301 -11.667 -4 -17l-171 -396c-7.33301 -15.333 -27 -23 -59 -23
s-51.333 7.66699 -58 23l-172 396c-3.33301 4.66699 -5 10.667 -5 18z" />
    <glyph glyph-name="w" unicode="w" horiz-adv-x="693" 
d="M7 427c0 14.667 9.33398 27.168 28.001 37.501s37.334 15.5 56.001 15.5c19.333 0 31.666 -7 36.999 -21l100 -284l75 247c5.33301 17.333 20 26 44 26s38.667 -8.66699 44 -26l74 -248l101 285c5.33301 14 17.666 21 36.999 21c18 0 36.333 -5.33301 55 -16
s28 -23.334 28 -38.001c0 -7.33301 -1.33301 -13.333 -4 -18l-154 -396c-6 -15.333 -23 -23 -51 -23c-29.333 0 -47 7.66699 -53 23l-77 218l-76 -217c-6 -16 -24.333 -24 -55 -24c-27.333 0 -44 8 -50 24l-154 395c-3.33301 6.66699 -5 13 -5 19z" />
    <glyph glyph-name="x" unicode="x" horiz-adv-x="470" 
d="M21 55c0 8 2.66699 15.332 8 21.999l118 165l-110 153c-5.33301 7.33301 -8 14.333 -8 21c0 14.667 10 29.167 30 43.5s38.667 21.5 56 21.5c13.333 0 23 -4.66699 29 -14l91 -146l92 145c6.66699 10 16.667 15 30 15c16.667 0 35 -7.16699 55 -21.5s30 -28.833 30 -43.5
c0 -5.33301 -2.66699 -12.333 -8 -21l-111 -154l119 -164c5.33301 -5.33301 8 -12.666 8 -21.999c0 -14 -9.66699 -28.167 -29 -42.5s-37.666 -21.5 -54.999 -21.5c-13.333 0 -23.333 4.66699 -30 14l-101 152l-100 -152c-6.66699 -9.33301 -17.334 -14 -32.001 -14
s-32 7.16699 -52 21.5s-30 28.5 -30 42.5z" />
    <glyph glyph-name="y" unicode="y" horiz-adv-x="476" 
d="M6 -166c0 36 11.002 53.9971 33.002 53.9971c31.333 0 62.166 11.333 92.499 34s47.166 60.334 50.499 113.001l-172 368c-2.66699 6.66699 -4 12.334 -4 17.001c0 16 9.83301 30.333 29.5 43s38.5 19 56.5 19c20 0 32.333 -7.33301 37 -22l120 -299l97 299
c4.66699 14.667 16 22 34 22c17.333 0 36.333 -6.5 57 -19.5s31 -27.833 31 -44.5c0 -5.33301 -1 -10.333 -3 -15l-146 -373l-17 -44c-8 -22.667 -13.833 -38.334 -17.5 -47.001s-10 -22.167 -19 -40.5s-17 -31.666 -24 -39.999s-16.833 -18.666 -29.5 -30.999
s-25.5 -21.333 -38.5 -27s-28.833 -10.667 -47.5 -15s-39 -6.5 -61 -6.5c-19.333 0 -34 3.66699 -44 11s-15 22 -15 44z" />
    <glyph glyph-name="z" unicode="z" horiz-adv-x="437" 
d="M21 46c0 17.333 7.33301 34.667 22 52l197 272h-173c-10.667 0 -19.667 5.16699 -27 15.5s-11 22.833 -11 37.5s3.5 27 10.5 37s16.167 15 27.5 15h294c12 0 22 -3.83301 30 -11.5s12 -18.5 12 -32.5c0 -18.667 -6.66699 -36.667 -20 -54l-198 -272h196
c10.667 0 19.667 -5.16699 27 -15.5s11 -22.833 11 -37.5s-3.5 -27 -10.5 -37s-16.167 -15 -27.5 -15h-316c-14.667 0 -25.667 4.5 -33 13.5s-11 19.833 -11 32.5z" />
    <glyph glyph-name="braceleft" unicode="{" horiz-adv-x="361" 
d="M21 386c0 14 3.16406 24.6641 9.49707 31.9971s13.166 11.666 20.499 12.999s14.166 4.16602 20.499 8.49902s9.5 10.833 9.5 19.5c0 6 -2.66699 27.333 -8 64s-8 61 -8 73c0 44.667 21.833 84.5 65.5 119.5s91.834 52.5 144.501 52.5c47.333 0 71 -19 71 -57
c0 -14 -3.5 -26.333 -10.5 -37s-16.833 -16 -29.5 -16c-25.333 0 -50.166 -6.83301 -74.499 -20.5s-36.5 -33.167 -36.5 -58.5c0 -8.66699 2.66699 -31.667 8 -69s8 -59.666 8 -66.999c0 -12.667 -4.16699 -25 -12.5 -37s-16.166 -19.333 -23.499 -22
c8 -2 16 -8.83301 24 -20.5s12 -24.167 12 -37.5c0 -8.66699 -2.66699 -37.167 -8 -85.5s-8 -76.5 -8 -84.5c0 -23.333 12 -40.166 36 -50.499s49 -15.5 75 -15.5c14 0 24.167 -5.66699 30.5 -17s9.5 -23.666 9.5 -36.999c0 -37.333 -24.333 -56 -73 -56
c-54 0 -102.167 15.333 -144.5 46s-63.5 69 -63.5 115c0 12.667 2.66699 42.667 8 90s8 74 8 80c0 8.66699 -3.16699 15.334 -9.5 20.001s-13.166 7.83398 -20.499 9.50098s-14.166 6.16699 -20.499 13.5s-9.5 18 -9.5 32z" />
    <glyph glyph-name="bar" unicode="|" horiz-adv-x="241" 
d="M56 20v708c0 11.333 6 20.833 18 28.5s27.333 11.5 46 11.5c18 0 33.333 -3.83301 46 -11.5s19 -17.167 19 -28.5v-708c0 -10 -6.5 -19.333 -19.5 -28s-28.167 -13 -45.5 -13c-18 0 -33.167 4.16699 -45.5 12.5s-18.5 17.833 -18.5 28.5z" />
    <glyph glyph-name="braceright" unicode="}" horiz-adv-x="361" 
d="M15 36c0 13.333 3.16797 25.6699 9.50098 37.0029s16.833 17 31.5 17c25.333 0 50 5.16699 74 15.5s36 27.166 36 50.499c0 8 -2.66699 36.167 -8 84.5s-8 76.833 -8 85.5c0 13.333 4.16699 25.666 12.5 36.999s16.166 18.333 23.499 21
c-7.33301 2.66699 -15.166 10 -23.499 22s-12.5 24.333 -12.5 37c0 7.33301 2.66699 29.666 8 66.999s8 60.333 8 69c0 25.333 -12 44.833 -36 58.5s-48.667 20.5 -74 20.5c-12.667 0 -22.667 5.33301 -30 16s-11 23 -11 37c0 16 5.66699 29.5 17 40.5
s29.666 16.5 54.999 16.5c52.667 0 100.667 -17.5 144 -52.5s65 -74.833 65 -119.5c0 -12 -2.66699 -36.333 -8 -73s-8 -58 -8 -64c0 -8.66699 3.16699 -15.167 9.5 -19.5s13.166 -7.16602 20.499 -8.49902s14.166 -5.66602 20.499 -12.999s9.5 -18 9.5 -32
s-3.16699 -24.667 -9.5 -32s-13.166 -11.833 -20.499 -13.5s-14.166 -4.83398 -20.499 -9.50098s-9.5 -11.334 -9.5 -20.001c0 -6 2.66699 -32.667 8 -80s8 -77.333 8 -90c0 -46 -21.167 -84.333 -63.5 -115s-90.5 -46 -144.5 -46c-48.667 0 -73 18.667 -73 56z" />
    <glyph glyph-name="asciitilde" unicode="~" horiz-adv-x="411" 
d="M35 246c0 18.667 6 33.5 18 44.5s23.5 17.667 34.5 20s22.167 3.5 33.5 3.5c19.333 0 43.333 -4.83301 72 -14.5s52 -14.5 70 -14.5c16 0 32.167 4 48.5 12s27.166 12 32.499 12c11.333 0 19.666 -5 24.999 -15s8 -19 8 -27c0 -14.667 -3.16699 -26.834 -9.5 -36.501
s-14.666 -16.667 -24.999 -21s-19.5 -7.16602 -27.5 -8.49902s-15.667 -2 -23 -2c-23.333 0 -49 4.83301 -77 14.5s-49.667 14.5 -65 14.5c-16 0 -32.333 -4 -49 -12s-27.667 -12 -33 -12c-11.333 0 -19.666 5 -24.999 15s-8 19 -8 27z" />
    <glyph glyph-name="uni00A0" unicode="&#xa0;" horiz-adv-x="200" 
 />
    <glyph glyph-name="exclamdown" unicode="&#xa1;" horiz-adv-x="221" 
d="M42 667c0 18 6.66699 33.8311 20 47.498s29.333 20.5 48 20.5s34.667 -6.83301 48 -20.5s20 -29.5 20 -47.5c0 -19.333 -6.66699 -35.666 -20 -48.999s-29.333 -20 -48 -20s-34.667 6.83301 -48 20.5s-20 29.834 -20 48.501zM48 47.998
c0 44.667 2.33496 118.334 7.00195 221.001s7 176 7 220c0 12 5.16699 21.333 15.5 28s21.166 10 32.499 10c14.667 0 26.667 -3.16699 36 -9.5s14 -15.833 14 -28.5c0 -44 2.16699 -117.333 6.5 -220s6.5 -176.334 6.5 -221.001c0 -16.667 -5.83301 -29.834 -17.5 -39.501
s-26.834 -14.5 -45.501 -14.5c-17.333 0 -32 4.83301 -44 14.5s-18 22.834 -18 39.501z" />
    <glyph glyph-name="cent" unicode="&#xa2;" horiz-adv-x="432" 
d="M24 361l0.00195312 17.999c0 56.667 15.167 103.334 45.5 140.001s75.833 58 136.5 64v77c0 10 3.66699 18.333 11 25s16.333 10 27 10s19.667 -3.33301 27 -10s11 -15 11 -25v-79c34.667 -4.66699 63.334 -13.834 86.001 -27.501s34 -29.167 34 -46.5
c0 -14 -5 -27.333 -15 -40s-22.333 -19 -37 -19c-4.66699 0 -13.834 3.66699 -27.501 11s-27.167 12.333 -40.5 15v-207c13.333 2.66699 26.666 8 39.999 16s22.666 12 27.999 12c16.667 0 30.167 -6.16699 40.5 -18.5s15.5 -25.5 15.5 -39.5
c0 -17.333 -11.833 -33.5 -35.5 -48.5s-53.167 -25.167 -88.5 -30.5v-82c0 -9.33301 -3.83301 -17.833 -11.5 -25.5s-16.5 -11.5 -26.5 -11.5c-10.667 0 -19.667 3.83301 -27 11.5s-11 16.167 -11 25.5v81c-60.667 6 -106.167 27.333 -136.5 64s-45.5 83.334 -45.5 140.001z
M137.002 360.999c0 -52.667 23 -84.667 69 -96v209c-46 -11.333 -69 -43 -69 -95v-18z" />
    <glyph glyph-name="sterling" unicode="&#xa3;" horiz-adv-x="541" 
d="M21 57c0 15.333 3.5 28.666 10.5 39.999s16.5 17 28.5 17h53l35 252h-56c-10 0 -18 4.66699 -24 14s-9 20.333 -9 33s3 23.667 9 33s14 14 24 14h69l14 95c8.66699 61.333 37.667 112.166 87 152.499s105.333 60.5 168 60.5h35c13.333 0 24 -5.66699 32 -17
s12 -24.333 12 -39c0 -15.333 -4 -28.666 -12 -39.999s-18.667 -17 -32 -17h-40c-34.667 0 -62.5 -9.33301 -83.5 -28s-33.5 -42.667 -37.5 -72l-14 -95h120c10.667 0 18.834 -4.66699 24.501 -14s8.5 -20.333 8.5 -33s-2.83301 -23.667 -8.5 -33s-13.834 -14 -24.501 -14
h-133l-36 -252h229c12 0 21.5 -5.66699 28.5 -17s10.5 -24.666 10.5 -39.999s-3.5 -28.666 -10.5 -39.999s-16.5 -17 -28.5 -17h-410c-12 0 -21.5 5.66699 -28.5 17s-10.5 24.666 -10.5 39.999z" />
    <glyph glyph-name="currency" unicode="&#xa4;" horiz-adv-x="452" 
d="M48 331c0 4.66699 2.00098 9.00195 6.00098 13.002l28 26c-22 30.667 -33 64.667 -33 102s10.667 71.333 32 102l-26 25c-3.33301 3.33301 -5 7.66602 -5 12.999c0 7.33301 2.83301 13.833 8.5 19.5s12.167 8.5 19.5 8.5c4 0 8.33301 -1.66699 13 -5l24 -23
c33.333 26.667 70.333 40 111 40c39.333 0 75.666 -13 108.999 -39l25 23c4 3.33301 8.66699 5 14 5c6.66699 0 13 -2.83301 19 -8.5s9 -12.167 9 -19.5c0 -4.66699 -2 -9 -6 -13l-26 -25c22.667 -30 34 -64 34 -102c0 -38.667 -11.667 -73.334 -35 -104.001l27 -25
c4 -4 6 -8.33301 6 -13c0 -7.33301 -3 -13.833 -9 -19.5s-12.333 -8.5 -19 -8.5c-5.33301 0 -10 1.66699 -14 5l-25 23c-32.667 -27.333 -69 -41 -109 -41c-39.333 0 -76.333 14 -111 42l-25 -24c-4 -3.33301 -8.66699 -5 -14 -5c-7.33301 0 -13.833 2.83301 -19.5 8.5
s-8.5 12.167 -8.5 19.5zM120.001 472.002c0 -28.667 10.333 -54.166 31 -76.499s45.667 -33.5 75 -33.5s54.5 11 75.5 33s31.5 47.333 31.5 76s-10.5 54 -31.5 76s-46.167 33 -75.5 33s-54.333 -10.833 -75 -32.5s-31 -46.834 -31 -75.501z" />
    <glyph glyph-name="yen" unicode="&#xa5;" horiz-adv-x="563" 
d="M21 683c0 12.667 8.49805 24.667 25.498 36s34.167 17 51.5 17c14 0 26.333 -10 37 -30l146 -271l147 271c10.667 20 23 30 37 30c16.667 0 33.667 -5.83301 51 -17.5s26 -23.5 26 -35.5c0 -5.33301 -1.33301 -10.666 -4 -15.999l-164 -266h65
c10.667 0 20.334 -4.5 29.001 -13.5s13 -19.833 13 -32.5s-4.33301 -23.334 -13 -32.001s-18.334 -13 -29.001 -13h-93v-64h93c10.667 0 20.334 -4.5 29.001 -13.5s13 -19.833 13 -32.5c0 -13.333 -4.16699 -24.166 -12.5 -32.499s-18.166 -12.5 -29.499 -12.5h-93v-114
c0 -12.667 -6.33301 -22.667 -19 -30s-28 -11 -46 -11s-33.333 3.66699 -46 11s-19 17.333 -19 30v114h-90c-12.667 0 -22.667 4 -30 12s-11 18.667 -11 32c0 14 3.83301 25.333 11.5 34s17.5 13 29.5 13h90v64h-90c-12.667 0 -22.667 4 -30 12s-11 18.667 -11 32
c0 14 3.83301 25.333 11.5 34s17.5 13 29.5 13h60l-161 266c-2.66699 3.33301 -4 8.66602 -4 15.999z" />
    <glyph glyph-name="brokenbar" unicode="&#xa6;" horiz-adv-x="239" 
d="M55 20v250c0 12 6 21.833 18 29.5s27.333 11.5 46 11.5c18 0 33.333 -3.83301 46 -11.5s19 -17.5 19 -29.5v-250c0 -10 -6.5 -19.333 -19.5 -28s-28.167 -13 -45.5 -13c-18 0 -33.167 4.16699 -45.5 12.5s-18.5 17.833 -18.5 28.5zM55 478v250c0 11.333 6 20.833 18 28.5
s27.333 11.5 46 11.5c18 0 33.333 -3.83301 46 -11.5s19 -17.167 19 -28.5v-250c0 -10.667 -6.5 -20.334 -19.5 -29.001s-28.167 -13 -45.5 -13c-18 0 -33.167 4.33301 -45.5 13s-18.5 18.334 -18.5 29.001z" />
    <glyph glyph-name="section" unicode="&#xa7;" horiz-adv-x="477" 
d="M40 99c0 18.667 4.66699 31.835 14 39.502s23 11.5 41 11.5c37.333 0 56 -12 56 -36c0 -50 25.333 -75 76 -75c28 0 48.833 6.5 62.5 19.5s20.5 30.5 20.5 52.5s-9.16699 40.167 -27.5 54.5s-40.5 26.833 -66.5 37.5s-52 23.167 -78 37.5s-48.167 36.333 -66.5 66
s-27.5 66.5 -27.5 110.5v107c0 39.333 6 73.333 18 102s28.167 50.167 48.5 64.5s41 24.666 62 30.999s43.167 9.5 66.5 9.5c57.333 0 101.833 -16.5 133.5 -49.5s47.5 -72.167 47.5 -117.5c0 -19.333 -4.16699 -32.666 -12.5 -39.999s-20.5 -11 -36.5 -11
c-36.667 0 -55 14.333 -55 43c0 18.667 -5.33301 35 -16 49s-29.334 21 -56.001 21c-25.333 0 -45.166 -6.83301 -59.499 -20.5s-21.5 -31.834 -21.5 -54.501c0 -22 9.5 -40.167 28.5 -54.5s42.167 -26.833 69.5 -37.5s54.5 -23.167 81.5 -37.5s50 -36.333 69 -66
s28.5 -66.5 28.5 -110.5v-107c0 -38.667 -6.16699 -72 -18.5 -100s-29 -49.333 -50 -64s-42.667 -25.334 -65 -32.001s-46.166 -10 -71.499 -10c-60.667 0 -108.334 16.833 -143.001 50.5s-52 72.5 -52 116.5zM151 391.001c0 -31.333 10.667 -55.5 32 -72.5
s48.666 -31.5 81.999 -43.5s56.333 -23.667 69 -35v21c0 31.333 -10.667 55.5 -32 72.5s-48.666 31.5 -81.999 43.5s-56.333 23.667 -69 35v-21z" />
    <glyph glyph-name="dieresis" unicode="&#xa8;" horiz-adv-x="251" 
d="M0 630c0 14 5 26.167 15 36.5s22 15.5 36 15.5s25.833 -5.16699 35.5 -15.5s14.5 -22.5 14.5 -36.5s-4.83301 -26.333 -14.5 -37s-21.5 -16 -35.5 -16s-26 5.33301 -36 16s-15 23 -15 37zM149 630c0 14 5 26.167 15 36.5s22.333 15.5 37 15.5
c13.333 0 25 -5.16699 35 -15.5s15 -22.5 15 -36.5s-5 -26.333 -15 -37s-21.667 -16 -35 -16c-14 0 -26.167 5.33301 -36.5 16s-15.5 23 -15.5 37z" />
    <glyph glyph-name="copyright" unicode="&#xa9;" horiz-adv-x="690" 
d="M38 358c0 53.333 9.5 101.5 28.5 144.5s43.833 77.333 74.5 103s63.834 45.334 99.501 59.001s71.5 20.5 107.5 20.5s71.667 -6.83301 107 -20.5s67.833 -33.334 97.5 -59.001s53.667 -59.667 72 -102s27.5 -89.5 27.5 -141.5c0 -53.333 -9.5 -101.5 -28.5 -144.5
s-43.833 -77.333 -74.5 -103s-63.834 -45.334 -99.501 -59.001s-71.5 -20.5 -107.5 -20.5s-71.667 6.83301 -107 20.5s-67.833 33.334 -97.5 59.001s-53.667 59.667 -72 102s-27.5 89.5 -27.5 141.5zM100 358c0 -76.667 22 -139.334 66 -188.001s102.667 -73 176 -73
s133 24.5 179 73.5s69 112.833 69 191.5c0 76.667 -22.167 139.334 -66.5 188.001s-102.833 73 -175.5 73c-73.333 0 -133 -24.5 -179 -73.5s-69 -112.833 -69 -191.5zM227 298l-0.000976562 138c0 44 11 76.333 33 97s50.667 31 86 31c36 0 65.5 -9.66699 88.5 -29
s34.5 -45 34.5 -77c0 -14 -2.66699 -23.5 -8 -28.5s-14.333 -7.5 -27 -7.5c-23.333 0 -35.333 7.66699 -36 23c-2 36 -18.333 54 -49 54c-34 0 -51 -21 -51 -63v-138c0 -42 17 -63 51 -63c10.667 0 19.334 1.83301 26.001 5.5s11.5 9 14.5 16s5 13 6 18
s1.83301 11.5 2.5 19.5c0.666992 14.667 12.334 22 35.001 22c13.333 0 22.666 -2.5 27.999 -7.5s8 -14.5 8 -28.5c0 -33.333 -11.5 -60 -34.5 -80s-52.5 -30 -88.5 -30c-35.333 0 -64 10.333 -86 31s-33 53 -33 97z" />
    <glyph glyph-name="ordfeminine" unicode="&#xaa;" horiz-adv-x="334" 
d="M26 521c0 36 13.499 61.332 40.499 75.999s65.5 22 115.5 22h27v9c0 16.667 -4.66699 31.167 -14 43.5s-24 18.5 -44 18.5c-20.667 0 -38 -3.66699 -52 -11s-22 -11 -24 -11c-9.33301 0 -16.666 4.5 -21.999 13.5s-8 19.167 -8 30.5c0 12.667 11.5 23.834 34.5 33.501
s47.167 14.5 72.5 14.5c48.667 0 84.667 -12.5 108 -37.5s35 -56.167 35 -93.5v-163c0 -7.33301 -4 -13.666 -12 -18.999s-18.333 -8 -31 -8c-10.667 0 -19.667 2.66699 -27 8s-11 11.666 -11 18.999v20c-30 -35.333 -62.667 -53 -98 -53c-26 0 -47.5 7.33301 -64.5 22
s-25.5 36.667 -25.5 66zM112.999 532.999c0 -24 11.667 -36 35 -36c14.667 0 28.5 6.5 41.5 19.5s19.5 27.833 19.5 44.5v13h-21c-50 0 -75 -13.667 -75 -41z" />
    <glyph glyph-name="guillemotleft" unicode="&#xab;" horiz-adv-x="499" 
d="M24 276c0 4.66699 0.834961 9.16797 2.50195 13.501s4.83398 10.5 9.50098 18.5l11 19l73 136c6 11.333 18.333 17 37 17c20 0 38.333 -7.33301 55 -22s25 -29 25 -43c0 -4.66699 -1 -8.66699 -3 -12l-67 -126l67 -125c2 -4 3 -8.33301 3 -13
c0 -14.667 -8.33301 -29.167 -25 -43.5s-35.334 -21.5 -56.001 -21.5c-18 0 -30 5.66699 -36 17l-73 136c-2.66699 5.33301 -6.33398 11.666 -11.001 18.999s-7.83398 13 -9.50098 17s-2.5 8.33301 -2.5 13zM251.002 276.001c0 4.66699 0.833984 9.16797 2.50098 13.501
s4.83398 10.5 9.50098 18.5l11 19l74 136c5.33301 11.333 17.333 17 36 17c20.667 0 39.167 -7.16699 55.5 -21.5s24.5 -28.833 24.5 -43.5c0 -4.66699 -1 -8.66699 -3 -12l-67 -126l67 -125c2 -4 3 -8.33301 3 -13c0 -14 -8.33301 -28.333 -25 -43s-35 -22 -55 -22
c-18.667 0 -30.667 5.66699 -36 17l-74 136c-2.66699 5.33301 -6.33398 11.666 -11.001 18.999s-7.83398 13 -9.50098 17s-2.5 8.33301 -2.5 13z" />
    <glyph glyph-name="logicalnot" unicode="&#xac;" horiz-adv-x="497" 
d="M32 240c0 15.333 3.66602 28.168 10.999 38.501s17 15.5 29 15.5h334c10.667 0 20.334 -5.33301 29.001 -16s13 -23.334 13 -38.001v-136c0 -10.667 -6.33301 -20.167 -19 -28.5s-28 -12.5 -46 -12.5s-33.167 4.16699 -45.5 12.5s-18.5 17.833 -18.5 28.5v83h-247
c-12 0 -21.667 4.83301 -29 14.5s-11 22.5 -11 38.5z" />
    <glyph glyph-name="uni00AD" unicode="&#xad;" horiz-adv-x="473" 
d="M36 240c0 15.333 3.66504 28.168 10.998 38.501s17 15.5 29 15.5h320c10.667 0 20.334 -5.33301 29.001 -16s13 -23.334 13 -38.001c0 -15.333 -4.16699 -28 -12.5 -38s-18.166 -15 -29.499 -15h-320c-12 0 -21.667 4.83301 -29 14.5s-11 22.5 -11 38.5z" />
    <glyph glyph-name="registered" unicode="&#xae;" horiz-adv-x="690" 
d="M38 358c0 53.333 9.5 101.5 28.5 144.5s43.833 77.333 74.5 103s63.834 45.334 99.501 59.001s71.5 20.5 107.5 20.5s71.667 -6.83301 107 -20.5s67.833 -33.334 97.5 -59.001s53.667 -59.667 72 -102s27.5 -89.5 27.5 -141.5c0 -53.333 -9.5 -101.5 -28.5 -144.5
s-43.833 -77.333 -74.5 -103s-63.834 -45.334 -99.501 -59.001s-71.5 -20.5 -107.5 -20.5s-71.667 6.83301 -107 20.5s-67.833 33.334 -97.5 59.001s-53.667 59.667 -72 102s-27.5 89.5 -27.5 141.5zM100 358c0 -76.667 22 -139.334 66 -188.001s102.667 -73 176 -73
s133 24.5 179 73.5s69 112.833 69 191.5c0 76.667 -22.167 139.334 -66.5 188.001s-102.833 73 -175.5 73c-73.333 0 -133 -24.5 -179 -73.5s-69 -112.833 -69 -191.5zM238 203l-0.000976562 325c0 14 7.33301 21.667 22 23h98c34.667 0 62.834 -8.5 84.501 -25.5
s32.5 -44.5 32.5 -82.5c0 -53.333 -21.333 -87.666 -64 -102.999l61 -119c0.666992 -1.33301 1 -3.66602 1 -6.99902c0 -8.66699 -4 -16.834 -12 -24.501s-16.333 -11.5 -25 -11.5c-9.33301 0 -16.333 6 -21 18l-66 133h-44v-126c0 -16 -10.667 -24 -32 -24
c-9.33301 0 -17.5 2.16699 -24.5 6.5s-10.5 10.166 -10.5 17.499zM304.999 386h53c34 0 51 16.667 51 50c0 36.667 -17 55 -51 55h-53v-105z" />
    <glyph glyph-name="macron" unicode="&#xaf;" horiz-adv-x="286" 
d="M0 652c0 12 3.66699 22.166 11 30.499s17 12.5 29 12.5h205c10.667 0 20.167 -4.16699 28.5 -12.5s12.5 -18.5 12.5 -30.5s-4.16699 -22 -12.5 -30s-17.833 -12 -28.5 -12h-205c-12 0 -21.667 3.83301 -29 11.5s-11 17.834 -11 30.501z" />
    <glyph glyph-name="degree" unicode="&#xb0;" horiz-adv-x="399" 
d="M22 588c0 48 17.499 90.001 52.499 126.001s76.5 54 124.5 54c47.333 0 88.833 -17.667 124.5 -53s53.5 -77.333 53.5 -126s-17.833 -91.334 -53.5 -128.001s-77.167 -55 -124.5 -55s-88.666 18.333 -123.999 55s-53 79 -53 127zM92.999 588.001
c0 -28.667 10.333 -54.166 31 -76.499s45.667 -33.5 75 -33.5s54.5 11 75.5 33s31.5 47.333 31.5 76s-10.5 54 -31.5 76s-46.167 33 -75.5 33s-54.333 -10.833 -75 -32.5s-31 -46.834 -31 -75.501z" />
    <glyph glyph-name="plusminus" unicode="&#xb1;" horiz-adv-x="471" 
d="M35 85c0 15.333 3.66699 28.168 11 38.501s17 15.5 29 15.5h320c10.667 0 20.167 -5.33301 28.5 -16s12.5 -23.334 12.5 -38.001c0 -15.333 -4.16699 -28 -12.5 -38s-17.833 -15 -28.5 -15h-320c-12 0 -21.667 4.83301 -29 14.5s-11 22.5 -11 38.5zM35 368.002
c0 16 3.66504 29.167 10.998 39.5s17 15.5 29 15.5h107v98c0 10 5.33301 19.333 16 28s23.334 13 38.001 13c15.333 0 28 -4.16699 38 -12.5s15 -17.833 15 -28.5v-98h106c10.667 0 20.167 -5.33301 28.5 -16s12.5 -23.667 12.5 -39s-4.16699 -28 -12.5 -38
s-17.833 -15 -28.5 -15h-106v-99c0 -12 -4.83301 -21.667 -14.5 -29s-22.5 -11 -38.5 -11c-15.333 0 -28.166 3.66699 -38.499 11s-15.5 17 -15.5 29v99h-107c-12 0 -21.667 5 -29 15s-11 22.667 -11 38z" />
    <glyph glyph-name="uni00B2" unicode="&#xb2;" horiz-adv-x="322" 
d="M24 358v53.0029c0 19.333 9.83301 38.666 29.5 57.999s41.167 36 64.5 50s44.833 29.667 64.5 47s29.5 33.666 29.5 48.999c0 10 -4.16699 19 -12.5 27s-20.5 12 -36.5 12c-31.333 0 -47 -13.667 -47 -41c0 -8.66699 -4.33301 -16 -13 -22s-19.667 -9 -33 -9
c-26 0 -39 14.667 -39 44c0 32 13 57.5 39 76.5s56.667 28.5 92 28.5c36.667 0 68.5 -10.167 95.5 -30.5s40.5 -47.833 40.5 -82.5c0 -26 -9.66699 -50.333 -29 -73s-40.333 -40.5 -63 -53.5s-43.667 -26.333 -63 -40s-29 -25.5 -29 -35.5v-10h158
c7.33301 0 13.5 -3.66699 18.5 -11s7.5 -16 7.5 -26s-2.66699 -18.833 -8 -26.5s-11.333 -11.5 -18 -11.5h-210c-8.66699 0 -17.167 2.66699 -25.5 8s-12.5 11.666 -12.5 18.999z" />
    <glyph glyph-name="uni00B3" unicode="&#xb3;" horiz-adv-x="329" 
d="M20 432c0 12 2.83008 20.167 8.49707 24.5s16.167 6.5 31.5 6.5c17.333 0 29 -2 35 -6s9 -11.333 9 -22c0 -21.333 19 -32 57 -32c20.667 0 35.5 3.83301 44.5 11.5s13.5 20.167 13.5 37.5v10c0 17.333 -5.16699 28.833 -15.5 34.5s-25.166 8.5 -44.499 8.5
c-17.333 0 -26 11 -26 33s8.66699 33.333 26 34c10.667 0.666992 18.834 1.66699 24.501 3s11.167 5.5 16.5 12.5s8 17.167 8 30.5c0 26.667 -15.667 40 -47 40c-32 0 -48 -9.33301 -48 -28c0 -20.667 -13.333 -31 -40 -31c-18.667 0 -30.667 2.33301 -36 7s-8 13.667 -8 27
c0 26 10.5 48.833 31.5 68.5s54.5 29.5 100.5 29.5c86 0 129 -33 129 -99c0 -46.667 -15.333 -76.667 -46 -90c40 -13.333 60 -40 60 -80v-10c0 -42.667 -13.333 -74 -40 -94s-62 -30 -106 -30c-45.333 0 -79.666 10.667 -102.999 32s-35 45.333 -35 72z" />
    <glyph glyph-name="acute" unicode="&#xb4;" horiz-adv-x="202" 
d="M0 617c0 15.333 5.66797 25.667 17.001 31l132 64c6.66699 1.33301 11 2 13 2c10.667 0 20 -5.16699 28 -15.5s12 -21.5 12 -33.5c0 -14.667 -6 -24.667 -18 -30l-130 -63c-6.66699 -2.66699 -11.334 -4 -14.001 -4c-10.667 0 -20 5.33301 -28 16s-12 21.667 -12 33z" />
    <glyph glyph-name="uni00B5" unicode="&#xb5;" horiz-adv-x="518" 
d="M56 -180l-0.000976562 614.001c0 10 6.5 19.333 19.5 28s28.167 13 45.5 13c16.667 0 31.5 -4.33301 44.5 -13s19.5 -18 19.5 -28v-245c0 -20 9 -39.167 27 -57.5s38.667 -27.5 62 -27.5c22.667 0 42.5 9.16699 59.5 27.5s25.5 39.166 25.5 62.499v240
c0 11.333 6.33301 21 19 29s28 12 46 12c18.667 0 34 -4 46 -12s18 -17.667 18 -29v-240c0 -54.667 -21 -102.167 -63 -142.5s-92.667 -60.5 -152 -60.5c-38 0 -72.333 13 -103 39v-210c0 -10.667 -5 -20.167 -15 -28.5s-22 -12.5 -36 -12.5
c-17.333 0 -32.166 4.16699 -44.499 12.5s-18.5 17.833 -18.5 28.5z" />
    <glyph glyph-name="paragraph" unicode="&#xb6;" horiz-adv-x="555" 
d="M23 513l-0.00195312 12.001c0 71.333 17.833 123.5 53.5 156.5s83.167 49.5 142.5 49.5h232c11.333 0 21 -3.66699 29 -11s12 -17.333 12 -30v-650c0 -13.333 -4 -23.333 -12 -30s-17.667 -10 -29 -10s-21.166 3.33301 -29.499 10s-12.5 16.667 -12.5 30v632h-82v-631
c0 -12.667 -4.16699 -22.667 -12.5 -30s-18.166 -11 -29.499 -11s-21 3.66699 -29 11s-12 17.333 -12 30v265h-25c-59.333 0 -106.833 16.667 -142.5 50s-53.5 85.666 -53.5 156.999z" />
    <glyph glyph-name="periodcentered" unicode="&#xb7;" horiz-adv-x="206" 
d="M31 300c0 17.333 7 32.166 21 44.499s31 18.5 51 18.5s36.833 -6.16699 50.5 -18.5s20.5 -27.166 20.5 -44.499s-6.83301 -32.333 -20.5 -45s-30.5 -19 -50.5 -19s-37 6.33301 -51 19s-21 27.667 -21 45z" />
    <glyph glyph-name="cedilla" unicode="&#xb8;" horiz-adv-x="190" 
d="M0 -187c0 6 2.16602 13.665 6.49902 22.998s9.83301 14 16.5 14c2 0 9 -2.33301 21 -7s24.333 -7 37 -7c31.333 0 47 11 47 33s-16 34.333 -48 37l-55 5l28 98h57l-19 -60c32.667 -1.33301 57.334 -9.16602 74.001 -23.499s25 -32.166 25 -53.499
c0 -22 -8.5 -42.167 -25.5 -60.5s-43.5 -27.5 -79.5 -27.5c-20 0 -39.167 2.5 -57.5 7.5s-27.5 12.167 -27.5 21.5z" />
    <glyph glyph-name="uni00B9" unicode="&#xb9;" horiz-adv-x="193" 
d="M7 655c0 14 5 23.999 15 29.999l76 44c6.66699 2.66699 12 4 16 4c10 0 19 -2.66699 27 -8s12 -12 12 -20v-347c0 -8.66699 -4.33301 -15.334 -13 -20.001s-18.667 -7 -30 -7c-12 0 -22.333 2.33301 -31 7s-13 11.334 -13 20.001v278l-17 -10
c-4.66699 -2.66699 -9.66699 -4 -15 -4c-8 0 -14.5 3.33301 -19.5 10s-7.5 14.334 -7.5 23.001z" />
    <glyph glyph-name="ordmasculine" unicode="&#xba;" horiz-adv-x="344" 
d="M27 569l0.000976562 55c0 36.667 14.167 68.5 42.5 95.5s62.166 40.5 101.499 40.5s73.333 -13.333 102 -40s43 -58.667 43 -96v-55c0 -36 -14.5 -67.833 -43.5 -95.5s-62.833 -41.5 -101.5 -41.5c-38 0 -71.5 13.833 -100.5 41.5s-43.5 59.5 -43.5 95.5zM113.001 569
c0 -16 5.66699 -30.167 17 -42.5s25 -18.5 41 -18.5s29.833 6.16699 41.5 18.5s17.5 26.5 17.5 42.5v55c0 16 -5.83301 30 -17.5 42s-25.5 18 -41.5 18s-29.667 -6 -41 -18s-17 -26 -17 -42v-55z" />
    <glyph glyph-name="guillemotright" unicode="&#xbb;" horiz-adv-x="500" 
d="M35 139c0 4.66699 1.00195 8.99902 3.00195 12.999l67 125l-67 126c-2 3.33301 -3 7.33301 -3 12c0 14 8.33301 28.333 25 43s35 22 55 22c18.667 0 31 -5.66699 37 -17l73 -136l11 -19c4.66699 -8 7.83398 -14.167 9.50098 -18.5s2.5 -8.83301 2.5 -13.5
s-0.833008 -9 -2.5 -13s-4.83398 -9.66699 -9.50098 -17s-8.33398 -13.666 -11.001 -18.999l-73 -136c-6 -11.333 -18 -17 -36 -17c-20.667 0 -39.334 7.16699 -56.001 21.5s-25 28.833 -25 43.5zM262.002 138.999c0 4.66699 1.00098 8.99902 3.00098 12.999l67 125l-67 126
c-2 3.33301 -3 7.33301 -3 12c0 14.667 8.33301 29.167 25 43.5s35.334 21.5 56.001 21.5c18.667 0 30.667 -5.66699 36 -17l74 -136l11 -19c4.66699 -8 7.83398 -14.167 9.50098 -18.5s2.5 -8.83301 2.5 -13.5s-0.833008 -9 -2.5 -13s-4.83398 -9.66699 -9.50098 -17
s-8.33398 -13.666 -11.001 -18.999l-74 -136c-5.33301 -11.333 -17.333 -17 -36 -17c-20.667 0 -39.334 7.16699 -56.001 21.5s-25 28.833 -25 43.5z" />
    <glyph glyph-name="onequarter" unicode="&#xbc;" horiz-adv-x="665" 
d="M25 655c0 14 5 23.999 15 29.999l76 44c6.66699 2.66699 12 4 16 4c10 0 19 -2.66699 27 -8s12 -12 12 -20v-347c0 -8.66699 -4.33301 -15.334 -13 -20.001s-18.667 -7 -30 -7c-12 0 -22.333 2.33301 -31 7s-13 11.334 -13 20.001v278l-17 -10
c-4.66699 -2.66699 -9.66699 -4 -15 -4c-8 0 -14.5 3.33301 -19.5 10s-7.5 14.334 -7.5 23.001zM78 3.99902c0 4.66699 1.33301 10.334 4 17.001l360 729c6.66699 14 18.667 21 36 21c12 0 23.333 -4.33301 34 -13s16 -19.334 16 -32.001
c0 -6.66699 -1.33301 -12.667 -4 -18l-360 -726c-6 -14.667 -19 -22 -39 -22c-13.333 0 -24.5 4.5 -33.5 13.5s-13.5 19.167 -13.5 30.5zM338 113.999c0 5.33301 1.33301 10.667 4 16l138 248c8.66699 14.667 20.667 22 36 22c8.66699 0 18 -3.16699 28 -9.5
s15 -13.833 15 -22.5c0 -4 -1 -7.66699 -3 -11l-108 -194h58v38c0 8.66699 4.33301 15.167 13 19.5s18.667 6.5 30 6.5c29.333 0 44 -8.66699 44 -26v-38h26c17.333 0 26 -13 26 -39c0 -10 -2.66699 -19.167 -8 -27.5s-11.333 -12.5 -18 -12.5h-26v-58
c0 -8 -4.33301 -14.333 -13 -19s-19 -7 -31 -7c-11.333 0 -21.333 2.33301 -30 7s-13 11 -13 19v58h-140c-18.667 0 -28 10 -28 30z" />
    <glyph glyph-name="onehalf" unicode="&#xbd;" horiz-adv-x="654" 
d="M22 655c0 14 5 23.999 15 29.999l76 44c6.66699 2.66699 12 4 16 4c10 0 19 -2.66699 27 -8s12 -12 12 -20v-347c0 -8.66699 -4.33301 -15.334 -13 -20.001s-18.667 -7 -30 -7c-12 0 -22.333 2.33301 -31 7s-13 11.334 -13 20.001v278l-17 -10
c-4.66699 -2.66699 -9.66699 -4 -15 -4c-8 0 -14.5 3.33301 -19.5 10s-7.5 14.334 -7.5 23.001zM59 3.99902c0 4.66699 1.33301 10.334 4 17.001l360 729c7.33301 14 19.333 21 36 21c12.667 0 24.167 -4.33301 34.5 -13s15.5 -19.334 15.5 -32.001
c0 -6.66699 -1.33301 -12.667 -4 -18l-360 -726c-6 -14.667 -19 -22 -39 -22c-13.333 0 -24.5 4.5 -33.5 13.5s-13.5 19.167 -13.5 30.5zM353 25.999v53.999c0 18.667 9.83301 37.834 29.5 57.501s41.167 36.5 64.5 50.5s44.833 29.667 64.5 47s29.5 33.666 29.5 48.999
c0 10 -4.16699 18.833 -12.5 26.5s-20.5 11.5 -36.5 11.5c-31.333 0 -47 -13.667 -47 -41c0 -8 -4.33301 -15.167 -13 -21.5s-19.667 -9.5 -33 -9.5c-26 0 -39 15 -39 45c0 32 13 57.5 39 76.5s56.667 28.5 92 28.5c36.667 0 68.5 -10.167 95.5 -30.5
s40.5 -48.166 40.5 -83.499c0 -26 -9.5 -50.333 -28.5 -73s-40.167 -40.5 -63.5 -53.5s-44.5 -26.333 -63.5 -40s-28.5 -25.5 -28.5 -35.5v-9h158c7.33301 0 13.5 -3.66699 18.5 -11s7.5 -16 7.5 -26s-2.66699 -18.833 -8 -26.5s-11.333 -11.5 -18 -11.5h-210
c-8.66699 0 -17.167 2.5 -25.5 7.5s-12.5 11.167 -12.5 18.5z" />
    <glyph glyph-name="threequarters" unicode="&#xbe;" horiz-adv-x="799" 
d="M28 432c0 12 2.83008 20.167 8.49707 24.5s16.167 6.5 31.5 6.5c17.333 0 29 -2 35 -6s9 -11.333 9 -22c0 -21.333 19 -32 57 -32c20.667 0 35.5 3.83301 44.5 11.5s13.5 20.167 13.5 37.5v10c0 17.333 -5.16699 28.833 -15.5 34.5s-25.166 8.5 -44.499 8.5
c-17.333 0 -26 11 -26 33s8.66699 33.333 26 34c10.667 0.666992 18.834 1.66699 24.501 3s11.167 5.5 16.5 12.5s8 17.167 8 30.5c0 26.667 -15.667 40 -47 40c-32 0 -48 -9.33301 -48 -28c0 -20.667 -13.333 -31 -40 -31c-18.667 0 -30.667 2.33301 -36 7s-8 13.667 -8 27
c0 26 10.5 48.833 31.5 68.5s54.5 29.5 100.5 29.5c86 0 129 -33 129 -99c0 -46.667 -15.333 -76.667 -46 -90c40 -13.333 60 -40 60 -80v-10c0 -42.667 -13.333 -74 -40 -94s-62 -30 -106 -30c-45.333 0 -79.666 10.667 -102.999 32s-35 45.333 -35 72zM204.997 4
c0 4.66699 1.33301 10.334 4 17.001l360 729c7.33301 14 19.333 21 36 21c12.667 0 24.167 -4.33301 34.5 -13s15.5 -19.334 15.5 -32.001c0 -6.66699 -1.33301 -12.667 -4 -18l-360 -726c-6 -14.667 -19 -22 -39 -22c-13.333 0 -24.5 4.5 -33.5 13.5
s-13.5 19.167 -13.5 30.5zM471.997 114c0 5.33301 1.33301 10.667 4 16l138 248c8.66699 14.667 20.667 22 36 22c8.66699 0 18 -3.16699 28 -9.5s15 -13.833 15 -22.5c0 -4 -1 -7.66699 -3 -11l-108 -194h58v38c0 8.66699 4.33301 15.167 13 19.5s18.667 6.5 30 6.5
c29.333 0 44 -8.66699 44 -26v-38h26c17.333 0 26 -13 26 -39c0 -10 -2.66699 -19.167 -8 -27.5s-11.333 -12.5 -18 -12.5h-26v-58c0 -8 -4.33301 -14.333 -13 -19s-19 -7 -31 -7c-11.333 -0 -21.333 2.33301 -30 7s-13 11 -13 19v58h-140c-18.667 0 -28 10 -28 30z" />
    <glyph glyph-name="questiondown" unicode="&#xbf;" horiz-adv-x="436" 
d="M25 163c0 24 4.16602 46.8369 12.499 68.5039s20.5 41.5 36.5 59.5s28 30.833 36 38.5s19 17.167 33 28.5c21.333 17.333 35 35.333 41 54s9 45 9 79c0 24 16.667 36 50 36c17.333 0 29.5 -4 36.5 -12s10.5 -22.667 10.5 -44c0 -68 -20.333 -121 -61 -159
c-4 -4 -13.667 -12.333 -29 -25s-26.833 -22.834 -34.5 -30.501s-15.334 -19 -23.001 -34s-11.5 -30.5 -11.5 -46.5c0 -27.333 9.33301 -48.333 28 -63s43.667 -22 75 -22c22 0 40.333 3.66699 55 11s24.834 15.166 30.501 23.499s12.334 16.166 20.001 23.499
s16.167 11 25.5 11c12.667 0 24.167 -4.33301 34.5 -13s15.5 -20.334 15.5 -35.001c0 -28 -16.667 -54.667 -50 -80s-78 -38 -134 -38c-62.667 0 -112.667 16 -150 48s-56 72.333 -56 121zM173.999 667.004c0 18 6.66699 33.8311 20 47.498s29.333 20.5 48 20.5
s34.5 -6.83301 47.5 -20.5s19.5 -29.5 19.5 -47.5c0 -19.333 -6.5 -35.666 -19.5 -48.999s-28.833 -20 -47.5 -20s-34.667 6.83301 -48 20.5s-20 29.834 -20 48.501z" />
    <glyph glyph-name="Agrave" unicode="&#xc0;" horiz-adv-x="575" 
d="M9 54c0 1.33301 0.668945 4.66797 2.00195 10.001l193 629c4 14 13.833 24.833 29.5 32.5s33.5 11.5 53.5 11.5s38 -3.83301 54 -11.5s26 -18.5 30 -32.5l193 -629c1.33301 -5.33301 2 -8.66602 2 -9.99902c0 -14.667 -9 -27.334 -27 -38.001s-36.333 -16 -55 -16
c-24.667 0 -39.334 8.66699 -44.001 26l-38 133h-229l-38 -133c-4.66699 -17.333 -19.334 -26 -44.001 -26c-19.333 0 -37.833 5.16699 -55.5 15.5s-26.5 23.166 -26.5 38.499zM172.002 908.002c0 12 4.00098 23.167 12.001 33.5s17.333 15.5 28 15.5
c2 0 6.33301 -0.666992 13 -2l132 -64c11.333 -6 17 -16.333 17 -31c0 -11.333 -4 -22.333 -12 -33s-17.333 -16 -28 -16c-2.66699 0 -7.33398 1.33301 -14.001 4l-130 63c-12 5.33301 -18 15.333 -18 30zM200.003 261.002h174l-87 307z" />
    <glyph glyph-name="Aacute" unicode="&#xc1;" horiz-adv-x="575" 
d="M9 54c0 1.33301 0.668945 4.66797 2.00195 10.001l193 629c4 14 13.833 24.833 29.5 32.5s33.5 11.5 53.5 11.5s38 -3.83301 54 -11.5s26 -18.5 30 -32.5l193 -629c1.33301 -5.33301 2 -8.66602 2 -9.99902c0 -14.667 -9 -27.334 -27 -38.001s-36.333 -16 -55 -16
c-24.667 0 -39.334 8.66699 -44.001 26l-38 133h-229l-38 -133c-4.66699 -17.333 -19.334 -26 -44.001 -26c-19.333 0 -37.833 5.16699 -55.5 15.5s-26.5 23.166 -26.5 38.499zM200.002 261.002h174l-87 307zM215.002 860.002c0 14.667 5.66797 25 17.001 31l132 64
c6.66699 1.33301 11 2 13 2c10.667 0 20 -5.16699 28 -15.5s12 -21.5 12 -33.5c0 -14.667 -6 -24.667 -18 -30l-130 -63c-6.66699 -2.66699 -11.334 -4 -14.001 -4c-10.667 0 -20 5.33301 -28 16s-12 21.667 -12 33z" />
    <glyph glyph-name="Acircumflex" unicode="&#xc2;" horiz-adv-x="575" 
d="M9 54c0 1.33301 0.668945 4.66797 2.00195 10.001l193 629c4 14 13.833 24.833 29.5 32.5s33.5 11.5 53.5 11.5s38 -3.83301 54 -11.5s26 -18.5 30 -32.5l193 -629c1.33301 -5.33301 2 -8.66602 2 -9.99902c0 -14.667 -9 -27.334 -27 -38.001s-36.333 -16 -55 -16
c-24.667 0 -39.334 8.66699 -44.001 26l-38 133h-229l-38 -133c-4.66699 -17.333 -19.334 -26 -44.001 -26c-19.333 0 -37.833 5.16699 -55.5 15.5s-26.5 23.166 -26.5 38.499zM144.002 859.002c0 17.333 7.33105 29.667 21.998 37l104 56c5.33301 3.33301 11 5 17 5
c4.66699 0 10.334 -1.66699 17.001 -5l104 -55c14 -8.66699 21 -21.667 21 -39c0 -10 -2.66699 -19 -8 -27s-12 -12 -20 -12c-3.33301 0 -6.66602 1 -9.99902 3l-104 56l-104 -56c-4 -2 -7.66699 -3 -11 -3c-8 0 -14.667 4 -20 12s-8 17.333 -8 28zM200 261.003h174l-87 307
z" />
    <glyph glyph-name="Atilde" unicode="&#xc3;" horiz-adv-x="575" 
d="M9 54c0 1.33301 0.668945 4.66797 2.00195 10.001l193 629c4 14 13.833 24.833 29.5 32.5s33.5 11.5 53.5 11.5s38 -3.83301 54 -11.5s26 -18.5 30 -32.5l193 -629c1.33301 -5.33301 2 -8.66602 2 -9.99902c0 -14.667 -9 -27.334 -27 -38.001s-36.333 -16 -55 -16
c-24.667 0 -39.334 8.66699 -44.001 26l-38 133h-229l-38 -133c-4.66699 -17.333 -19.334 -26 -44.001 -26c-19.333 0 -37.833 5.16699 -55.5 15.5s-26.5 23.166 -26.5 38.499zM116.002 878.002c0 18.667 6 33.5 18 44.5s23.5 17.667 34.5 20s22.167 3.5 33.5 3.5
c20 0 44.333 -4.83301 73 -14.5s51.667 -14.5 69 -14.5c16 0 32.167 4 48.5 12s27.166 12 32.499 12c11.333 0 19.666 -5 24.999 -15s8 -19 8 -27c0 -14.667 -3.16699 -26.834 -9.5 -36.501s-14.666 -16.667 -24.999 -21s-19.5 -7.16602 -27.5 -8.49902s-15.667 -2 -23 -2
c-23.333 0 -49 4.83301 -77 14.5s-49.667 14.5 -65 14.5c-16 0 -32.333 -4 -49 -12s-27.667 -12 -33 -12c-11.333 0 -19.666 5 -24.999 15s-8 19 -8 27zM200.002 261.002h174l-87 307z" />
    <glyph glyph-name="Adieresis" unicode="&#xc4;" horiz-adv-x="575" 
d="M9 54c0 1.33301 0.668945 4.66797 2.00195 10.001l193 629c4 14 13.833 24.833 29.5 32.5s33.5 11.5 53.5 11.5s38 -3.83301 54 -11.5s26 -18.5 30 -32.5l193 -629c1.33301 -5.33301 2 -8.66602 2 -9.99902c0 -14.667 -9 -27.334 -27 -38.001s-36.333 -16 -55 -16
c-24.667 0 -39.334 8.66699 -44.001 26l-38 133h-229l-38 -133c-4.66699 -17.333 -19.334 -26 -44.001 -26c-19.333 0 -37.833 5.16699 -55.5 15.5s-26.5 23.166 -26.5 38.499zM163.002 873.002c0 14 5 26.167 15 36.5s22 15.5 36 15.5s25.833 -5.16699 35.5 -15.5
s14.5 -22.5 14.5 -36.5s-4.83301 -26.333 -14.5 -37s-21.5 -16 -35.5 -16s-26 5.33301 -36 16s-15 23 -15 37zM200.002 261.002h174l-87 307zM312.002 873.002c0 14 5 26.167 15 36.5s22.333 15.5 37 15.5c13.333 0 25 -5.16699 35 -15.5s15 -22.5 15 -36.5
s-5 -26.333 -15 -37s-21.667 -16 -35 -16c-14 0 -26.167 5.33301 -36.5 16s-15.5 23 -15.5 37z" />
    <glyph glyph-name="Aring" unicode="&#xc5;" horiz-adv-x="575" 
d="M9 54c0 1.33301 0.668945 4.66797 2.00195 10.001l193 629c4 14 13.833 24.833 29.5 32.5s33.5 11.5 53.5 11.5s38 -3.83301 54 -11.5s26 -18.5 30 -32.5l193 -629c1.33301 -5.33301 2 -8.66602 2 -9.99902c0 -14.667 -9 -27.334 -27 -38.001s-36.333 -16 -55 -16
c-24.667 0 -39.334 8.66699 -44.001 26l-38 133h-229l-38 -133c-4.66699 -17.333 -19.334 -26 -44.001 -26c-19.333 0 -37.833 5.16699 -55.5 15.5s-26.5 23.166 -26.5 38.499zM189.002 913.002c0 26 9.49902 49 28.499 69s41.833 30 68.5 30s49.834 -10 69.501 -30
s29.5 -43 29.5 -69c0 -26.667 -10 -50.167 -30 -70.5s-43 -30.5 -69 -30.5s-48.667 10.167 -68 30.5s-29 43.833 -29 70.5zM200.001 261.002h174l-87 307zM240.001 912.002c0 -12 4.66699 -23.002 14 -33.002s20.333 -15 33 -15c12 0 22.333 4.83301 31 14.5
s13 20.834 13 33.501c0 12 -4.33301 22.5 -13 31.5s-19 13.5 -31 13.5c-12.667 0 -23.667 -4.66699 -33 -14s-14 -19.666 -14 -30.999z" />
    <glyph glyph-name="AE" unicode="&#xc6;" horiz-adv-x="787" 
d="M57 46l-0.00195312 456c0 78.667 20.833 136.5 62.5 173.5s96.834 55.5 165.501 55.5h445c13.333 0 23.5 -5.5 30.5 -16.5s10.5 -24.167 10.5 -39.5c0 -16 -3.66699 -29.667 -11 -41s-17.333 -17 -30 -17h-228v-200h119c12.667 0 22.667 -5.16699 30 -15.5
s11 -22.5 11 -36.5c0 -12.667 -3.5 -24.167 -10.5 -34.5s-17.167 -15.5 -30.5 -15.5h-119v-201h228c12.667 0 22.667 -5.66699 30 -17s11 -25 11 -41c0 -15.333 -3.5 -28.5 -10.5 -39.5s-17.167 -16.5 -30.5 -16.5h-301c-15.333 0 -28.666 3.66699 -39.999 11
s-17 17.333 -17 30v274h-192v-269c0 -15.333 -4.33301 -26.833 -13 -34.5s-26 -11.5 -52 -11.5c-38.667 -0 -58 15.333 -58 46zM179.998 417h192v200h-87c-70 0 -105 -38.333 -105 -115v-85z" />
    <glyph glyph-name="Ccedilla" unicode="&#xc7;" horiz-adv-x="550" 
d="M53 223l0.00195312 278.999c0 78.667 21.333 136.5 64 173.5s98.334 55.5 167.001 55.5c70 0 127.167 -17.333 171.5 -52s66.5 -80.667 66.5 -138c0 -24.667 -5 -41.5 -15 -50.5s-26.667 -13.5 -50 -13.5c-42.667 0 -64.334 13.667 -65.001 41
c-0.666992 8.66699 -1.5 16.167 -2.5 22.5s-3.66699 14.666 -8 24.999s-9.83301 19 -16.5 26s-16.667 13 -30 18s-29 7.5 -47 7.5c-70 0 -105 -38.333 -105 -115v-279c0 -76.667 35.667 -115 107 -115c21.333 0 39.166 3.33301 53.499 10s24.666 16.167 30.999 28.5
s10.666 23.333 12.999 33s3.83301 21.5 4.5 35.5c2 27.333 23.333 41 64 41c23.333 0 40.166 -4.5 50.499 -13.5s15.5 -25.833 15.5 -50.5c0 -54.667 -18.5 -99.5 -55.5 -134.5s-85.833 -55.5 -146.5 -61.5l-15 -47c32.667 -1.33301 57.334 -9.16602 74.001 -23.499
s25 -32.166 25 -53.499c0 -22 -8.5 -42.167 -25.5 -60.5s-43.5 -27.5 -79.5 -27.5c-20 0 -39.167 2.5 -57.5 7.5s-27.5 12.167 -27.5 21.5c0 6 2.16699 13.667 6.5 23s9.83301 14 16.5 14c2 0 9 -2.33301 21 -7s24.333 -7 37 -7c31.333 0 47 11 47 33s-16 34.333 -48 37
l-55 5l24 84c-63.333 3.33301 -114.166 23.5 -152.499 60.5s-57.5 92.833 -57.5 167.5z" />
    <glyph glyph-name="Egrave" unicode="&#xc8;" horiz-adv-x="529" 
d="M60 41v649c0 12.667 5.66699 22.667 17 30s24.666 11 39.999 11h356c13.333 0 23.5 -5.66699 30.5 -17s10.5 -24.333 10.5 -39c0 -16 -3.66699 -29.667 -11 -41s-17.333 -17 -30 -17h-283v-200h152c12.667 0 22.667 -5.16699 30 -15.5s11 -22.5 11 -36.5
c0 -12.667 -3.5 -24.167 -10.5 -34.5s-17.167 -15.5 -30.5 -15.5h-152v-201h283c12.667 0 22.667 -5.66699 30 -17s11 -25 11 -41c0 -14.667 -3.5 -27.667 -10.5 -39s-17.167 -17 -30.5 -17h-356c-15.333 0 -28.666 3.66699 -39.999 11s-17 17.333 -17 30zM181 908
c0 12 4.00098 23.167 12.001 33.5s17.333 15.5 28 15.5c2 0 6.33301 -0.666992 13 -2l132 -64c11.333 -6 17 -16.333 17 -31c0 -11.333 -4 -22.333 -12 -33s-17.333 -16 -28 -16c-2.66699 0 -7.33398 1.33301 -14.001 4l-130 63c-12 5.33301 -18 15.333 -18 30z" />
    <glyph glyph-name="Eacute" unicode="&#xc9;" horiz-adv-x="529" 
d="M60 41v649c0 12.667 5.66699 22.667 17 30s24.666 11 39.999 11h356c13.333 0 23.5 -5.66699 30.5 -17s10.5 -24.333 10.5 -39c0 -16 -3.66699 -29.667 -11 -41s-17.333 -17 -30 -17h-283v-200h152c12.667 0 22.667 -5.16699 30 -15.5s11 -22.5 11 -36.5
c0 -12.667 -3.5 -24.167 -10.5 -34.5s-17.167 -15.5 -30.5 -15.5h-152v-201h283c12.667 0 22.667 -5.66699 30 -17s11 -25 11 -41c0 -14.667 -3.5 -27.667 -10.5 -39s-17.167 -17 -30.5 -17h-356c-15.333 0 -28.666 3.66699 -39.999 11s-17 17.333 -17 30zM205 860
c0 14.667 5.66797 25 17.001 31l132 64c6.66699 1.33301 11 2 13 2c10.667 0 20 -5.16699 28 -15.5s12 -21.5 12 -33.5c0 -14.667 -6 -24.667 -18 -30l-130 -63c-6.66699 -2.66699 -11.334 -4 -14.001 -4c-10.667 0 -20 5.33301 -28 16s-12 21.667 -12 33z" />
    <glyph glyph-name="Ecircumflex" unicode="&#xca;" horiz-adv-x="530" 
d="M60 41v649c0 12.667 5.66699 22.667 17 30s24.666 11 39.999 11h356c13.333 0 23.5 -5.66699 30.5 -17s10.5 -24.333 10.5 -39c0 -16 -3.66699 -29.667 -11 -41s-17.333 -17 -30 -17h-283v-200h152c12.667 0 22.667 -5.16699 30 -15.5s11 -22.5 11 -36.5
c0 -12.667 -3.5 -24.167 -10.5 -34.5s-17.167 -15.5 -30.5 -15.5h-152v-201h283c12.667 0 22.667 -5.66699 30 -17s11 -25 11 -41c0 -14.667 -3.5 -27.667 -10.5 -39s-17.167 -17 -30.5 -17h-356c-15.333 0 -28.666 3.66699 -39.999 11s-17 17.333 -17 30zM152 859
c0 17.333 7.33105 29.667 21.998 37l104 56c5.33301 3.33301 11 5 17 5c4.66699 0 10.334 -1.66699 17.001 -5l104 -55c14 -8.66699 21 -21.667 21 -39c0 -10 -2.66699 -19 -8 -27s-12 -12 -20 -12c-3.33301 0 -6.66602 1 -9.99902 3l-104 56l-104 -56
c-4 -2 -7.66699 -3 -11 -3c-8 0 -14.667 4 -20 12s-8 17.333 -8 28z" />
    <glyph glyph-name="Edieresis" unicode="&#xcb;" horiz-adv-x="530" 
d="M60 41v649c0 12.667 5.66699 22.667 17 30s24.666 11 39.999 11h356c13.333 0 23.5 -5.66699 30.5 -17s10.5 -24.333 10.5 -39c0 -16 -3.66699 -29.667 -11 -41s-17.333 -17 -30 -17h-283v-200h152c12.667 0 22.667 -5.16699 30 -15.5s11 -22.5 11 -36.5
c0 -12.667 -3.5 -24.167 -10.5 -34.5s-17.167 -15.5 -30.5 -15.5h-152v-201h283c12.667 0 22.667 -5.66699 30 -17s11 -25 11 -41c0 -14.667 -3.5 -27.667 -10.5 -39s-17.167 -17 -30.5 -17h-356c-15.333 0 -28.666 3.66699 -39.999 11s-17 17.333 -17 30zM164 873
c0 14 5 26.167 15 36.5s22 15.5 36 15.5s25.833 -5.16699 35.5 -15.5s14.5 -22.5 14.5 -36.5s-4.83301 -26.333 -14.5 -37s-21.5 -16 -35.5 -16s-26 5.33301 -36 16s-15 23 -15 37zM313 873c0 14 5 26.167 15 36.5s22.333 15.5 37 15.5c13.333 0 25 -5.16699 35 -15.5
s15 -22.5 15 -36.5s-5 -26.333 -15 -37s-21.667 -16 -35 -16c-14 0 -26.167 5.33301 -36.5 16s-15.5 23 -15.5 37z" />
    <glyph glyph-name="Igrave" unicode="&#xcc;" horiz-adv-x="250" 
d="M17 908c0 12 4.00098 23.167 12.001 33.5s17.333 15.5 28 15.5c2 0 6.33301 -0.666992 13 -2l132 -64c11.333 -6 17 -16.333 17 -31c0 -11.333 -4 -22.333 -12 -33s-17.333 -16 -28 -16c-2.66699 0 -7.33398 1.33301 -14.001 4l-130 63c-12 5.33301 -18 15.333 -18 30z
M60.001 41v650c0 13.333 6.33301 23.333 19 30s28 10 46 10s33.333 -3.33301 46 -10s19 -16.667 19 -30v-650c0 -12.667 -6.5 -22.667 -19.5 -30s-28.167 -11 -45.5 -11c-18 0 -33.333 3.66699 -46 11s-19 17.333 -19 30z" />
    <glyph glyph-name="Iacute" unicode="&#xcd;" horiz-adv-x="250" 
d="M31 860c0 14.667 5.66797 25 17.001 31l132 64c6.66699 1.33301 11 2 13 2c10.667 0 20 -5.16699 28 -15.5s12 -21.5 12 -33.5c0 -14.667 -6 -24.667 -18 -30l-130 -63c-6.66699 -2.66699 -11.334 -4 -14.001 -4c-10.667 0 -20 5.33301 -28 16s-12 21.667 -12 33z
M60.001 41v650c0 13.333 6.33301 23.333 19 30s28 10 46 10s33.333 -3.33301 46 -10s19 -16.667 19 -30v-650c0 -12.667 -6.5 -22.667 -19.5 -30s-28.167 -11 -45.5 -11c-18 0 -33.333 3.66699 -46 11s-19 17.333 -19 30z" />
    <glyph glyph-name="Icircumflex" unicode="&#xce;" horiz-adv-x="250" 
d="M-16 859c0 17.333 7.33105 29.667 21.998 37l104 56c5.33301 3.33301 11 5 17 5c4.66699 0 10.334 -1.66699 17.001 -5l104 -55c14 -8.66699 21 -21.667 21 -39c0 -10 -2.66699 -19 -8 -27s-12 -12 -20 -12c-3.33301 0 -6.66602 1 -9.99902 3l-104 56l-104 -56
c-4 -2 -7.66699 -3 -11 -3c-8 0 -14.667 4 -20 12s-8 17.333 -8 28zM59.998 41.001v650c0 13.333 6.33301 23.333 19 30s28 10 46 10s33.333 -3.33301 46 -10s19 -16.667 19 -30v-650c0 -12.667 -6.5 -22.667 -19.5 -30s-28.167 -11 -45.5 -11c-18 0 -33.333 3.66699 -46 11
s-19 17.333 -19 30z" />
    <glyph glyph-name="Idieresis" unicode="&#xcf;" horiz-adv-x="250" 
d="M1 873c0 14 5 26.167 15 36.5s22 15.5 36 15.5s25.833 -5.16699 35.5 -15.5s14.5 -22.5 14.5 -36.5s-4.83301 -26.333 -14.5 -37s-21.5 -16 -35.5 -16s-26 5.33301 -36 16s-15 23 -15 37zM60 41v650c0 13.333 6.33301 23.333 19 30s28 10 46 10s33.333 -3.33301 46 -10
s19 -16.667 19 -30v-650c0 -12.667 -6.5 -22.667 -19.5 -30s-28.167 -11 -45.5 -11c-18 0 -33.333 3.66699 -46 11s-19 17.333 -19 30zM150 873c0 14 5 26.167 15 36.5s22.333 15.5 37 15.5c13.333 0 25 -5.16699 35 -15.5s15 -22.5 15 -36.5s-5 -26.333 -15 -37
s-21.667 -16 -35 -16c-14 0 -26.167 5.33301 -36.5 16s-15.5 23 -15.5 37z" />
    <glyph glyph-name="Eth" unicode="&#xd0;" horiz-adv-x="587" 
d="M-7 382c0 12.667 3 23.667 9 33s14 14 24 14h41v262c0 10.667 5.33301 20 16 28s24.334 12 41.001 12h177c71.333 0 128.333 -18.333 171 -55s64 -94.667 64 -174v-273c0 -79.333 -21.333 -137.333 -64 -174s-99.667 -55 -171 -55h-177c-16.667 0 -30.334 4 -41.001 12
s-16 17.333 -16 28v296h-41c-10 0 -18 4.5 -24 13.5s-9 19.833 -9 32.5zM197 114h104c70 0 105 38.333 105 115v273c0 76.667 -35 115 -105 115h-104v-188h77c10.667 0 19 -4.66699 25 -14s9 -20.333 9 -33s-3 -23.5 -9 -32.5s-14.333 -13.5 -25 -13.5h-77v-222z" />
    <glyph glyph-name="Ntilde" unicode="&#xd1;" horiz-adv-x="605" 
d="M60 41v649.001c0 13.333 6.33301 23.5 19 30.5s28 10.5 46 10.5c24 0 42.333 -4.33301 55 -13s26.667 -27.334 42 -56.001l193 -373v402c0 13.333 6.33301 23.333 19 30s28 10 46 10s33.333 -3.33301 46 -10s19 -16.667 19 -30v-650c0 -12.667 -6.5 -22.667 -19.5 -30
s-28.167 -11 -45.5 -11c-35.333 0 -60.333 13.667 -75 41l-215 402v-402c0 -12.667 -6.5 -22.667 -19.5 -30s-28.167 -11 -45.5 -11c-18 0 -33.333 3.66699 -46 11s-19 17.333 -19 30zM124 878.001c0 18.667 6 33.5 18 44.5s23.5 17.667 34.5 20s22.167 3.5 33.5 3.5
c20 0 44.333 -4.83301 73 -14.5s51.667 -14.5 69 -14.5c16 0 32.167 4 48.5 12s27.166 12 32.499 12c11.333 0 19.666 -5 24.999 -15s8 -19 8 -27c0 -14.667 -3.16699 -26.834 -9.5 -36.501s-14.666 -16.667 -24.999 -21s-19.5 -7.16602 -27.5 -8.49902s-15.667 -2 -23 -2
c-23.333 0 -49 4.83301 -77 14.5s-49.667 14.5 -65 14.5c-16 0 -32.333 -4 -49 -12s-27.667 -12 -33 -12c-11.333 0 -19.666 5 -24.999 15s-8 19 -8 27z" />
    <glyph glyph-name="Ograve" unicode="&#xd2;" horiz-adv-x="572" 
d="M52 223v279c0 79.333 21.167 137.333 63.5 174s99.166 55 170.499 55s128.333 -18.333 171 -55s64 -94.667 64 -174v-279c0 -79.333 -21.333 -137.333 -64 -174s-99.667 -55 -171 -55s-128.166 18.333 -170.499 55s-63.5 94.667 -63.5 174zM173 908
c0 12 4.00098 23.167 12.001 33.5s17.333 15.5 28 15.5c2 0 6.33301 -0.666992 13 -2l132 -64c11.333 -6 17 -16.333 17 -31c0 -11.333 -4 -22.333 -12 -33s-17.333 -16 -28 -16c-2.66699 0 -7.33398 1.33301 -14.001 4l-130 63c-12 5.33301 -18 15.333 -18 30zM182.001 223
c0 -76.667 34.667 -115 104 -115c70 0 105 38.333 105 115v279c0 76.667 -35 115 -105 115c-69.333 0 -104 -38.333 -104 -115v-279z" />
    <glyph glyph-name="Oacute" unicode="&#xd3;" horiz-adv-x="572" 
d="M52 223v279c0 79.333 21.167 137.333 63.5 174s99.166 55 170.499 55s128.333 -18.333 171 -55s64 -94.667 64 -174v-279c0 -79.333 -21.333 -137.333 -64 -174s-99.667 -55 -171 -55s-128.166 18.333 -170.499 55s-63.5 94.667 -63.5 174zM182 223
c0 -76.667 34.667 -115 104 -115c70 0 105 38.333 105 115v279c0 76.667 -35 115 -105 115c-69.333 0 -104 -38.333 -104 -115v-279zM220 860c0 14.667 5.66797 25 17.001 31l132 64c6.66699 1.33301 11 2 13 2c10.667 0 20 -5.16699 28 -15.5s12 -21.5 12 -33.5
c0 -14.667 -6 -24.667 -18 -30l-130 -63c-6.66699 -2.66699 -11.334 -4 -14.001 -4c-10.667 0 -20 5.33301 -28 16s-12 21.667 -12 33z" />
    <glyph glyph-name="Ocircumflex" unicode="&#xd4;" horiz-adv-x="572" 
d="M52 223v279c0 79.333 21.167 137.333 63.5 174s99.166 55 170.499 55s128.333 -18.333 171 -55s64 -94.667 64 -174v-279c0 -79.333 -21.333 -137.333 -64 -174s-99.667 -55 -171 -55s-128.166 18.333 -170.499 55s-63.5 94.667 -63.5 174zM143 859
c0 17.333 7.33203 29.667 21.999 37l104 56c5.33301 3.33301 11 5 17 5c4.66699 0 10.334 -1.66699 17.001 -5l104 -55c14 -8.66699 21 -21.667 21 -39c0 -10 -2.66699 -19 -8 -27s-12 -12 -20 -12c-4 0 -7.33301 1 -10 3l-104 56l-104 -56c-4 -2 -7.66699 -3 -11 -3
c-8 0 -14.667 4 -20 12s-8 17.333 -8 28zM181.999 223.001c0 -76.667 34.667 -115 104 -115c70 0 105 38.333 105 115v279c0 76.667 -35 115 -105 115c-69.333 0 -104 -38.333 -104 -115v-279z" />
    <glyph glyph-name="Otilde" unicode="&#xd5;" horiz-adv-x="572" 
d="M52 223v279c0 79.333 21.167 137.333 63.5 174s99.166 55 170.499 55s128.333 -18.333 171 -55s64 -94.667 64 -174v-279c0 -79.333 -21.333 -137.333 -64 -174s-99.667 -55 -171 -55s-128.166 18.333 -170.499 55s-63.5 94.667 -63.5 174zM115 878
c0 18.667 6 33.5 18 44.5s23.5 17.667 34.5 20s22.167 3.5 33.5 3.5c19.333 0 43.333 -4.83301 72 -14.5s52 -14.5 70 -14.5c16 0 32.167 4 48.5 12s27.166 12 32.499 12c11.333 0 19.666 -5 24.999 -15s8 -19 8 -27c0 -14.667 -3.16699 -26.834 -9.5 -36.501
s-14.666 -16.667 -24.999 -21s-19.5 -7.16602 -27.5 -8.49902s-15.667 -2 -23 -2c-23.333 0 -49 4.83301 -77 14.5s-49.667 14.5 -65 14.5c-16 0 -32.333 -4 -49 -12s-27.667 -12 -33 -12c-11.333 0 -19.666 5 -24.999 15s-8 19 -8 27zM182 223
c0 -76.667 34.667 -115 104 -115c70 0 105 38.333 105 115v279c0 76.667 -35 115 -105 115c-69.333 0 -104 -38.333 -104 -115v-279z" />
    <glyph glyph-name="Odieresis" unicode="&#xd6;" horiz-adv-x="572" 
d="M52 223v279c0 79.333 21.167 137.333 63.5 174s99.166 55 170.499 55s128.333 -18.333 171 -55s64 -94.667 64 -174v-279c0 -79.333 -21.333 -137.333 -64 -174s-99.667 -55 -171 -55s-128.166 18.333 -170.499 55s-63.5 94.667 -63.5 174zM162 873
c0 14 5 26.167 15 36.5s22 15.5 36 15.5s25.833 -5.16699 35.5 -15.5s14.5 -22.5 14.5 -36.5s-4.83301 -26.333 -14.5 -37s-21.5 -16 -35.5 -16s-26 5.33301 -36 16s-15 23 -15 37zM182 223c0 -76.667 34.667 -115 104 -115c70 0 105 38.333 105 115v279
c0 76.667 -35 115 -105 115c-69.333 0 -104 -38.333 -104 -115v-279zM311 873c0 14 5 26.167 15 36.5s22.333 15.5 37 15.5c13.333 0 25 -5.16699 35 -15.5s15 -22.5 15 -36.5s-5 -26.333 -15 -37s-21.667 -16 -35 -16c-14 0 -26.167 5.33301 -36.5 16s-15.5 23 -15.5 37z
" />
    <glyph glyph-name="multiply" unicode="&#xd7;" horiz-adv-x="407" 
d="M42 174c0 10 3.33398 18.335 10.001 25.002l84 76l-83 74c-6.66699 8 -10 16.667 -10 26c0 15.333 6.16699 29.166 18.5 41.499s26.166 18.5 41.499 18.5c9.33301 0 18 -3.33301 26 -10l74 -75l75 75c6.66699 6.66699 15.334 10 26.001 10
c14.667 0 28.334 -6.16699 41.001 -18.5s19 -25.833 19 -40.5c0 -10 -3.33301 -19 -10 -27l-83 -74l84 -76c6.66699 -6.66699 10 -15.334 10 -26.001c0 -14 -6.33301 -27.5 -19 -40.5s-26.334 -19.5 -41.001 -19.5c-10.667 0 -19.334 3.33301 -26.001 10l-76 76l-75 -76
c-6.66699 -6.66699 -15.334 -10 -26.001 -10c-13.333 0 -26.666 6.5 -39.999 19.5s-20 26.833 -20 41.5z" />
    <glyph glyph-name="Oslash" unicode="&#xd8;" horiz-adv-x="573" 
d="M52 223l0.000976562 279.001c0 79.333 21.167 137.333 63.5 174s99.166 55 170.499 55c46.667 0 86.667 -7.66699 120 -23l21 42c7.33301 14 19.333 21 36 21c12.667 0 24.167 -4.33301 34.5 -13s15.5 -19.334 15.5 -32.001c0 -6.66699 -1.33301 -12.667 -4 -18l-29 -58
c27.333 -38 41 -87.333 41 -148v-279c0 -79.333 -21.333 -137.333 -64 -174s-99.667 -55 -171 -55c-48 0 -87.667 7.33301 -119 22l-17 -34c-7.33301 -14.667 -20.333 -22 -39 -22c-14 0 -25.5 4.5 -34.5 13.5s-13.5 19.167 -13.5 30.5c0 6 1.66699 11.667 5 17l26 52
c-28 37.333 -42 87.333 -42 150zM182.001 252.001l170 346c-16.667 12.667 -38.667 19 -66 19c-69.333 0 -104 -38.333 -104 -115v-250zM221.001 125.001c16 -11.333 37.667 -17 65 -17c70 0 105 38.333 105 115v246z" />
    <glyph glyph-name="Ugrave" unicode="&#xd9;" horiz-adv-x="594" 
d="M57 223l0.00195312 468c0 13.333 6.33301 23.333 19 30s28 10 46 10s33.333 -3.33301 46 -10s19 -16.667 19 -30v-468c0 -76.667 36.667 -115 110 -115s110 38.333 110 115v468c0 13.333 6.33301 23.333 19 30s28 10 46 10s33.333 -3.33301 46 -10s19 -16.667 19 -30
v-468c0 -78.667 -21.833 -136.5 -65.5 -173.5s-101.834 -55.5 -174.501 -55.5s-130.834 18.333 -174.501 55s-65.5 94.667 -65.5 174zM179.002 908c0 12 4.00098 23.167 12.001 33.5s17.333 15.5 28 15.5c2 0 6.33301 -0.666992 13 -2l132 -64c11.333 -6 17 -16.333 17 -31
c0 -11.333 -4 -22.333 -12 -33s-17.333 -16 -28 -16c-2.66699 0 -7.33398 1.33301 -14.001 4l-130 63c-12 5.33301 -18 15.333 -18 30z" />
    <glyph glyph-name="Uacute" unicode="&#xda;" horiz-adv-x="594" 
d="M57 223l0.00195312 468c0 13.333 6.33301 23.333 19 30s28 10 46 10s33.333 -3.33301 46 -10s19 -16.667 19 -30v-468c0 -76.667 36.667 -115 110 -115s110 38.333 110 115v468c0 13.333 6.33301 23.333 19 30s28 10 46 10s33.333 -3.33301 46 -10s19 -16.667 19 -30
v-468c0 -78.667 -21.833 -136.5 -65.5 -173.5s-101.834 -55.5 -174.501 -55.5s-130.834 18.333 -174.501 55s-65.5 94.667 -65.5 174zM218.002 860c0 14.667 5.66797 25 17.001 31l132 64c6.66699 1.33301 11 2 13 2c10.667 0 20 -5.16699 28 -15.5s12 -21.5 12 -33.5
c0 -14.667 -6 -24.667 -18 -30l-130 -63c-6.66699 -2.66699 -11.334 -4 -14.001 -4c-10.667 0 -20 5.33301 -28 16s-12 21.667 -12 33z" />
    <glyph glyph-name="Ucircumflex" unicode="&#xdb;" horiz-adv-x="594" 
d="M57 223l0.00195312 468c0 13.333 6.33301 23.333 19 30s28 10 46 10s33.333 -3.33301 46 -10s19 -16.667 19 -30v-468c0 -76.667 36.667 -115 110 -115s110 38.333 110 115v468c0 13.333 6.33301 23.333 19 30s28 10 46 10s33.333 -3.33301 46 -10s19 -16.667 19 -30
v-468c0 -78.667 -21.833 -136.5 -65.5 -173.5s-101.834 -55.5 -174.501 -55.5s-130.834 18.333 -174.501 55s-65.5 94.667 -65.5 174zM149.002 859c0 17.333 7.33203 29.667 21.999 37l104 56c5.33301 3.33301 11 5 17 5c4.66699 0 10.334 -1.66699 17.001 -5l104 -55
c14 -8.66699 21 -21.667 21 -39c0 -10 -2.66699 -19 -8 -27s-12 -12 -20 -12c-4 0 -7.33301 1 -10 3l-104 56l-104 -56c-4 -2 -7.66699 -3 -11 -3c-8 0 -14.667 4 -20 12s-8 17.333 -8 28z" />
    <glyph glyph-name="Udieresis" unicode="&#xdc;" horiz-adv-x="594" 
d="M57 223l0.00195312 468c0 13.333 6.33301 23.333 19 30s28 10 46 10s33.333 -3.33301 46 -10s19 -16.667 19 -30v-468c0 -76.667 36.667 -115 110 -115s110 38.333 110 115v468c0 13.333 6.33301 23.333 19 30s28 10 46 10s33.333 -3.33301 46 -10s19 -16.667 19 -30
v-468c0 -78.667 -21.833 -136.5 -65.5 -173.5s-101.834 -55.5 -174.501 -55.5s-130.834 18.333 -174.501 55s-65.5 94.667 -65.5 174zM171.002 873c0 14 5 26.167 15 36.5s22 15.5 36 15.5s25.833 -5.16699 35.5 -15.5s14.5 -22.5 14.5 -36.5s-4.83301 -26.333 -14.5 -37
s-21.5 -16 -35.5 -16s-26 5.33301 -36 16s-15 23 -15 37zM320.002 873c0 14 5 26.167 15 36.5s22.333 15.5 37 15.5c13.333 0 25 -5.16699 35 -15.5s15 -22.5 15 -36.5s-5 -26.333 -15 -37s-21.667 -16 -35 -16c-14 0 -26.167 5.33301 -36.5 16s-15.5 23 -15.5 37z" />
    <glyph glyph-name="Yacute" unicode="&#xdd;" horiz-adv-x="574" 
d="M9 677c0 14.667 9.5 27.334 28.5 38.001s38.167 16 57.5 16c18 0 31.333 -8.66699 40 -26l152 -289l153 289c9.33301 17.333 22.333 26 39 26c19.333 0 38.5 -5.33301 57.5 -16s28.5 -23.334 28.5 -38.001c0 -5.33301 -1 -9.66602 -3 -12.999l-206 -358
c-2.66699 -4 -4 -8.33301 -4 -13v-252c0 -12.667 -6.33301 -22.667 -19 -30s-28 -11 -46 -11c-17.333 0 -32.5 3.66699 -45.5 11s-19.5 17.333 -19.5 30v252c0 6 -1 10.333 -3 13l-207 358c-2 5.33301 -3 9.66602 -3 12.999zM202 860c0 14.667 5.66797 25 17.001 31l132 64
c6.66699 1.33301 11 2 13 2c10.667 0 20 -5.16699 28 -15.5s12 -21.5 12 -33.5c0 -14.667 -6 -24.667 -18 -30l-130 -63c-6.66699 -2.66699 -11.334 -4 -14.001 -4c-10.667 0 -20 5.33301 -28 16s-12 21.667 -12 33z" />
    <glyph glyph-name="Thorn" unicode="&#xde;" horiz-adv-x="520" 
d="M61 41l-0.00390625 662.999c0 12 5.83301 21.667 17.5 29s26.167 11 43.5 11c20 0 36.333 -3.66699 49 -11s19 -17 19 -29v-158c11.333 21.333 28.333 39.333 51 54s48.667 22 78 22c48.667 0 90.334 -18.833 125.001 -56.5s52 -84.167 52 -139.5v-96
c0 -53.333 -17.333 -99.666 -52 -138.999s-74.667 -59 -120 -59c-29.333 0 -56.666 7.83301 -81.999 23.5s-42.666 34.167 -51.999 55.5v-170c0 -10 -6.66699 -19.333 -20 -28s-28.666 -13 -45.999 -13c-18 0 -33 4.16699 -45 12.5s-18 17.833 -18 28.5zM189.996 318.999
c0 -14.667 8.99902 -30.667 26.999 -48s39 -26 63 -26c22.667 0 42.834 8.33301 60.501 25s26.5 36.667 26.5 60v96c0 22.667 -8.83301 42.167 -26.5 58.5s-38.5 24.5 -62.5 24.5c-23.333 0 -43.833 -7.66699 -61.5 -23s-26.5 -35.333 -26.5 -60v-107z" />
    <glyph glyph-name="germandbls" unicode="&#xdf;" horiz-adv-x="600" 
d="M3 428c0 12.667 2.83203 23.668 8.49902 33.001s13.834 14 24.501 14h56v92c0 58.667 15.833 106.834 47.5 144.501s80.834 56.5 147.501 56.5c58 0 105.333 -15.667 142 -47s55 -77 55 -137c0 -34.667 -6.16699 -66.834 -18.5 -96.501s-28.833 -49.834 -49.5 -60.501
c39.333 -7.33301 75.166 -30 107.499 -68s48.5 -83.333 48.5 -136v-13c0 -72 -21.167 -128.333 -63.5 -169s-94.5 -61 -156.5 -61c-14 0 -25.667 0.5 -35 1.5s-19.5 3.33301 -30.5 7s-19.333 9.83398 -25 18.501s-8.5 19.667 -8.5 33c0 14 2.66699 27.667 8 41s13 20 23 20
c3.33301 0 12.166 -2 26.499 -6s27.833 -6 40.5 -6c30 0 53.333 9.66699 70 29s25 46.333 25 81v13c0 79.333 -40.333 128.333 -121 147c-14 4 -24.167 9.33301 -30.5 16s-9.5 19 -9.5 37c0 12 1.83301 21.167 5.5 27.5s7.83398 10.666 12.501 12.999
s12.334 4.83301 23.001 7.5c34.667 6.66699 52 38 52 94c0 67.333 -27 101 -81 101c-50.667 0 -76 -29.333 -76 -88v-527c0 -12 -6.5 -21.667 -19.5 -29s-28.5 -11 -46.5 -11s-33 3.66699 -45 11s-18 17 -18 29v341h-56c-10.667 0 -18.834 4.66699 -24.501 14
s-8.5 20.333 -8.5 33z" />
    <glyph glyph-name="agrave" unicode="&#xe0;" horiz-adv-x="471" 
d="M22 124c0 54 19.999 92.001 59.999 114.001s97.667 33 173 33h41v13c0 24.667 -7.16699 46.167 -21.5 64.5s-36.5 27.5 -66.5 27.5s-55.667 -5.16699 -77 -15.5s-33.666 -15.5 -36.999 -15.5c-13.333 0 -24 6.66699 -32 20s-12 28 -12 44
c0 19.333 17.167 36.166 51.5 50.499s70.5 21.5 108.5 21.5c72.667 0 126.667 -18.5 162 -55.5s53 -83.5 53 -139.5v-245c0 -11.333 -6 -21 -18 -29s-27 -12 -45 -12c-16.667 0 -30.5 4 -41.5 12s-16.5 17.667 -16.5 29v29c-46 -52.667 -96.667 -79 -152 -79
c-38 0 -69.167 11.333 -93.5 34s-36.5 55.667 -36.5 99zM125.999 665.001c0 12 4.00098 23.166 12.001 33.499s17.333 15.5 28 15.5c2 0 6.33301 -0.666992 13 -2l132 -64c11.333 -5.33301 17 -15.666 17 -30.999c0 -11.333 -4 -22.333 -12 -33s-17.333 -16 -28 -16
c-2.66699 0 -7.33398 1.33301 -14.001 4l-130 63c-12 5.33301 -18 15.333 -18 30zM151 141c0 -18 4.83301 -31.501 14.5 -40.501s22.5 -13.5 38.5 -13.5c21.333 0 42 10 62 30s30 42 30 66v21h-15c-40.667 0 -72.5 -4.16699 -95.5 -12.5s-34.5 -25.166 -34.5 -50.499z" />
    <glyph glyph-name="aacute" unicode="&#xe1;" horiz-adv-x="471" 
d="M22 124c0 54 19.999 92.001 59.999 114.001s97.667 33 173 33h41v13c0 24.667 -7.16699 46.167 -21.5 64.5s-36.5 27.5 -66.5 27.5s-55.667 -5.16699 -77 -15.5s-33.666 -15.5 -36.999 -15.5c-13.333 0 -24 6.66699 -32 20s-12 28 -12 44
c0 19.333 17.167 36.166 51.5 50.499s70.5 21.5 108.5 21.5c72.667 0 126.667 -18.5 162 -55.5s53 -83.5 53 -139.5v-245c0 -11.333 -6 -21 -18 -29s-27 -12 -45 -12c-16.667 0 -30.5 4 -41.5 12s-16.5 17.667 -16.5 29v29c-46 -52.667 -96.667 -79 -152 -79
c-38 0 -69.167 11.333 -93.5 34s-36.5 55.667 -36.5 99zM141.999 617.001c0 15.333 5.66797 25.667 17.001 31l132 64c6.66699 1.33301 11 2 13 2c10.667 0 20 -5.16699 28 -15.5s12 -21.5 12 -33.5c0 -14.667 -6 -24.667 -18 -30l-130 -63
c-6.66699 -2.66699 -11.334 -4 -14.001 -4c-10.667 0 -20 5.33301 -28 16s-12 21.667 -12 33zM151 141.002c0 -18 4.83301 -31.501 14.5 -40.501s22.5 -13.5 38.5 -13.5c21.333 0 42 10 62 30s30 42 30 66v21h-15c-40.667 0 -72.5 -4.16699 -95.5 -12.5
s-34.5 -25.166 -34.5 -50.499z" />
    <glyph glyph-name="acircumflex" unicode="&#xe2;" horiz-adv-x="471" 
d="M22 124c0 54 19.999 92.001 59.999 114.001s97.667 33 173 33h41v13c0 24.667 -7.16699 46.167 -21.5 64.5s-36.5 27.5 -66.5 27.5s-55.667 -5.16699 -77 -15.5s-33.666 -15.5 -36.999 -15.5c-13.333 0 -24 6.66699 -32 20s-12 28 -12 44
c0 19.333 17.167 36.166 51.5 50.499s70.5 21.5 108.5 21.5c72.667 0 126.667 -18.5 162 -55.5s53 -83.5 53 -139.5v-245c0 -11.333 -6 -21 -18 -29s-27 -12 -45 -12c-16.667 0 -30.5 4 -41.5 12s-16.5 17.667 -16.5 29v29c-46 -52.667 -96.667 -79 -152 -79
c-38 0 -69.167 11.333 -93.5 34s-36.5 55.667 -36.5 99zM77.999 616.001c0 17.333 7.33105 29.667 21.998 37l104 56c5.33301 3.33301 11 5 17 5c4.66699 0 10.334 -1.66699 17.001 -5l104 -55c14 -8.66699 21 -21.667 21 -39c0 -10 -2.66699 -19 -8 -27s-12 -12 -20 -12
c-3.33301 0 -6.66602 1 -9.99902 3l-104 56l-104 -56c-4 -2 -7.66699 -3 -11 -3c-8 0 -14.667 4 -20 12s-8 17.333 -8 28zM150.997 141.002c0 -18 4.83301 -31.501 14.5 -40.501s22.5 -13.5 38.5 -13.5c21.333 0 42 10 62 30s30 42 30 66v21h-15
c-40.667 0 -72.5 -4.16699 -95.5 -12.5s-34.5 -25.166 -34.5 -50.499z" />
    <glyph glyph-name="atilde" unicode="&#xe3;" horiz-adv-x="471" 
d="M22 124c0 54 19.999 92.001 59.999 114.001s97.667 33 173 33h41v13c0 24.667 -7.16699 46.167 -21.5 64.5s-36.5 27.5 -66.5 27.5s-55.667 -5.16699 -77 -15.5s-33.666 -15.5 -36.999 -15.5c-13.333 0 -24 6.66699 -32 20s-12 28 -12 44
c0 19.333 17.167 36.166 51.5 50.499s70.5 21.5 108.5 21.5c72.667 0 126.667 -18.5 162 -55.5s53 -83.5 53 -139.5v-245c0 -11.333 -6 -21 -18 -29s-27 -12 -45 -12c-16.667 0 -30.5 4 -41.5 12s-16.5 17.667 -16.5 29v29c-46 -52.667 -96.667 -79 -152 -79
c-38 0 -69.167 11.333 -93.5 34s-36.5 55.667 -36.5 99zM55.999 635.001c0 18.667 6 33.5 18 44.5s23.5 17.667 34.5 20s22.167 3.5 33.5 3.5c20 0 44.333 -4.83301 73 -14.5s51.667 -14.5 69 -14.5c16 0 32.167 4 48.5 12s27.166 12 32.499 12
c11.333 0 19.666 -5 24.999 -15s8 -19 8 -27c0 -14.667 -3.16699 -26.834 -9.5 -36.501s-14.666 -16.667 -24.999 -21s-19.5 -7.16602 -27.5 -8.49902s-15.667 -2 -23 -2c-23.333 0 -49 4.83301 -77 14.5s-49.667 14.5 -65 14.5c-16 0 -32.333 -4 -49 -12
s-27.667 -12 -33 -12c-11.333 0 -19.666 5 -24.999 15s-8 19 -8 27zM150.999 141.001c0 -18 4.83301 -31.501 14.5 -40.501s22.5 -13.5 38.5 -13.5c21.333 0 42 10 62 30s30 42 30 66v21h-15c-40.667 0 -72.5 -4.16699 -95.5 -12.5s-34.5 -25.166 -34.5 -50.499z" />
    <glyph glyph-name="adieresis" unicode="&#xe4;" horiz-adv-x="471" 
d="M22 124c0 54 19.999 92.001 59.999 114.001s97.667 33 173 33h41v13c0 24.667 -7.16699 46.167 -21.5 64.5s-36.5 27.5 -66.5 27.5s-55.667 -5.16699 -77 -15.5s-33.666 -15.5 -36.999 -15.5c-13.333 0 -24 6.66699 -32 20s-12 28 -12 44
c0 19.333 17.167 36.166 51.5 50.499s70.5 21.5 108.5 21.5c72.667 0 126.667 -18.5 162 -55.5s53 -83.5 53 -139.5v-245c0 -11.333 -6 -21 -18 -29s-27 -12 -45 -12c-16.667 0 -30.5 4 -41.5 12s-16.5 17.667 -16.5 29v29c-46 -52.667 -96.667 -79 -152 -79
c-38 0 -69.167 11.333 -93.5 34s-36.5 55.667 -36.5 99zM99.999 630.001c0 14 5 26.167 15 36.5s22 15.5 36 15.5s25.833 -5.16699 35.5 -15.5s14.5 -22.5 14.5 -36.5s-4.83301 -26.333 -14.5 -37s-21.5 -16 -35.5 -16s-26 5.33301 -36 16s-15 23 -15 37zM150.999 141.001
c0 -18 4.83301 -31.501 14.5 -40.501s22.5 -13.5 38.5 -13.5c21.333 0 42 10 62 30s30 42 30 66v21h-15c-40.667 0 -72.5 -4.16699 -95.5 -12.5s-34.5 -25.166 -34.5 -50.499zM248.999 630c0 14 5 26.167 15 36.5s22.333 15.5 37 15.5c13.333 0 25 -5.16699 35 -15.5
s15 -22.5 15 -36.5s-5 -26.333 -15 -37s-21.667 -16 -35 -16c-14 0 -26.167 5.33301 -36.5 16s-15.5 23 -15.5 37z" />
    <glyph glyph-name="aring" unicode="&#xe5;" horiz-adv-x="471" 
d="M22 124c0 54 19.999 92.001 59.999 114.001s97.667 33 173 33h41v13c0 24.667 -7.16699 46.167 -21.5 64.5s-36.5 27.5 -66.5 27.5s-55.667 -5.16699 -77 -15.5s-33.666 -15.5 -36.999 -15.5c-13.333 0 -24 6.66699 -32 20s-12 28 -12 44
c0 19.333 17.167 36.166 51.5 50.499s70.5 21.5 108.5 21.5c72.667 0 126.667 -18.5 162 -55.5s53 -83.5 53 -139.5v-245c0 -11.333 -6 -21 -18 -29s-27 -12 -45 -12c-16.667 0 -30.5 4 -41.5 12s-16.5 17.667 -16.5 29v29c-46 -52.667 -96.667 -79 -152 -79
c-38 0 -69.167 11.333 -93.5 34s-36.5 55.667 -36.5 99zM129.999 670.001c0 26 9.49902 49 28.499 69s41.833 30 68.5 30s49.834 -10 69.501 -30s29.5 -43 29.5 -69c0 -26.667 -10 -50.167 -30 -70.5s-43 -30.5 -69 -30.5s-48.667 10.167 -68 30.5s-29 43.833 -29 70.5z
M150.998 141.001c0 -18 4.83301 -31.501 14.5 -40.501s22.5 -13.5 38.5 -13.5c21.333 0 42 10 62 30s30 42 30 66v21h-15c-40.667 0 -72.5 -4.16699 -95.5 -12.5s-34.5 -25.166 -34.5 -50.499zM180.998 669c0 -12 4.66699 -23.002 14 -33.002s20.333 -15 33 -15
c12 0 22.333 4.83301 31 14.5s13 20.834 13 33.501c0 12 -4.33301 22.5 -13 31.5s-19 13.5 -31 13.5c-12.667 0 -23.667 -4.66699 -33 -14s-14 -19.666 -14 -30.999z" />
    <glyph glyph-name="ae" unicode="&#xe6;" horiz-adv-x="748" 
d="M22 123c0 54.667 20 93 60 115s97.667 33 173 33h40v14c0 24.667 -7.16699 46.167 -21.5 64.5s-36.5 27.5 -66.5 27.5s-55.5 -5.33301 -76.5 -16s-33.167 -16 -36.5 -16c-13.333 0 -24.166 6.66699 -32.499 20s-12.5 28.333 -12.5 45c0 19.333 17.333 36 52 50
s71 21 109 21c70 0 122 -26 156 -78c40.667 52 90 78 148 78c56 0 104.5 -17.5 145.5 -52.5s61.5 -81.167 61.5 -138.5c0 -19.333 -2.33301 -35 -7 -47s-11.834 -20.667 -21.501 -26s-19.167 -8.83301 -28.5 -10.5s-21.666 -2.5 -36.999 -2.5h-202v-15
c0 -28.667 10.833 -51.834 32.5 -69.501s49.5 -26.5 83.5 -26.5c24.667 0 49.667 6.33301 75 19s41.666 19 48.999 19c14 0 25.5 -6.5 34.5 -19.5s13.5 -25.5 13.5 -37.5c0 -19.333 -17.5 -38 -52.5 -56s-76.833 -27 -125.5 -27c-80 0 -141.667 32 -185 96
c-23.333 -30 -50.5 -53.5 -81.5 -70.5s-62.167 -25.5 -93.5 -25.5c-44 0 -80.5 11.333 -109.5 34s-43.5 55.334 -43.5 98.001zM151 140c0 -17.333 4.83301 -30.5 14.5 -39.5s22.5 -13.5 38.5 -13.5c21.333 0 41.833 10 61.5 30s29.5 42 29.5 66v21h-15
c-26 0 -47.333 -1.16699 -64 -3.5s-31.667 -8.5 -45 -18.5s-20 -24 -20 -42zM425 280l146 -0.000976562c11.333 0 19 1.83301 23 5.5s6 10.5 6 20.5c0 23.333 -8.5 42.5 -25.5 57.5s-37.833 22.5 -62.5 22.5c-24 0 -44.5 -7.16699 -61.5 -21.5s-25.5 -33.166 -25.5 -56.499
v-28z" />
    <glyph glyph-name="ccedilla" unicode="&#xe7;" horiz-adv-x="434" 
d="M34 196l0.000976562 80c0 61.333 18 110.833 54 148.5s90 56.5 162 56.5c45.333 0 83.333 -8 114 -24s46 -34 46 -54c0 -14 -5 -28 -15 -42s-22 -21 -36 -21c-4 0 -15.833 4.66699 -35.5 14s-40.834 14 -63.501 14c-64.667 0 -97 -30.667 -97 -92v-80
c0 -61.333 32.667 -92 98 -92c22.667 0 43.667 5 63 15s31.666 15 36.999 15c16 0 29.167 -6.66699 39.5 -20s15.5 -27 15.5 -41c0 -18.667 -13.5 -36 -40.5 -52s-60.5 -25.667 -100.5 -29l-13 -43c32.667 -1.33301 57.334 -9.16602 74.001 -23.499s25 -32.166 25 -53.499
c0 -22 -8.5 -42.167 -25.5 -60.5s-43.5 -27.5 -79.5 -27.5c-20 0 -39.167 2.5 -57.5 7.5s-27.5 12.167 -27.5 21.5c0 6 2.16699 13.667 6.5 23s9.83301 14 16.5 14c2 0 9 -2.33301 21 -7s24.333 -7 37 -7c31.333 0 47 11 47 33s-16 34.333 -48 37l-55 5l23 82
c-61.333 5.33301 -107.5 26.166 -138.5 62.499s-46.5 83.166 -46.5 140.499z" />
    <glyph glyph-name="egrave" unicode="&#xe8;" horiz-adv-x="484" 
d="M32 196v85c0 54.667 21.333 101.667 64 141s94.334 59 155.001 59c56.667 0 105.167 -17.833 145.5 -53.5s60.5 -80.5 60.5 -134.5c0 -20 -2.5 -36.5 -7.5 -49.5s-12.667 -22.167 -23 -27.5s-19.833 -8.66602 -28.5 -9.99902s-20 -2 -34 -2h-203v-15
c0 -28.667 10.667 -51.834 32 -69.501s49.666 -26.5 84.999 -26.5c25.333 0 50.333 6.33301 75 19s40.667 19 48 19c14 0 25.667 -6.5 35 -19.5s14 -25.5 14 -37.5c0 -18.667 -16.833 -37.167 -50.5 -55.5s-75.5 -27.5 -125.5 -27.5c-71.333 0 -129.5 18.833 -174.5 56.5
s-67.5 87.167 -67.5 148.5zM135 665c0 12 4.00098 23.166 12.001 33.499s17.333 15.5 28 15.5c2 0 6.33301 -0.666992 13 -2l132 -64c11.333 -5.33301 17 -15.666 17 -30.999c0 -11.333 -4 -22.333 -12 -33s-17.333 -16 -28 -16c-2.66699 0 -7.33398 1.33301 -14.001 4
l-130 63c-12 5.33301 -18 15.333 -18 30zM161.001 279.999l145.999 -0.00195312c10.667 0 18.167 1.83301 22.5 5.5s6.5 10.834 6.5 21.501c0 23.333 -8.5 42.333 -25.5 57s-37.833 22 -62.5 22c-23.333 0 -43.666 -7.16699 -60.999 -21.5s-26 -33.166 -26 -56.499v-28z" />
    <glyph glyph-name="eacute" unicode="&#xe9;" horiz-adv-x="484" 
d="M32 196v85c0 54.667 21.333 101.667 64 141s94.334 59 155.001 59c56.667 0 105.167 -17.833 145.5 -53.5s60.5 -80.5 60.5 -134.5c0 -20 -2.5 -36.5 -7.5 -49.5s-12.667 -22.167 -23 -27.5s-19.833 -8.66602 -28.5 -9.99902s-20 -2 -34 -2h-203v-15
c0 -28.667 10.667 -51.834 32 -69.501s49.666 -26.5 84.999 -26.5c25.333 0 50.333 6.33301 75 19s40.667 19 48 19c14 0 25.667 -6.5 35 -19.5s14 -25.5 14 -37.5c0 -18.667 -16.833 -37.167 -50.5 -55.5s-75.5 -27.5 -125.5 -27.5c-71.333 0 -129.5 18.833 -174.5 56.5
s-67.5 87.167 -67.5 148.5zM151 617c0 15.333 5.66797 25.667 17.001 31l132 64c6.66699 1.33301 11 2 13 2c10.667 0 20 -5.16699 28 -15.5s12 -21.5 12 -33.5c0 -14.667 -6 -24.667 -18 -30l-130 -63c-6.66699 -2.66699 -11.334 -4 -14.001 -4
c-10.667 0 -20 5.33301 -28 16s-12 21.667 -12 33zM161.001 280.001l145.999 -0.00195312c10.667 0 18.167 1.83301 22.5 5.5s6.5 10.834 6.5 21.501c0 23.333 -8.5 42.333 -25.5 57s-37.833 22 -62.5 22c-23.333 0 -43.666 -7.16699 -60.999 -21.5s-26 -33.166 -26 -56.499
v-28z" />
    <glyph glyph-name="ecircumflex" unicode="&#xea;" horiz-adv-x="484" 
d="M32 196v85c0 54.667 21.333 101.667 64 141s94.334 59 155.001 59c56.667 0 105.167 -17.833 145.5 -53.5s60.5 -80.5 60.5 -134.5c0 -20 -2.5 -36.5 -7.5 -49.5s-12.667 -22.167 -23 -27.5s-19.833 -8.66602 -28.5 -9.99902s-20 -2 -34 -2h-203v-15
c0 -28.667 10.667 -51.834 32 -69.501s49.666 -26.5 84.999 -26.5c25.333 0 50.333 6.33301 75 19s40.667 19 48 19c14 0 25.667 -6.5 35 -19.5s14 -25.5 14 -37.5c0 -18.667 -16.833 -37.167 -50.5 -55.5s-75.5 -27.5 -125.5 -27.5c-71.333 0 -129.5 18.833 -174.5 56.5
s-67.5 87.167 -67.5 148.5zM106 616c0 17.333 7.33105 29.667 21.998 37l104 56c5.33301 3.33301 11 5 17 5c4.66699 0 10.334 -1.66699 17.001 -5l104 -55c14 -8.66699 21 -21.667 21 -39c0 -10 -2.66699 -19 -8 -27s-12 -12 -20 -12c-3.33301 0 -6.66602 1 -9.99902 3
l-104 56l-104 -56c-4 -2 -7.66699 -3 -11 -3c-8 0 -14.667 4 -20 12s-8 17.333 -8 28zM160.998 280.001l145.999 -0.00195312c10.667 0 18.167 1.83301 22.5 5.5s6.5 10.834 6.5 21.501c0 23.333 -8.5 42.333 -25.5 57s-37.833 22 -62.5 22
c-23.333 0 -43.666 -7.16699 -60.999 -21.5s-26 -33.166 -26 -56.499v-28z" />
    <glyph glyph-name="edieresis" unicode="&#xeb;" horiz-adv-x="484" 
d="M32 196v85c0 54.667 21.333 101.667 64 141s94.334 59 155.001 59c56.667 0 105.167 -17.833 145.5 -53.5s60.5 -80.5 60.5 -134.5c0 -20 -2.5 -36.5 -7.5 -49.5s-12.667 -22.167 -23 -27.5s-19.833 -8.66602 -28.5 -9.99902s-20 -2 -34 -2h-203v-15
c0 -28.667 10.667 -51.834 32 -69.501s49.666 -26.5 84.999 -26.5c25.333 0 50.333 6.33301 75 19s40.667 19 48 19c14 0 25.667 -6.5 35 -19.5s14 -25.5 14 -37.5c0 -18.667 -16.833 -37.167 -50.5 -55.5s-75.5 -27.5 -125.5 -27.5c-71.333 0 -129.5 18.833 -174.5 56.5
s-67.5 87.167 -67.5 148.5zM122 630c0 14 5 26.167 15 36.5s22 15.5 36 15.5s25.833 -5.16699 35.5 -15.5s14.5 -22.5 14.5 -36.5s-4.83301 -26.333 -14.5 -37s-21.5 -16 -35.5 -16s-26 5.33301 -36 16s-15 23 -15 37zM161 280l145.999 -0.00195312
c10.667 0 18.167 1.83301 22.5 5.5s6.5 10.834 6.5 21.501c0 23.333 -8.5 42.333 -25.5 57s-37.833 22 -62.5 22c-23.333 0 -43.666 -7.16699 -60.999 -21.5s-26 -33.166 -26 -56.499v-28zM270.999 629.998c0 14 5 26.167 15 36.5s22.333 15.5 37 15.5
c13.333 0 25 -5.16699 35 -15.5s15 -22.5 15 -36.5s-5 -26.333 -15 -37s-21.667 -16 -35 -16c-14 0 -26.167 5.33301 -36.5 16s-15.5 23 -15.5 37z" />
    <glyph glyph-name="igrave" unicode="&#xec;" horiz-adv-x="229" 
d="M-2 665c0 12 4.00098 23.166 12.001 33.499s17.333 15.5 28 15.5c2 0 6.33301 -0.666992 13 -2l132 -64c11.333 -5.33301 17 -15.666 17 -30.999c0 -11.333 -4 -22.333 -12 -33s-17.333 -16 -28 -16c-2.66699 0 -7.33398 1.33301 -14.001 4l-130 63
c-12 5.33301 -18 15.333 -18 30zM50.001 40.999v394c0 12 6 21.667 18 29s27.333 11 46 11s34.167 -3.66699 46.5 -11s18.5 -17 18.5 -29v-394c0 -10 -6.5 -19.333 -19.5 -28s-28.167 -13 -45.5 -13c-18 0 -33.167 4.16699 -45.5 12.5s-18.5 17.833 -18.5 28.5z" />
    <glyph glyph-name="iacute" unicode="&#xed;" horiz-adv-x="229" 
d="M30 617c0 15.333 5.66797 25.667 17.001 31l132 64c6.66699 1.33301 11 2 13 2c10.667 0 20 -5.16699 28 -15.5s12 -21.5 12 -33.5c0 -14.667 -6 -24.667 -18 -30l-130 -63c-6.66699 -2.66699 -11.334 -4 -14.001 -4c-10.667 0 -20 5.33301 -28 16s-12 21.667 -12 33z
M50.001 41.001v394c0 12 6 21.667 18 29s27.333 11 46 11s34.167 -3.66699 46.5 -11s18.5 -17 18.5 -29v-394c0 -10 -6.5 -19.333 -19.5 -28s-28.167 -13 -45.5 -13c-18 0 -33.167 4.16699 -45.5 12.5s-18.5 17.833 -18.5 28.5z" />
    <glyph glyph-name="icircumflex" unicode="&#xee;" horiz-adv-x="229" 
d="M-28 616c0 17.333 7.33105 29.667 21.998 37l104 56c5.33301 3.33301 11 5 17 5c4.66699 0 10.334 -1.66699 17.001 -5l104 -55c14 -8.66699 21 -21.667 21 -39c0 -10 -2.66699 -19 -8 -27s-12 -12 -20 -12c-3.33301 0 -6.66602 1 -9.99902 3l-104 56l-104 -56
c-4 -2 -7.66699 -3 -11 -3c-8 0 -14.667 4 -20 12s-8 17.333 -8 28zM49.998 41.001v394c0 12 6 21.667 18 29s27.333 11 46 11s34.167 -3.66699 46.5 -11s18.5 -17 18.5 -29v-394c0 -10 -6.5 -19.333 -19.5 -28s-28.167 -13 -45.5 -13c-18 0 -33.167 4.16699 -45.5 12.5
s-18.5 17.833 -18.5 28.5z" />
    <glyph glyph-name="idieresis" unicode="&#xef;" horiz-adv-x="229" 
d="M-8 630c0 14 5 26.167 15 36.5s22 15.5 36 15.5s25.833 -5.16699 35.5 -15.5s14.5 -22.5 14.5 -36.5s-4.83301 -26.333 -14.5 -37s-21.5 -16 -35.5 -16s-26 5.33301 -36 16s-15 23 -15 37zM50 41v394c0 12 6 21.667 18 29s27.333 11 46 11s34.167 -3.66699 46.5 -11
s18.5 -17 18.5 -29v-394c0 -10 -6.5 -19.333 -19.5 -28s-28.167 -13 -45.5 -13c-18 0 -33.167 4.16699 -45.5 12.5s-18.5 17.833 -18.5 28.5zM141 630c0 14 5 26.167 15 36.5s22.333 15.5 37 15.5c13.333 0 25 -5.16699 35 -15.5s15 -22.5 15 -36.5s-5 -26.333 -15 -37
s-21.667 -16 -35 -16c-14 0 -26.167 5.33301 -36.5 16s-15.5 23 -15.5 37z" />
    <glyph glyph-name="eth" unicode="&#xf0;" horiz-adv-x="512" 
d="M32 196l-0.00390625 81.999c0 55.333 17.333 103 52 143s76.334 60 125.001 60c28.667 0 54.834 -7.5 78.501 -22.5s40.834 -33.5 51.501 -55.5c-2 54.667 -17 106 -45 154l-53 -31c-3.33301 -2.66699 -7.66602 -4 -12.999 -4c-10.667 0 -21 5.66699 -31 17
s-15 23 -15 35c0 10.667 5 19 15 25l46 27c-10 10.667 -22.333 17.334 -37 20.001c-18 15.333 -27 30.333 -27 45c0 14 5.33301 27.833 16 41.5s26.667 20.5 48 20.5c39.333 0 76.333 -20 111 -60l56 34c4 2 8.33301 3 13 3c10.667 0 20.667 -5.33301 30 -16s14 -22 14 -34
s-4.66699 -20.667 -14 -26l-53 -32c45.333 -86.667 68 -178 68 -274v-152c0 -54 -21.833 -101.667 -65.5 -143s-94.5 -62 -152.5 -62s-108.833 20.667 -152.5 62s-65.5 89 -65.5 143zM160.996 195.999c0 -24 8.83203 -45.334 26.499 -64.001s38.5 -28 62.5 -28
c24.667 0 45.667 9.33301 63 28s26 40 26 64v83c0 25.333 -9.16699 46.5 -27.5 63.5s-39.166 25.5 -62.499 25.5c-24.667 0 -45.5 -9.16699 -62.5 -27.5s-25.5 -39.166 -25.5 -62.499v-82z" />
    <glyph glyph-name="ntilde" unicode="&#xf1;" horiz-adv-x="523" 
d="M50 41l-0.00195312 394.002c0 12 5.83301 21.667 17.5 29s27.167 11 46.5 11c16 0 29.5 -3.66699 40.5 -11s16.5 -17 16.5 -29v-30c10.667 21.333 27.834 39.333 51.501 54s51.167 22 82.5 22c46 0 86.167 -20 120.5 -60s51.5 -87.667 51.5 -143v-237
c0 -12.667 -6.5 -22.667 -19.5 -30s-28.167 -11 -45.5 -11c-16.667 0 -31.5 3.66699 -44.5 11s-19.5 17.333 -19.5 30v237c0 23.333 -8.66699 44.166 -26 62.499s-37.666 27.5 -60.999 27.5c-22 0 -41.167 -8.33301 -57.5 -25s-24.5 -38.334 -24.5 -65.001v-237
c0 -10 -6.5 -19.333 -19.5 -28s-28.167 -13 -45.5 -13c-18 0 -33.167 4.16699 -45.5 12.5s-18.5 17.833 -18.5 28.5zM88.998 635.002c0 18.667 6 33.5 18 44.5s23.5 17.667 34.5 20s22.167 3.5 33.5 3.5c19.333 0 43.333 -4.83301 72 -14.5s52 -14.5 70 -14.5
c16 0 32.167 4 48.5 12s27.166 12 32.499 12c11.333 0 19.666 -5 24.999 -15s8 -19 8 -27c0 -14.667 -3.16699 -26.834 -9.5 -36.501s-14.666 -16.667 -24.999 -21s-19.5 -7.16602 -27.5 -8.49902s-15.667 -2 -23 -2c-23.333 0 -49 4.83301 -77 14.5s-49.667 14.5 -65 14.5
c-16 0 -32.333 -4 -49 -12s-27.667 -12 -33 -12c-11.333 0 -19.666 5 -24.999 15s-8 19 -8 27z" />
    <glyph glyph-name="ograve" unicode="&#xf2;" horiz-adv-x="498" 
d="M32 196v82c0 54.667 21.333 102.167 64 142.5s93.667 60.5 153 60.5c58 0 108.667 -20 152 -60s65 -87.667 65 -143v-82c0 -54 -21.667 -101.667 -65 -143s-94 -62 -152 -62s-108.667 20.667 -152 62s-65 89 -65 143zM136 665c0 12 4.00098 23.166 12.001 33.499
s17.333 15.5 28 15.5c2 0 6.33301 -0.666992 13 -2l132 -64c11.333 -5.33301 17 -15.666 17 -30.999c0 -11.333 -4 -22.333 -12 -33s-17.333 -16 -28 -16c-2.66699 0 -7.33398 1.33301 -14.001 4l-130 63c-12 5.33301 -18 15.333 -18 30zM161.001 195.999
c0 -24 8.66699 -45.335 26 -64.002s38 -28 62 -28c23.333 0 43.833 9.33301 61.5 28s26.5 40 26.5 64v82c0 22.667 -8.83301 43.334 -26.5 62.001s-38.167 28 -61.5 28c-24 0 -44.667 -9.16699 -62 -27.5s-26 -39.166 -26 -62.499v-82z" />
    <glyph glyph-name="oacute" unicode="&#xf3;" horiz-adv-x="498" 
d="M32 196v82c0 54.667 21.333 102.167 64 142.5s93.667 60.5 153 60.5c58 0 108.667 -20 152 -60s65 -87.667 65 -143v-82c0 -54 -21.667 -101.667 -65 -143s-94 -62 -152 -62s-108.667 20.667 -152 62s-65 89 -65 143zM151 617c0 15.333 5.66797 25.667 17.001 31l132 64
c6.66699 1.33301 11 2 13 2c10.667 0 20 -5.16699 28 -15.5s12 -21.5 12 -33.5c0 -14.667 -6 -24.667 -18 -30l-130 -63c-6.66699 -2.66699 -11.334 -4 -14.001 -4c-10.667 0 -20 5.33301 -28 16s-12 21.667 -12 33zM161.001 196.001c0 -24 8.66699 -45.335 26 -64.002
s38 -28 62 -28c23.333 0 43.833 9.33301 61.5 28s26.5 40 26.5 64v82c0 22.667 -8.83301 43.334 -26.5 62.001s-38.167 28 -61.5 28c-24 0 -44.667 -9.16699 -62 -27.5s-26 -39.166 -26 -62.499v-82z" />
    <glyph glyph-name="ocircumflex" unicode="&#xf4;" horiz-adv-x="498" 
d="M32 196v82c0 54.667 21.333 102.167 64 142.5s93.667 60.5 153 60.5c58 0 108.667 -20 152 -60s65 -87.667 65 -143v-82c0 -54 -21.667 -101.667 -65 -143s-94 -62 -152 -62s-108.667 20.667 -152 62s-65 89 -65 143zM106 616c0 17.333 7.33105 29.667 21.998 37l104 56
c5.33301 3.33301 11 5 17 5c4.66699 0 10.334 -1.66699 17.001 -5l104 -55c14 -8.66699 21 -21.667 21 -39c0 -10 -2.66699 -19 -8 -27s-12 -12 -20 -12c-3.33301 0 -6.66602 1 -9.99902 3l-104 56l-104 -56c-4 -2 -7.66699 -3 -11 -3c-8 0 -14.667 4 -20 12
s-8 17.333 -8 28zM160.998 196.001c0 -24 8.66699 -45.335 26 -64.002s38 -28 62 -28c23.333 0 43.833 9.33301 61.5 28s26.5 40 26.5 64v82c0 22.667 -8.83301 43.334 -26.5 62.001s-38.167 28 -61.5 28c-24 0 -44.667 -9.16699 -62 -27.5s-26 -39.166 -26 -62.499v-82z
" />
    <glyph glyph-name="otilde" unicode="&#xf5;" horiz-adv-x="498" 
d="M32 196v82c0 54.667 21.333 102.167 64 142.5s93.667 60.5 153 60.5c58 0 108.667 -20 152 -60s65 -87.667 65 -143v-82c0 -54 -21.667 -101.667 -65 -143s-94 -62 -152 -62s-108.667 20.667 -152 62s-65 89 -65 143zM79 635c0 18.667 6 33.5 18 44.5
s23.5 17.667 34.5 20s22.167 3.5 33.5 3.5c19.333 0 43.333 -4.83301 72 -14.5s52 -14.5 70 -14.5c16 0 32.167 4 48.5 12s27.166 12 32.499 12c11.333 0 19.666 -5 24.999 -15s8 -19 8 -27c0 -14.667 -3.16699 -26.834 -9.5 -36.501s-14.666 -16.667 -24.999 -21
s-19.5 -7.16602 -27.5 -8.49902s-15.667 -2 -23 -2c-23.333 0 -49 4.83301 -77 14.5s-49.667 14.5 -65 14.5c-16 0 -32.333 -4 -49 -12s-27.667 -12 -33 -12c-11.333 0 -19.666 5 -24.999 15s-8 19 -8 27zM161 196c0 -24 8.66699 -45.335 26 -64.002s38 -28 62 -28
c23.333 0 43.833 9.33301 61.5 28s26.5 40 26.5 64v82c0 22.667 -8.83301 43.334 -26.5 62.001s-38.167 28 -61.5 28c-24 0 -44.667 -9.16699 -62 -27.5s-26 -39.166 -26 -62.499v-82z" />
    <glyph glyph-name="odieresis" unicode="&#xf6;" horiz-adv-x="498" 
d="M32 196v82c0 54.667 21.333 102.167 64 142.5s93.667 60.5 153 60.5c58 0 108.667 -20 152 -60s65 -87.667 65 -143v-82c0 -54 -21.667 -101.667 -65 -143s-94 -62 -152 -62s-108.667 20.667 -152 62s-65 89 -65 143zM124 630c0 14 5 26.167 15 36.5s22 15.5 36 15.5
s25.833 -5.16699 35.5 -15.5s14.5 -22.5 14.5 -36.5s-4.83301 -26.333 -14.5 -37s-21.5 -16 -35.5 -16s-26 5.33301 -36 16s-15 23 -15 37zM161 196c0 -24 8.66699 -45.335 26 -64.002s38 -28 62 -28c23.333 0 43.833 9.33301 61.5 28s26.5 40 26.5 64v82
c0 22.667 -8.83301 43.334 -26.5 62.001s-38.167 28 -61.5 28c-24 0 -44.667 -9.16699 -62 -27.5s-26 -39.166 -26 -62.499v-82zM273 629.998c0 14 5 26.167 15 36.5s22.333 15.5 37 15.5c13.333 0 25 -5.16699 35 -15.5s15 -22.5 15 -36.5s-5 -26.333 -15 -37
s-21.667 -16 -35 -16c-14 0 -26.167 5.33301 -36.5 16s-15.5 23 -15.5 37z" />
    <glyph glyph-name="divide" unicode="&#xf7;" horiz-adv-x="446" 
d="M22 238c0 14.667 4 26.833 12 36.5s18 14.5 30 14.5h317c11.333 0 21.333 -5 30 -15s13 -22 13 -36c0 -14.667 -4.33301 -26.5 -13 -35.5s-18.667 -13.5 -30 -13.5h-317c-12 0 -22 4.5 -30 13.5s-12 20.833 -12 35.5zM158 68.999c0 16.667 6.16699 30.667 18.5 42
s26.833 17 43.5 17c15.333 0 29.333 -5.66699 42 -17s19 -25.333 19 -42c0 -16 -6.33301 -29.833 -19 -41.5s-26.667 -17.5 -42 -17.5c-16.667 0 -31.167 5.83301 -43.5 17.5s-18.5 25.5 -18.5 41.5zM158 408.999c0 16 6.16699 29.833 18.5 41.5s26.833 17.5 43.5 17.5
c15.333 0 29.333 -5.83301 42 -17.5s19 -25.5 19 -41.5s-6.33301 -29.833 -19 -41.5s-26.667 -17.5 -42 -17.5c-16.667 0 -31.167 5.83301 -43.5 17.5s-18.5 25.5 -18.5 41.5z" />
    <glyph glyph-name="oslash" unicode="&#xf8;" horiz-adv-x="498" 
d="M32 196v82.001c0 54.667 21.333 102.167 64 142.5s93.667 60.5 153 60.5c41.333 0 79 -10.333 113 -31l34 48c5.33301 8 12 12 20 12s15 -3 21 -9s9 -12.667 9 -20c0 -6 -2.33301 -12.333 -7 -19l-33 -46c40 -40 60 -86 60 -138v-82c0 -54 -21.667 -101.667 -65 -143
s-94 -62 -152 -62c-43.333 0 -83.333 12 -120 36l-35 -50c-4 -6 -9.66699 -9 -17 -9c-6.66699 0 -13 2.66699 -19 8s-9 11.666 -9 18.999c0 4 2 9.33301 6 16l34 49c-38 40 -57 85.333 -57 136zM161 196.001c0 -10.667 1.33203 -20.001 3.99902 -28.001l130 185
c-15.333 10 -30.666 15 -45.999 15c-24 0 -44.667 -9.16699 -62 -27.5s-26 -39.166 -26 -62.499v-82zM196.999 122c16.667 -12 34 -17.999 52 -17.999c23.333 0 43.833 9.33301 61.5 28s26.5 40 26.5 64v82c0 9.33301 -2.33301 19.666 -7 30.999z" />
    <glyph glyph-name="ugrave" unicode="&#xf9;" 
d="M45 194l0.000976562 240c0 10 6.5 19.333 19.5 28s28.167 13 45.5 13c16.667 0 31.5 -4.33301 44.5 -13s19.5 -18 19.5 -28v-240c0 -23.333 8.66699 -44.166 26 -62.499s38 -27.5 62 -27.5s44.5 9.16699 61.5 27.5s25.5 39.166 25.5 62.499v241c0 10.667 6.5 20 19.5 28
s28.167 12 45.5 12c18.667 0 34 -4 46 -12s18 -17.333 18 -28v-241c0 -54 -21.333 -101.333 -64 -142s-93.334 -61 -152.001 -61s-109.5 20.333 -152.5 61s-64.5 88 -64.5 142zM148.001 665c0 12 4.00098 23.166 12.001 33.499s17.333 15.5 28 15.5
c2 0 6.33301 -0.666992 13 -2l132 -64c11.333 -5.33301 17 -15.666 17 -30.999c0 -11.333 -4 -22.333 -12 -33s-17.333 -16 -28 -16c-2.66699 0 -7.33398 1.33301 -14.001 4l-130 63c-12 5.33301 -18 15.333 -18 30z" />
    <glyph glyph-name="uacute" unicode="&#xfa;" 
d="M45 194l0.000976562 240c0 10 6.5 19.333 19.5 28s28.167 13 45.5 13c16.667 0 31.5 -4.33301 44.5 -13s19.5 -18 19.5 -28v-240c0 -23.333 8.66699 -44.166 26 -62.499s38 -27.5 62 -27.5s44.5 9.16699 61.5 27.5s25.5 39.166 25.5 62.499v241c0 10.667 6.5 20 19.5 28
s28.167 12 45.5 12c18.667 0 34 -4 46 -12s18 -17.333 18 -28v-241c0 -54 -21.333 -101.333 -64 -142s-93.334 -61 -152.001 -61s-109.5 20.333 -152.5 61s-64.5 88 -64.5 142zM172.001 617c0 15.333 5.66797 25.667 17.001 31l132 64c6.66699 1.33301 11 2 13 2
c10.667 0 20 -5.16699 28 -15.5s12 -21.5 12 -33.5c0 -14.667 -6 -24.667 -18 -30l-130 -63c-6.66699 -2.66699 -11.334 -4 -14.001 -4c-10.667 0 -20 5.33301 -28 16s-12 21.667 -12 33z" />
    <glyph glyph-name="ucircumflex" unicode="&#xfb;" 
d="M45 194l0.000976562 240c0 10 6.5 19.333 19.5 28s28.167 13 45.5 13c16.667 0 31.5 -4.33301 44.5 -13s19.5 -18 19.5 -28v-240c0 -23.333 8.66699 -44.166 26 -62.499s38 -27.5 62 -27.5s44.5 9.16699 61.5 27.5s25.5 39.166 25.5 62.499v241c0 10.667 6.5 20 19.5 28
s28.167 12 45.5 12c18.667 0 34 -4 46 -12s18 -17.333 18 -28v-241c0 -54 -21.333 -101.333 -64 -142s-93.334 -61 -152.001 -61s-109.5 20.333 -152.5 61s-64.5 88 -64.5 142zM120.001 616c0 17.333 7.33105 29.667 21.998 37l104 56c5.33301 3.33301 11 5 17 5
c4.66699 0 10.334 -1.66699 17.001 -5l104 -55c14 -8.66699 21 -21.667 21 -39c0 -10 -2.66699 -19 -8 -27s-12 -12 -20 -12c-3.33301 0 -6.66602 1 -9.99902 3l-104 56l-104 -56c-4 -2 -7.66699 -3 -11 -3c-8 0 -14.667 4 -20 12s-8 17.333 -8 28z" />
    <glyph glyph-name="udieresis" unicode="&#xfc;" 
d="M45 194l0.000976562 240c0 10 6.5 19.333 19.5 28s28.167 13 45.5 13c16.667 0 31.5 -4.33301 44.5 -13s19.5 -18 19.5 -28v-240c0 -23.333 8.66699 -44.166 26 -62.499s38 -27.5 62 -27.5s44.5 9.16699 61.5 27.5s25.5 39.166 25.5 62.499v241c0 10.667 6.5 20 19.5 28
s28.167 12 45.5 12c18.667 0 34 -4 46 -12s18 -17.333 18 -28v-241c0 -54 -21.333 -101.333 -64 -142s-93.334 -61 -152.001 -61s-109.5 20.333 -152.5 61s-64.5 88 -64.5 142zM137.001 630c0 14 5 26.167 15 36.5s22 15.5 36 15.5s25.833 -5.16699 35.5 -15.5
s14.5 -22.5 14.5 -36.5s-4.83301 -26.333 -14.5 -37s-21.5 -16 -35.5 -16s-26 5.33301 -36 16s-15 23 -15 37zM286.001 630c0 14 5 26.167 15 36.5s22.333 15.5 37 15.5c13.333 0 25 -5.16699 35 -15.5s15 -22.5 15 -36.5s-5 -26.333 -15 -37s-21.667 -16 -35 -16
c-14 0 -26.167 5.33301 -36.5 16s-15.5 23 -15.5 37z" />
    <glyph glyph-name="yacute" unicode="&#xfd;" horiz-adv-x="476" 
d="M6 -166c0 36 11.002 53.9971 33.002 53.9971c31.333 0 62.166 11.333 92.499 34s47.166 60.334 50.499 113.001l-172 368c-2.66699 6.66699 -4 12.334 -4 17.001c0 16 9.83301 30.333 29.5 43s38.5 19 56.5 19c20 0 32.333 -7.33301 37 -22l120 -299l97 299
c4.66699 14.667 16 22 34 22c17.333 0 36.333 -6.5 57 -19.5s31 -27.833 31 -44.5c0 -5.33301 -1 -10.333 -3 -15l-146 -373l-17 -44c-8 -22.667 -13.833 -38.334 -17.5 -47.001s-10 -22.167 -19 -40.5s-17 -31.666 -24 -39.999s-16.833 -18.666 -29.5 -30.999
s-25.5 -21.333 -38.5 -27s-28.833 -10.667 -47.5 -15s-39 -6.5 -61 -6.5c-19.333 0 -34 3.66699 -44 11s-15 22 -15 44zM176.002 616.997c0 15.333 5.66797 25.667 17.001 31l132 64c6.66699 1.33301 11 2 13 2c10.667 0 20 -5.16699 28 -15.5s12 -21.5 12 -33.5
c0 -14.667 -6 -24.667 -18 -30l-130 -63c-6.66699 -2.66699 -11.334 -4 -14.001 -4c-10.667 0 -20 5.33301 -28 16s-12 21.667 -12 33z" />
    <glyph glyph-name="thorn" unicode="&#xfe;" horiz-adv-x="520" 
d="M52 -180v892c0 12 5.83301 21.667 17.5 29s26.167 11 43.5 11c20 0 36.333 -3.66699 49 -11s19 -17 19 -29v-307c11.333 21.333 28.333 39.333 51 54s48 22 76 22c50 0 92.333 -19.833 127 -59.5s52 -87.5 52 -143.5v-82c0 -54 -17.667 -101.667 -53 -143
s-76 -62 -122 -62c-28.667 0 -55.167 7.83301 -79.5 23.5s-41.5 34.167 -51.5 55.5v-250c0 -10.667 -6.5 -20.167 -19.5 -28.5s-28.5 -12.5 -46.5 -12.5s-33 4.16699 -45 12.5s-18 17.833 -18 28.5zM181 178c0 -13.333 9 -28.998 27 -46.998s38.333 -27 61 -27
c23.333 0 44 9.5 62 28.5s27 40.167 27 63.5v82c0 23.333 -9 44.166 -27 62.499s-39.333 27.5 -64 27.5c-22.667 0 -42.667 -8.33301 -60 -25s-26 -38.334 -26 -65.001v-100z" />
    <glyph glyph-name="ydieresis" unicode="&#xff;" horiz-adv-x="476" 
d="M6 -166c0 36 11.002 53.9971 33.002 53.9971c31.333 0 62.166 11.333 92.499 34s47.166 60.334 50.499 113.001l-172 368c-2.66699 6.66699 -4 12.334 -4 17.001c0 16 9.83301 30.333 29.5 43s38.5 19 56.5 19c20 0 32.333 -7.33301 37 -22l120 -299l97 299
c4.66699 14.667 16 22 34 22c17.333 0 36.333 -6.5 57 -19.5s31 -27.833 31 -44.5c0 -5.33301 -1 -10.333 -3 -15l-146 -373l-17 -44c-8 -22.667 -13.833 -38.334 -17.5 -47.001s-10 -22.167 -19 -40.5s-17 -31.666 -24 -39.999s-16.833 -18.666 -29.5 -30.999
s-25.5 -21.333 -38.5 -27s-28.833 -10.667 -47.5 -15s-39 -6.5 -61 -6.5c-19.333 0 -34 3.66699 -44 11s-15 22 -15 44zM123.002 629.997c0 14 5 26.167 15 36.5s22 15.5 36 15.5s25.833 -5.16699 35.5 -15.5s14.5 -22.5 14.5 -36.5s-4.83301 -26.333 -14.5 -37
s-21.5 -16 -35.5 -16s-26 5.33301 -36 16s-15 23 -15 37zM272.002 629.997c0 14 5 26.167 15 36.5s22.333 15.5 37 15.5c13.333 0 25 -5.16699 35 -15.5s15 -22.5 15 -36.5s-5 -26.333 -15 -37s-21.667 -16 -35 -16c-14 0 -26.167 5.33301 -36.5 16s-15.5 23 -15.5 37z" />
    <glyph glyph-name="Amacron" unicode="&#x100;" horiz-adv-x="575" 
d="M9 54c0 1.33301 0.668945 4.66797 2.00195 10.001l193 629c4 14 13.833 24.833 29.5 32.5s33.5 11.5 53.5 11.5s38 -3.83301 54 -11.5s26 -18.5 30 -32.5l193 -629c1.33301 -5.33301 2 -8.66602 2 -9.99902c0 -14.667 -9 -27.334 -27 -38.001s-36.333 -16 -55 -16
c-24.667 0 -39.334 8.66699 -44.001 26l-38 133h-229l-38 -133c-4.66699 -17.333 -19.334 -26 -44.001 -26c-19.333 0 -37.833 5.16699 -55.5 15.5s-26.5 23.166 -26.5 38.499zM144.002 895.002c0 12 3.66699 22.166 11 30.499s17 12.5 29 12.5h205
c10.667 0 20.167 -4.16699 28.5 -12.5s12.5 -18.5 12.5 -30.5s-4.16699 -22 -12.5 -30s-17.833 -12 -28.5 -12h-205c-12 0 -21.667 3.83301 -29 11.5s-11 17.834 -11 30.501zM200.002 261.001h174l-87 307z" />
    <glyph glyph-name="amacron" unicode="&#x101;" horiz-adv-x="471" 
d="M22 124c0 54 19.999 92.001 59.999 114.001s97.667 33 173 33h41v13c0 24.667 -7.16699 46.167 -21.5 64.5s-36.5 27.5 -66.5 27.5s-55.667 -5.16699 -77 -15.5s-33.666 -15.5 -36.999 -15.5c-13.333 0 -24 6.66699 -32 20s-12 28 -12 44
c0 19.333 17.167 36.166 51.5 50.499s70.5 21.5 108.5 21.5c72.667 0 126.667 -18.5 162 -55.5s53 -83.5 53 -139.5v-245c0 -11.333 -6 -21 -18 -29s-27 -12 -45 -12c-16.667 0 -30.5 4 -41.5 12s-16.5 17.667 -16.5 29v29c-46 -52.667 -96.667 -79 -152 -79
c-38 0 -69.167 11.333 -93.5 34s-36.5 55.667 -36.5 99zM87.999 652.001c0 12 3.66699 22.166 11 30.499s17 12.5 29 12.5h205c10.667 0 20.167 -4.16699 28.5 -12.5s12.5 -18.5 12.5 -30.5s-4.16699 -22 -12.5 -30s-17.833 -12 -28.5 -12h-205
c-12 0 -21.667 3.83301 -29 11.5s-11 17.834 -11 30.501zM150.999 141c0 -18 4.83301 -31.501 14.5 -40.501s22.5 -13.5 38.5 -13.5c21.333 0 42 10 62 30s30 42 30 66v21h-15c-40.667 0 -72.5 -4.16699 -95.5 -12.5s-34.5 -25.166 -34.5 -50.499z" />
    <glyph glyph-name="Abreve" unicode="&#x102;" horiz-adv-x="575" 
d="M9 54c0 1.33301 0.668945 4.66797 2.00195 10.001l193 629c4 14 13.833 24.833 29.5 32.5s33.5 11.5 53.5 11.5s38 -3.83301 54 -11.5s26 -18.5 30 -32.5l193 -629c1.33301 -5.33301 2 -8.66602 2 -9.99902c0 -14.667 -9 -27.334 -27 -38.001s-36.333 -16 -55 -16
c-24.667 0 -39.334 8.66699 -44.001 26l-38 133h-229l-38 -133c-4.66699 -17.333 -19.334 -26 -44.001 -26c-19.333 0 -37.833 5.16699 -55.5 15.5s-26.5 23.166 -26.5 38.499zM154.002 964.002h69.999c0 -21.333 6.33301 -39.166 19 -53.499s27.334 -21.5 44.001 -21.5
c16 0 30.5 7.16699 43.5 21.5s19.5 32.166 19.5 53.499h70c0 -35.333 -13.5 -66.333 -40.5 -93s-57.833 -40 -92.5 -40s-65.5 13.333 -92.5 40s-40.5 57.667 -40.5 93zM200.001 261.002h174l-87 307z" />
    <glyph glyph-name="abreve" unicode="&#x103;" horiz-adv-x="471" 
d="M22 124c0 54 19.999 92.001 59.999 114.001s97.667 33 173 33h41v13c0 24.667 -7.16699 46.167 -21.5 64.5s-36.5 27.5 -66.5 27.5s-55.667 -5.16699 -77 -15.5s-33.666 -15.5 -36.999 -15.5c-13.333 0 -24 6.66699 -32 20s-12 28 -12 44
c0 19.333 17.167 36.166 51.5 50.499s70.5 21.5 108.5 21.5c72.667 0 126.667 -18.5 162 -55.5s53 -83.5 53 -139.5v-245c0 -11.333 -6 -21 -18 -29s-27 -12 -45 -12c-16.667 0 -30.5 4 -41.5 12s-16.5 17.667 -16.5 29v29c-46 -52.667 -96.667 -79 -152 -79
c-38 0 -69.167 11.333 -93.5 34s-36.5 55.667 -36.5 99zM94.999 721.001h69.999c0 -21.333 6.33301 -39.166 19 -53.499s27.334 -21.5 44.001 -21.5c16 0 30.5 7.16699 43.5 21.5s19.5 32.166 19.5 53.499h70c0 -35.333 -13.5 -66.333 -40.5 -93s-57.833 -40 -92.5 -40
s-65.5 13.333 -92.5 40s-40.5 57.667 -40.5 93zM150.998 141.001c0 -18 4.83301 -31.501 14.5 -40.501s22.5 -13.5 38.5 -13.5c21.333 0 42 10 62 30s30 42 30 66v21h-15c-40.667 0 -72.5 -4.16699 -95.5 -12.5s-34.5 -25.166 -34.5 -50.499z" />
    <glyph glyph-name="Aogonek" unicode="&#x104;" horiz-adv-x="575" 
d="M9 54c0 1.33301 0.667969 4.66797 2.00098 10.001l193 629c4 14 13.833 24.833 29.5 32.5s33.5 11.5 53.5 11.5s38 -3.83301 54 -11.5s26 -18.5 30 -32.5l193 -629c1.33301 -5.33301 2 -8.66602 2 -9.99902c0 -20 -15.333 -35.667 -46 -47
c-22.667 -14 -41.334 -32 -56.001 -54s-22 -43.333 -22 -64c0 -31.333 20 -47 60 -47c15.333 0 23 -9.66699 23 -29c0 -17.333 -9.66699 -26 -29 -26c-37.333 0 -66.166 8.16699 -86.499 24.5s-30.5 38.166 -30.5 65.499c0 51.333 23.667 95.333 71 132
c-4.66699 3.33301 -8 9 -10 17l-38 133h-229l-38 -133c-4.66699 -17.333 -19.334 -26 -44.001 -26c-19.333 0 -37.833 5.16699 -55.5 15.5s-26.5 23.166 -26.5 38.499zM200.001 261.002h174l-87 307z" />
    <glyph glyph-name="aogonek" unicode="&#x105;" horiz-adv-x="471" 
d="M22 124c0 54 19.999 92.002 59.999 114.002s97.667 33 173 33h41v13c0 24.667 -7.16699 46.167 -21.5 64.5s-36.5 27.5 -66.5 27.5s-55.667 -5.16699 -77 -15.5s-33.666 -15.5 -36.999 -15.5c-13.333 0 -24 6.66699 -32 20s-12 28 -12 44
c0 19.333 17.167 36.166 51.5 50.499s70.5 21.5 108.5 21.5c72.667 0 126.667 -18.5 162 -55.5s53 -83.5 53 -139.5v-245c0 -14.667 -9 -26 -27 -34c-22.667 -14 -41.334 -32 -56.001 -54s-22 -43.333 -22 -64c0 -31.333 20 -47 60 -47c15.333 0 23 -9.66699 23 -29
c0 -17.333 -9.66699 -26 -29 -26c-37.333 0 -66.166 8.16699 -86.499 24.5s-30.5 38.166 -30.5 65.499c0 50 23 93.667 69 131c-14.667 8.66699 -22 19.667 -22 33v29c-46 -52.667 -96.667 -79 -152 -79c-38 0 -69.167 11.333 -93.5 34s-36.5 55.667 -36.5 99z
M150.999 141.002c0 -18 4.83301 -31.501 14.5 -40.501s22.5 -13.5 38.5 -13.5c21.333 0 42 10 62 30s30 42 30 66v21h-15c-40.667 0 -72.5 -4.16699 -95.5 -12.5s-34.5 -25.166 -34.5 -50.499z" />
    <glyph glyph-name="Cacute" unicode="&#x106;" horiz-adv-x="550" 
d="M53 223l0.00390625 279.001c0 78.667 21.333 136.5 64 173.5s98.334 55.5 167.001 55.5c70 0 127.167 -17.333 171.5 -52s66.5 -80.667 66.5 -138c0 -24.667 -5 -41.5 -15 -50.5s-26.667 -13.5 -50 -13.5c-42.667 0 -64.334 13.667 -65.001 41
c-0.666992 8.66699 -1.5 16.167 -2.5 22.5s-3.66699 14.666 -8 24.999s-9.83301 19 -16.5 26s-16.667 13 -30 18s-29 7.5 -47 7.5c-70 0 -105 -38.333 -105 -115v-279c0 -76.667 35.667 -115 107 -115c21.333 0 39.166 3.33301 53.499 10s24.666 16.167 30.999 28.5
s10.666 23.333 12.999 33s3.83301 21.5 4.5 35.5c2 27.333 23.333 41 64 41c23.333 0 40.166 -4.5 50.499 -13.5s15.5 -25.833 15.5 -50.5c0 -60 -22.167 -108 -66.5 -144s-101.833 -54 -172.5 -54c-68.667 0 -124.167 18.5 -166.5 55.5s-63.5 94.833 -63.5 173.5z
M205.004 860.001c0 14.667 5.66797 25 17.001 31l132 64c6.66699 1.33301 11 2 13 2c10.667 0 20 -5.16699 28 -15.5s12 -21.5 12 -33.5c0 -14.667 -6 -24.667 -18 -30l-130 -63c-6.66699 -2.66699 -11.334 -4 -14.001 -4c-10.667 0 -20 5.33301 -28 16s-12 21.667 -12 33z
" />
    <glyph glyph-name="cacute" unicode="&#x107;" horiz-adv-x="434" 
d="M34 196l0.000976562 80c0 61.333 18 110.833 54 148.5s90 56.5 162 56.5c45.333 0 83.333 -8 114 -24s46 -34 46 -54c0 -14 -5 -28 -15 -42s-22 -21 -36 -21c-4 0 -15.833 4.66699 -35.5 14s-40.834 14 -63.501 14c-64.667 0 -97 -30.667 -97 -92v-80
c0 -61.333 32.667 -92 98 -92c22.667 0 43.667 5 63 15s31.666 15 36.999 15c16 0 29.167 -6.66699 39.5 -20s15.5 -27 15.5 -41c0 -20.667 -16.167 -39.5 -48.5 -56.5s-71.166 -25.5 -116.499 -25.5c-72.667 0 -127 18.667 -163 56s-54 87 -54 149zM142.001 617
c0 15.333 5.66797 25.667 17.001 31l132 64c6.66699 1.33301 11 2 13 2c10.667 0 20 -5.16699 28 -15.5s12 -21.5 12 -33.5c0 -14.667 -6 -24.667 -18 -30l-130 -63c-6.66699 -2.66699 -11.334 -4 -14.001 -4c-10.667 0 -20 5.33301 -28 16s-12 21.667 -12 33z" />
    <glyph glyph-name="Ccircumflex" unicode="&#x108;" horiz-adv-x="550" 
d="M53 223l0.00390625 279.001c0 78.667 21.333 136.5 64 173.5s98.334 55.5 167.001 55.5c70 0 127.167 -17.333 171.5 -52s66.5 -80.667 66.5 -138c0 -24.667 -5 -41.5 -15 -50.5s-26.667 -13.5 -50 -13.5c-42.667 0 -64.334 13.667 -65.001 41
c-0.666992 8.66699 -1.5 16.167 -2.5 22.5s-3.66699 14.666 -8 24.999s-9.83301 19 -16.5 26s-16.667 13 -30 18s-29 7.5 -47 7.5c-70 0 -105 -38.333 -105 -115v-279c0 -76.667 35.667 -115 107 -115c21.333 0 39.166 3.33301 53.499 10s24.666 16.167 30.999 28.5
s10.666 23.333 12.999 33s3.83301 21.5 4.5 35.5c2 27.333 23.333 41 64 41c23.333 0 40.166 -4.5 50.499 -13.5s15.5 -25.833 15.5 -50.5c0 -60 -22.167 -108 -66.5 -144s-101.833 -54 -172.5 -54c-68.667 0 -124.167 18.5 -166.5 55.5s-63.5 94.833 -63.5 173.5z
M144.004 859.001c0 17.333 7.33105 29.667 21.998 37l104 56c5.33301 3.33301 11 5 17 5c4.66699 0 10.334 -1.66699 17.001 -5l104 -55c14 -8.66699 21 -21.667 21 -39c0 -10 -2.66699 -19 -8 -27s-12 -12 -20 -12c-3.33301 0 -6.66602 1 -9.99902 3l-104 56l-104 -56
c-4 -2 -7.66699 -3 -11 -3c-8 0 -14.667 4 -20 12s-8 17.333 -8 28z" />
    <glyph glyph-name="ccircumflex" unicode="&#x109;" horiz-adv-x="434" 
d="M34 196l0.000976562 80c0 61.333 18 110.833 54 148.5s90 56.5 162 56.5c45.333 0 83.333 -8 114 -24s46 -34 46 -54c0 -14 -5 -28 -15 -42s-22 -21 -36 -21c-4 0 -15.833 4.66699 -35.5 14s-40.834 14 -63.501 14c-64.667 0 -97 -30.667 -97 -92v-80
c0 -61.333 32.667 -92 98 -92c22.667 0 43.667 5 63 15s31.666 15 36.999 15c16 0 29.167 -6.66699 39.5 -20s15.5 -27 15.5 -41c0 -20.667 -16.167 -39.5 -48.5 -56.5s-71.166 -25.5 -116.499 -25.5c-72.667 0 -127 18.667 -163 56s-54 87 -54 149zM93.001 616
c0 17.333 7.33203 29.667 21.999 37l104 56c5.33301 3.33301 11 5 17 5c4.66699 0 10.334 -1.66699 17.001 -5l104 -55c14 -8.66699 21 -21.667 21 -39c0 -10 -2.66699 -19 -8 -27s-12 -12 -20 -12c-4 0 -7.33301 1 -10 3l-104 56l-104 -56c-4 -2 -7.66699 -3 -11 -3
c-8 0 -14.667 4 -20 12s-8 17.333 -8 28z" />
    <glyph glyph-name="Cdotaccent" unicode="&#x10a;" horiz-adv-x="550" 
d="M53 223l0.00390625 279.001c0 78.667 21.333 136.5 64 173.5s98.334 55.5 167.001 55.5c70 0 127.167 -17.333 171.5 -52s66.5 -80.667 66.5 -138c0 -24.667 -5 -41.5 -15 -50.5s-26.667 -13.5 -50 -13.5c-42.667 0 -64.334 13.667 -65.001 41
c-0.666992 8.66699 -1.5 16.167 -2.5 22.5s-3.66699 14.666 -8 24.999s-9.83301 19 -16.5 26s-16.667 13 -30 18s-29 7.5 -47 7.5c-70 0 -105 -38.333 -105 -115v-279c0 -76.667 35.667 -115 107 -115c21.333 0 39.166 3.33301 53.499 10s24.666 16.167 30.999 28.5
s10.666 23.333 12.999 33s3.83301 21.5 4.5 35.5c2 27.333 23.333 41 64 41c23.333 0 40.166 -4.5 50.499 -13.5s15.5 -25.833 15.5 -50.5c0 -60 -22.167 -108 -66.5 -144s-101.833 -54 -172.5 -54c-68.667 0 -124.167 18.5 -166.5 55.5s-63.5 94.833 -63.5 173.5z
M238.004 873.001c0 14 5 26.167 15 36.5s22 15.5 36 15.5s25.833 -5.16699 35.5 -15.5s14.5 -22.5 14.5 -36.5s-4.83301 -26.333 -14.5 -37s-21.5 -16 -35.5 -16s-26 5.33301 -36 16s-15 23 -15 37z" />
    <glyph glyph-name="cdotaccent" unicode="&#x10b;" horiz-adv-x="434" 
d="M34 196l0.000976562 80c0 61.333 18 110.833 54 148.5s90 56.5 162 56.5c45.333 0 83.333 -8 114 -24s46 -34 46 -54c0 -14 -5 -28 -15 -42s-22 -21 -36 -21c-4 0 -15.833 4.66699 -35.5 14s-40.834 14 -63.501 14c-64.667 0 -97 -30.667 -97 -92v-80
c0 -61.333 32.667 -92 98 -92c22.667 0 43.667 5 63 15s31.666 15 36.999 15c16 0 29.167 -6.66699 39.5 -20s15.5 -27 15.5 -41c0 -20.667 -16.167 -39.5 -48.5 -56.5s-71.166 -25.5 -116.499 -25.5c-72.667 0 -127 18.667 -163 56s-54 87 -54 149zM182.001 630
c0 14 5 26.167 15 36.5s22 15.5 36 15.5s25.833 -5.16699 35.5 -15.5s14.5 -22.5 14.5 -36.5s-4.83301 -26.333 -14.5 -37s-21.5 -16 -35.5 -16s-26 5.33301 -36 16s-15 23 -15 37z" />
    <glyph glyph-name="Ccaron" unicode="&#x10c;" horiz-adv-x="550" 
d="M53 223l0.00390625 279.001c0 78.667 21.333 136.5 64 173.5s98.334 55.5 167.001 55.5c70 0 127.167 -17.333 171.5 -52s66.5 -80.667 66.5 -138c0 -24.667 -5 -41.5 -15 -50.5s-26.667 -13.5 -50 -13.5c-42.667 0 -64.334 13.667 -65.001 41
c-0.666992 8.66699 -1.5 16.167 -2.5 22.5s-3.66699 14.666 -8 24.999s-9.83301 19 -16.5 26s-16.667 13 -30 18s-29 7.5 -47 7.5c-70 0 -105 -38.333 -105 -115v-279c0 -76.667 35.667 -115 107 -115c21.333 0 39.166 3.33301 53.499 10s24.666 16.167 30.999 28.5
s10.666 23.333 12.999 33s3.83301 21.5 4.5 35.5c2 27.333 23.333 41 64 41c23.333 0 40.166 -4.5 50.499 -13.5s15.5 -25.833 15.5 -50.5c0 -60 -22.167 -108 -66.5 -144s-101.833 -54 -172.5 -54c-68.667 0 -124.167 18.5 -166.5 55.5s-63.5 94.833 -63.5 173.5z
M143.004 936.001c0 10 2.66699 19 8 27s12 12 20 12c4.66699 0 8.66699 -1.33301 12 -4l103 -66l102 66c4.66699 2.66699 8.66699 4 12 4c8 0 14.667 -4 20 -12s8 -17 8 -27c0 -16.667 -7 -29.334 -21 -38.001l-103 -66c-6.66699 -4 -12.667 -6 -18 -6c-6 0 -12 2 -18 6
l-103 66c-14.667 8.66699 -22 21.334 -22 38.001z" />
    <glyph glyph-name="ccaron" unicode="&#x10d;" horiz-adv-x="434" 
d="M34 196l0.000976562 80c0 61.333 18 110.833 54 148.5s90 56.5 162 56.5c45.333 0 83.333 -8 114 -24s46 -34 46 -54c0 -14 -5 -28 -15 -42s-22 -21 -36 -21c-4 0 -15.833 4.66699 -35.5 14s-40.834 14 -63.501 14c-64.667 0 -97 -30.667 -97 -92v-80
c0 -61.333 32.667 -92 98 -92c22.667 0 43.667 5 63 15s31.666 15 36.999 15c16 0 29.167 -6.66699 39.5 -20s15.5 -27 15.5 -41c0 -20.667 -16.167 -39.5 -48.5 -56.5s-71.166 -25.5 -116.499 -25.5c-72.667 0 -127 18.667 -163 56s-54 87 -54 149zM88.001 693
c0 10 2.66699 19 8 27s12 12 20 12c4.66699 0 8.66699 -1.33301 12 -4l103 -66l102 66c4.66699 2.66699 8.66699 4 12 4c8 0 14.667 -4 20 -12s8 -17 8 -27c0 -16.667 -7 -29.334 -21 -38.001l-103 -66c-7.33301 -4 -13.333 -6 -18 -6c-6 0 -12 2 -18 6l-103 66
c-14.667 8.66699 -22 21.334 -22 38.001z" />
    <glyph glyph-name="Dcaron" unicode="&#x10e;" horiz-adv-x="580" 
d="M60 40v651c0 10.667 5.33301 20 16 28s24.334 12 41.001 12h177c71.333 0 128.333 -18.333 171 -55s64 -94.667 64 -174v-273c0 -79.333 -21.333 -137.333 -64 -174s-99.667 -55 -171 -55h-177c-16.667 0 -30.334 4 -41.001 12s-16 17.333 -16 28zM132 936
c0 10 2.66699 19 8 27s12 12 20 12c4.66699 0 8.66699 -1.33301 12 -4l103 -66l102 66c4.66699 2.66699 8.66699 4 12 4c8 0 14.667 -4 20 -12s8 -17 8 -27c0 -16.667 -7 -29.334 -21 -38.001l-103 -66c-7.33301 -4 -13.333 -6 -18 -6c-6 0 -12 2 -18 6l-103 66
c-14.667 8.66699 -22 21.334 -22 38.001zM190 114h104c70 0 105 38.333 105 115v273c0 76.667 -35 115 -105 115h-104v-503z" />
    <glyph glyph-name="dcaron" unicode="&#x10f;" horiz-adv-x="520" 
d="M33 196l0.00292969 82c0 55.333 17.5 103 52.5 143s76.833 60 125.5 60c29.333 0 55.166 -7.33301 77.499 -22s39.5 -32.667 51.5 -54v307c0 12 6.16699 21.667 18.5 29s27.833 11 46.5 11s34 -3.66699 46 -11s18 -17 18 -29v-671
c0 -10.667 -6.16699 -20.167 -18.5 -28.5s-27.5 -12.5 -45.5 -12.5c-15.333 -0 -28.833 4.33301 -40.5 13s-17.5 18 -17.5 28v29c-10.667 -21.333 -28.834 -39.833 -54.501 -55.5s-53.834 -23.5 -84.501 -23.5c-46 0 -86.667 20.667 -122 62s-53 89 -53 143zM162.003 196
c0 -23.333 8.66699 -44.502 26 -63.502s37.666 -28.5 60.999 -28.5s44.333 9.16699 63 27.5s28 33.833 28 46.5v100c0 26.667 -9.16699 48.334 -27.5 65.001s-39.166 25 -62.499 25c-24 0 -44.667 -9.16699 -62 -27.5s-26 -39.166 -26 -62.499v-82zM519.003 672.998
c0 18.667 6.5 34.667 19.5 48s28.833 20 47.5 20s34.667 -6.66699 48 -20s20 -29 20 -47c0 -12 -18.333 -61 -55 -147c-5.33301 -10.667 -14.333 -16 -27 -16c-10 0 -19.667 3.16699 -29 9.5s-14 14.5 -14 24.5c0 4.66699 1.33301 9.33398 4 14.001l23 53
c-24.667 13.333 -37 33.666 -37 60.999z" />
    <glyph glyph-name="Dcroat" unicode="&#x110;" horiz-adv-x="587" 
d="M-7 382c0 12.667 3 23.667 9 33s14 14 24 14h41v262c0 10.667 5.33301 20 16 28s24.334 12 41.001 12h177c71.333 0 128.333 -18.333 171 -55s64 -94.667 64 -174v-273c0 -79.333 -21.333 -137.333 -64 -174s-99.667 -55 -171 -55h-177c-16.667 0 -30.334 4 -41.001 12
s-16 17.333 -16 28v296h-41c-10 0 -18 4.5 -24 13.5s-9 19.833 -9 32.5zM197 114h104c70 0 105 38.333 105 115v273c0 76.667 -35 115 -105 115h-104v-188h77c10.667 0 19 -4.66699 25 -14s9 -20.333 9 -33s-3 -23.5 -9 -32.5s-14.333 -13.5 -25 -13.5h-77v-222z" />
    <glyph glyph-name="dcroat" unicode="&#x111;" horiz-adv-x="520" 
d="M33 196l0.00292969 82c0 55.333 17.5 103 52.5 143s76.833 60 125.5 60c29.333 0 55.166 -7.33301 77.499 -22s39.5 -32.667 51.5 -54v148h-78c-10.667 0 -19 4.66699 -25 14s-9 20.333 -9 33s3 23.667 9 33s14.333 14 25 14h78v65c0 12 6.16699 21.667 18.5 29
s27.833 11 46.5 11s34 -3.66699 46 -11s18 -17 18 -29v-65h29c10.667 0 19 -4.66699 25 -14s9 -20.333 9 -33c0 -13.333 -3 -24.5 -9 -33.5s-14.333 -13.5 -25 -13.5h-29v-512c0 -10.667 -6.16699 -20.167 -18.5 -28.5s-27.5 -12.5 -45.5 -12.5
c-15.333 -0 -28.833 4.33301 -40.5 13s-17.5 18 -17.5 28v29c-10.667 -21.333 -28.834 -39.833 -54.501 -55.5s-53.834 -23.5 -84.501 -23.5c-46 0 -86.667 20.667 -122 62s-53 89 -53 143zM162.003 196c0 -23.333 8.66699 -44.502 26 -63.502s37.666 -28.5 60.999 -28.5
s44.333 9.16699 63 27.5s28 33.833 28 46.5v100c0 26.667 -9.16699 48.334 -27.5 65.001s-39.166 25 -62.499 25c-24 0 -44.667 -9.16699 -62 -27.5s-26 -39.166 -26 -62.499v-82z" />
    <glyph glyph-name="Emacron" unicode="&#x112;" horiz-adv-x="530" 
d="M60 41v649c0 12.667 5.66699 22.667 17 30s24.666 11 39.999 11h356c13.333 0 23.5 -5.66699 30.5 -17s10.5 -24.333 10.5 -39c0 -16 -3.66699 -29.667 -11 -41s-17.333 -17 -30 -17h-283v-200h152c12.667 0 22.667 -5.16699 30 -15.5s11 -22.5 11 -36.5
c0 -12.667 -3.5 -24.167 -10.5 -34.5s-17.167 -15.5 -30.5 -15.5h-152v-201h283c12.667 0 22.667 -5.66699 30 -17s11 -25 11 -41c0 -14.667 -3.5 -27.667 -10.5 -39s-17.167 -17 -30.5 -17h-356c-15.333 0 -28.666 3.66699 -39.999 11s-17 17.333 -17 30zM147 895
c0 12 3.66699 22.166 11 30.499s17 12.5 29 12.5h205c10.667 0 20.167 -4.16699 28.5 -12.5s12.5 -18.5 12.5 -30.5s-4.16699 -22 -12.5 -30s-17.833 -12 -28.5 -12h-205c-12 0 -21.667 3.83301 -29 11.5s-11 17.834 -11 30.501z" />
    <glyph glyph-name="emacron" unicode="&#x113;" horiz-adv-x="484" 
d="M32 196v85c0 54.667 21.333 101.667 64 141s94.334 59 155.001 59c56.667 0 105.167 -17.833 145.5 -53.5s60.5 -80.5 60.5 -134.5c0 -20 -2.5 -36.5 -7.5 -49.5s-12.667 -22.167 -23 -27.5s-19.833 -8.66602 -28.5 -9.99902s-20 -2 -34 -2h-203v-15
c0 -28.667 10.667 -51.834 32 -69.501s49.666 -26.5 84.999 -26.5c25.333 0 50.333 6.33301 75 19s40.667 19 48 19c14 0 25.667 -6.5 35 -19.5s14 -25.5 14 -37.5c0 -18.667 -16.833 -37.167 -50.5 -55.5s-75.5 -27.5 -125.5 -27.5c-71.333 0 -129.5 18.833 -174.5 56.5
s-67.5 87.167 -67.5 148.5zM107 652c0 12 3.66699 22.166 11 30.499s17 12.5 29 12.5h205c10.667 0 20.167 -4.16699 28.5 -12.5s12.5 -18.5 12.5 -30.5s-4.16699 -22 -12.5 -30s-17.833 -12 -28.5 -12h-205c-12 0 -21.667 3.83301 -29 11.5s-11 17.834 -11 30.501z
M161 279.999l145.999 -0.00195312c10.667 0 18.167 1.83301 22.5 5.5s6.5 10.834 6.5 21.501c0 23.333 -8.5 42.333 -25.5 57s-37.833 22 -62.5 22c-23.333 0 -43.666 -7.16699 -60.999 -21.5s-26 -33.166 -26 -56.499v-28z" />
    <glyph glyph-name="Ebreve" unicode="&#x114;" horiz-adv-x="530" 
d="M60 41v649c0 12.667 5.66699 22.667 17 30s24.666 11 39.999 11h356c13.333 0 23.5 -5.66699 30.5 -17s10.5 -24.333 10.5 -39c0 -16 -3.66699 -29.667 -11 -41s-17.333 -17 -30 -17h-283v-200h152c12.667 0 22.667 -5.16699 30 -15.5s11 -22.5 11 -36.5
c0 -12.667 -3.5 -24.167 -10.5 -34.5s-17.167 -15.5 -30.5 -15.5h-152v-201h283c12.667 0 22.667 -5.66699 30 -17s11 -25 11 -41c0 -14.667 -3.5 -27.667 -10.5 -39s-17.167 -17 -30.5 -17h-356c-15.333 0 -28.666 3.66699 -39.999 11s-17 17.333 -17 30zM153 964h69.999
c0 -21.333 6.33301 -39.166 19 -53.499s27.334 -21.5 44.001 -21.5c16 0 30.5 7.16699 43.5 21.5s19.5 32.166 19.5 53.499h70c0 -35.333 -13.5 -66.333 -40.5 -93s-57.833 -40 -92.5 -40s-65.5 13.333 -92.5 40s-40.5 57.667 -40.5 93z" />
    <glyph glyph-name="ebreve" unicode="&#x115;" horiz-adv-x="484" 
d="M32 196v85c0 54.667 21.333 101.667 64 141s94.334 59 155.001 59c56.667 0 105.167 -17.833 145.5 -53.5s60.5 -80.5 60.5 -134.5c0 -20 -2.5 -36.5 -7.5 -49.5s-12.667 -22.167 -23 -27.5s-19.833 -8.66602 -28.5 -9.99902s-20 -2 -34 -2h-203v-15
c0 -28.667 10.667 -51.834 32 -69.501s49.666 -26.5 84.999 -26.5c25.333 0 50.333 6.33301 75 19s40.667 19 48 19c14 0 25.667 -6.5 35 -19.5s14 -25.5 14 -37.5c0 -18.667 -16.833 -37.167 -50.5 -55.5s-75.5 -27.5 -125.5 -27.5c-71.333 0 -129.5 18.833 -174.5 56.5
s-67.5 87.167 -67.5 148.5zM116 721h69.999c0 -21.333 6.33301 -39.166 19 -53.499s27.334 -21.5 44.001 -21.5c16 0 30.5 7.16699 43.5 21.5s19.5 32.166 19.5 53.499h70c0 -35.333 -13.5 -66.333 -40.5 -93s-57.833 -40 -92.5 -40s-65.5 13.333 -92.5 40
s-40.5 57.667 -40.5 93zM160.999 280l145.999 -0.00195312c10.667 0 18.167 1.83301 22.5 5.5s6.5 10.834 6.5 21.501c0 23.333 -8.5 42.333 -25.5 57s-37.833 22 -62.5 22c-23.333 0 -43.666 -7.16699 -60.999 -21.5s-26 -33.166 -26 -56.499v-28z" />
    <glyph glyph-name="Edotaccent" unicode="&#x116;" horiz-adv-x="530" 
d="M60 41v649c0 12.667 5.66699 22.667 17 30s24.666 11 39.999 11h356c13.333 0 23.5 -5.66699 30.5 -17s10.5 -24.333 10.5 -39c0 -16 -3.66699 -29.667 -11 -41s-17.333 -17 -30 -17h-283v-200h152c12.667 0 22.667 -5.16699 30 -15.5s11 -22.5 11 -36.5
c0 -12.667 -3.5 -24.167 -10.5 -34.5s-17.167 -15.5 -30.5 -15.5h-152v-201h283c12.667 0 22.667 -5.66699 30 -17s11 -25 11 -41c0 -14.667 -3.5 -27.667 -10.5 -39s-17.167 -17 -30.5 -17h-356c-15.333 0 -28.666 3.66699 -39.999 11s-17 17.333 -17 30zM247 873
c0 14 5 26.167 15 36.5s22 15.5 36 15.5s25.833 -5.16699 35.5 -15.5s14.5 -22.5 14.5 -36.5s-4.83301 -26.333 -14.5 -37s-21.5 -16 -35.5 -16s-26 5.33301 -36 16s-15 23 -15 37z" />
    <glyph glyph-name="edotaccent" unicode="&#x117;" horiz-adv-x="484" 
d="M32 196v85c0 54.667 21.333 101.667 64 141s94.334 59 155.001 59c56.667 0 105.167 -17.833 145.5 -53.5s60.5 -80.5 60.5 -134.5c0 -20 -2.5 -36.5 -7.5 -49.5s-12.667 -22.167 -23 -27.5s-19.833 -8.66602 -28.5 -9.99902s-20 -2 -34 -2h-203v-15
c0 -28.667 10.667 -51.834 32 -69.501s49.666 -26.5 84.999 -26.5c25.333 0 50.333 6.33301 75 19s40.667 19 48 19c14 0 25.667 -6.5 35 -19.5s14 -25.5 14 -37.5c0 -18.667 -16.833 -37.167 -50.5 -55.5s-75.5 -27.5 -125.5 -27.5c-71.333 0 -129.5 18.833 -174.5 56.5
s-67.5 87.167 -67.5 148.5zM161 280l145.999 -0.00195312c10.667 0 18.167 1.83301 22.5 5.5s6.5 10.834 6.5 21.501c0 23.333 -8.5 42.333 -25.5 57s-37.833 22 -62.5 22c-23.333 0 -43.666 -7.16699 -60.999 -21.5s-26 -33.166 -26 -56.499v-28zM197.999 629.998
c0 14 5 26.167 15 36.5s22 15.5 36 15.5s25.833 -5.16699 35.5 -15.5s14.5 -22.5 14.5 -36.5s-4.83301 -26.333 -14.5 -37s-21.5 -16 -35.5 -16s-26 5.33301 -36 16s-15 23 -15 37z" />
    <glyph glyph-name="Eogonek" unicode="&#x118;" horiz-adv-x="530" 
d="M60 41l-0.000976562 649.001c0 12.667 5.66699 22.667 17 30s24.666 11 39.999 11h356c13.333 0 23.5 -5.66699 30.5 -17s10.5 -24.333 10.5 -39c0 -16 -3.66699 -29.667 -11 -41s-17.333 -17 -30 -17h-283v-200h152c12.667 0 22.667 -5.16699 30 -15.5
s11 -22.5 11 -36.5c0 -12.667 -3.5 -24.167 -10.5 -34.5s-17.167 -15.5 -30.5 -15.5h-152v-201h283c12.667 0 22.667 -5.66699 30 -17s11 -25 11 -41c0 -27.333 -9 -45 -27 -53c-20.667 -14 -37.667 -31.5 -51 -52.5s-20 -41.5 -20 -61.5c0 -31.333 20 -47 60 -47
c15.333 0 23 -9.66699 23 -29c0 -17.333 -9.66699 -26 -29 -26c-37.333 0 -66.166 8.16699 -86.499 24.5s-30.5 38.166 -30.5 65.499c0 45.333 20 86.333 60 123h-296c-15.333 0 -28.666 3.66699 -39.999 11s-17 17.333 -17 30z" />
    <glyph glyph-name="eogonek" unicode="&#x119;" horiz-adv-x="484" 
d="M32 196v85c0 54.667 21.333 101.667 64 141s94.334 59 155.001 59c56.667 0 105.167 -17.833 145.5 -53.5s60.5 -80.5 60.5 -134.5c0 -20 -2.5 -36.5 -7.5 -49.5s-12.667 -22.167 -23 -27.5s-19.833 -8.66602 -28.5 -9.99902s-20 -2 -34 -2h-203v-15
c0 -28.667 10.667 -51.834 32 -69.501s49.666 -26.5 84.999 -26.5c25.333 0 50.333 6.33301 75 19s40.667 19 48 19c14 0 25.667 -6.5 35 -19.5s14 -25.5 14 -37.5c0 -10 -5.83301 -20.667 -17.5 -32s-27.167 -21.333 -46.5 -30c-22.667 -14 -41.334 -32 -56.001 -54
s-22 -43.333 -22 -64c0 -31.333 20 -47 60 -47c15.333 0 23 -9.66699 23 -29c0 -17.333 -9.66699 -26 -29 -26c-37.333 0 -66.166 8.16699 -86.499 24.5s-30.5 38.166 -30.5 65.499c0 38.667 15.333 75.334 46 110.001c-3.33301 -0.666992 -9 -1 -17 -1
c-71.333 0 -129.5 18.833 -174.5 56.5s-67.5 87.167 -67.5 148.5zM161 280l145.999 -0.00195312c10.667 0 18.167 1.83301 22.5 5.5s6.5 10.834 6.5 21.501c0 23.333 -8.5 42.333 -25.5 57s-37.833 22 -62.5 22c-23.333 0 -43.666 -7.16699 -60.999 -21.5
s-26 -33.166 -26 -56.499v-28z" />
    <glyph glyph-name="Ecaron" unicode="&#x11a;" horiz-adv-x="530" 
d="M60 41v649c0 12.667 5.66699 22.667 17 30s24.666 11 39.999 11h356c13.333 0 23.5 -5.66699 30.5 -17s10.5 -24.333 10.5 -39c0 -16 -3.66699 -29.667 -11 -41s-17.333 -17 -30 -17h-283v-200h152c12.667 0 22.667 -5.16699 30 -15.5s11 -22.5 11 -36.5
c0 -12.667 -3.5 -24.167 -10.5 -34.5s-17.167 -15.5 -30.5 -15.5h-152v-201h283c12.667 0 22.667 -5.66699 30 -17s11 -25 11 -41c0 -14.667 -3.5 -27.667 -10.5 -39s-17.167 -17 -30.5 -17h-356c-15.333 0 -28.666 3.66699 -39.999 11s-17 17.333 -17 30zM143 936
c0 10 2.66699 19 8 27s12 12 20 12c4.66699 0 8.66699 -1.33301 12 -4l103 -66l102 66c4.66699 2.66699 8.66699 4 12 4c8 0 14.667 -4 20 -12s8 -17 8 -27c0 -16.667 -7 -29.334 -21 -38.001l-103 -66c-6.66699 -4 -12.667 -6 -18 -6c-6 0 -12 2 -18 6l-103 66
c-14.667 8.66699 -22 21.334 -22 38.001z" />
    <glyph glyph-name="ecaron" unicode="&#x11b;" horiz-adv-x="484" 
d="M32 196v85c0 54.667 21.333 101.667 64 141s94.334 59 155.001 59c56.667 0 105.167 -17.833 145.5 -53.5s60.5 -80.5 60.5 -134.5c0 -20 -2.5 -36.5 -7.5 -49.5s-12.667 -22.167 -23 -27.5s-19.833 -8.66602 -28.5 -9.99902s-20 -2 -34 -2h-203v-15
c0 -28.667 10.667 -51.834 32 -69.501s49.666 -26.5 84.999 -26.5c25.333 0 50.333 6.33301 75 19s40.667 19 48 19c14 0 25.667 -6.5 35 -19.5s14 -25.5 14 -37.5c0 -18.667 -16.833 -37.167 -50.5 -55.5s-75.5 -27.5 -125.5 -27.5c-71.333 0 -129.5 18.833 -174.5 56.5
s-67.5 87.167 -67.5 148.5zM108 693c0 10 2.66699 19 8 27s12 12 20 12c4.66699 0 8.66699 -1.33301 12 -4l103 -66l102 66c4.66699 2.66699 8.66699 4 12 4c8 0 14.667 -4 20 -12s8 -17 8 -27c0 -16.667 -7 -29.334 -21 -38.001l-103 -66c-7.33301 -4 -13.333 -6 -18 -6
c-6 0 -12 2 -18 6l-103 66c-14.667 8.66699 -22 21.334 -22 38.001zM161 280l145.999 -0.00195312c10.667 0 18.167 1.83301 22.5 5.5s6.5 10.834 6.5 21.501c0 23.333 -8.5 42.333 -25.5 57s-37.833 22 -62.5 22c-23.333 0 -43.666 -7.16699 -60.999 -21.5
s-26 -33.166 -26 -56.499v-28z" />
    <glyph glyph-name="Gcircumflex" unicode="&#x11c;" horiz-adv-x="564" 
d="M52 223l0.000976562 279.002c0 78.667 21.167 136.5 63.5 173.5s97.833 55.5 166.5 55.5c70.667 0 128.167 -17.333 172.5 -52s66.5 -81.334 66.5 -140.001c0 -24 -5.16699 -40.333 -15.5 -49s-26.833 -13 -49.5 -13c-42.667 0 -64.334 13.667 -65.001 41
c-2 29.333 -10.333 53.166 -25 71.499s-41 27.5 -79 27.5c-70 0 -105 -38.333 -105 -115v-279c0 -76.667 34.667 -115 104 -115c33.333 0 59.166 9.66699 77.499 29s27.5 48 27.5 86v59h-81c-12.667 0 -22.5 5 -29.5 15s-10.5 22 -10.5 36
c0 13.333 3.66699 25.166 11 35.499s17 15.5 29 15.5h170c12.667 0 22.667 -4.16699 30 -12.5s11 -18.166 11 -29.499v-119c0 -79.333 -21.333 -137.333 -64 -174s-99.667 -55 -171 -55s-128.166 18.333 -170.499 55s-63.5 94.667 -63.5 174zM131.001 859.002
c0 17.333 7.33203 29.667 21.999 37l104 56c5.33301 3.33301 11 5 17 5c4.66699 0 10.334 -1.66699 17.001 -5l104 -55c14 -8.66699 21 -21.667 21 -39c0 -10 -2.66699 -19 -8 -27s-12 -12 -20 -12c-4 0 -7.33301 1 -10 3l-104 56l-104 -56c-4 -2 -7.66699 -3 -11 -3
c-8 0 -14.667 4 -20 12s-8 17.333 -8 28z" />
    <glyph glyph-name="gcircumflex" unicode="&#x11d;" horiz-adv-x="470" 
d="M15 -80c0 46 24.334 81.334 73.001 106.001c-28 13.333 -42 34.666 -42 63.999s17 55.333 51 78c-41.333 32 -62 74.333 -62 127v21c0 48.667 18 88.334 54 119.001s83 46 141 46c44 0 82 -9.66699 114 -29c20 45.333 40.333 68 61 68
c15.333 0 27.666 -4.33301 36.999 -13s14 -17.667 14 -27c0 -10.667 -5.33301 -20 -16 -28c-24.667 -17.333 -40.334 -30 -47.001 -38c23.333 -27.333 35 -60 35 -98v-21c0 -48 -18.5 -87.833 -55.5 -119.5s-84.5 -47.5 -142.5 -47.5c-24 0 -45.667 3 -65 9
c-8 -6.66699 -12 -13.334 -12 -20.001c0 -11.333 10.333 -19.666 31 -24.999s45.834 -9.83301 75.501 -13.5s59.167 -9 88.5 -16s54.333 -21.167 75 -42.5s31 -49.333 31 -84c0 -52 -21 -91.167 -63 -117.5s-93.667 -39.5 -155 -39.5c-62 0 -114.333 12.667 -157 38
s-64 59.666 -64 102.999zM92.001 616.001c0 17.333 7.33105 29.667 21.998 37l104 56c5.33301 3.33301 11 5 17 5c4.66699 0 10.334 -1.66699 17.001 -5l104 -55c14 -8.66699 21 -21.667 21 -39c0 -10 -2.66699 -19 -8 -27s-12 -12 -20 -12
c-3.33301 0 -6.66602 1 -9.99902 3l-104 56l-104 -56c-4 -2 -7.66699 -3 -11 -3c-8 0 -14.667 4 -20 12s-8 17.333 -8 28zM136.999 -66.998c0 -22 9.33008 -39.333 27.9971 -52s41.667 -19 69 -19s50 6.33301 68 19s27 29.667 27 51c0 9.33301 -1.66699 17.5 -5 24.5
s-9.16602 12.833 -17.499 17.5s-15.666 8.5 -21.999 11.5s-16.5 5.66699 -30.5 8s-24.167 3.83301 -30.5 4.5s-17.166 2 -32.499 4c-36 -16.667 -54 -39.667 -54 -69zM159.996 296.002c0 -26 6.33203 -47.502 18.999 -64.502s30.334 -25.5 53.001 -25.5
c22 0 39.333 8.16699 52 24.5s19 37.833 19 64.5v21c0 24.667 -6.5 45.334 -19.5 62.001s-30.5 25 -52.5 25s-39.333 -8.16699 -52 -24.5s-19 -37.166 -19 -62.499v-20z" />
    <glyph glyph-name="Gbreve" unicode="&#x11e;" horiz-adv-x="564" 
d="M52 223l0.000976562 279.002c0 78.667 21.167 136.5 63.5 173.5s97.833 55.5 166.5 55.5c70.667 0 128.167 -17.333 172.5 -52s66.5 -81.334 66.5 -140.001c0 -24 -5.16699 -40.333 -15.5 -49s-26.833 -13 -49.5 -13c-42.667 0 -64.334 13.667 -65.001 41
c-2 29.333 -10.333 53.166 -25 71.499s-41 27.5 -79 27.5c-70 0 -105 -38.333 -105 -115v-279c0 -76.667 34.667 -115 104 -115c33.333 0 59.166 9.66699 77.499 29s27.5 48 27.5 86v59h-81c-12.667 0 -22.5 5 -29.5 15s-10.5 22 -10.5 36
c0 13.333 3.66699 25.166 11 35.499s17 15.5 29 15.5h170c12.667 0 22.667 -4.16699 30 -12.5s11 -18.166 11 -29.499v-119c0 -79.333 -21.333 -137.333 -64 -174s-99.667 -55 -171 -55s-128.166 18.333 -170.499 55s-63.5 94.667 -63.5 174zM152.001 964.002h69.999
c0 -21.333 6.33301 -39.166 19 -53.499s27.334 -21.5 44.001 -21.5c16 0 30.5 7.16699 43.5 21.5s19.5 32.166 19.5 53.499h70c0 -35.333 -13.5 -66.333 -40.5 -93s-57.833 -40 -92.5 -40s-65.5 13.333 -92.5 40s-40.5 57.667 -40.5 93z" />
    <glyph glyph-name="gbreve" unicode="&#x11f;" horiz-adv-x="470" 
d="M15 -80c0 46 24.334 81.334 73.001 106.001c-28 13.333 -42 34.666 -42 63.999s17 55.333 51 78c-41.333 32 -62 74.333 -62 127v21c0 48.667 18 88.334 54 119.001s83 46 141 46c44 0 82 -9.66699 114 -29c20 45.333 40.333 68 61 68
c15.333 0 27.666 -4.33301 36.999 -13s14 -17.667 14 -27c0 -10.667 -5.33301 -20 -16 -28c-24.667 -17.333 -40.334 -30 -47.001 -38c23.333 -27.333 35 -60 35 -98v-21c0 -48 -18.5 -87.833 -55.5 -119.5s-84.5 -47.5 -142.5 -47.5c-24 0 -45.667 3 -65 9
c-8 -6.66699 -12 -13.334 -12 -20.001c0 -11.333 10.333 -19.666 31 -24.999s45.834 -9.83301 75.501 -13.5s59.167 -9 88.5 -16s54.333 -21.167 75 -42.5s31 -49.333 31 -84c0 -52 -21 -91.167 -63 -117.5s-93.667 -39.5 -155 -39.5c-62 0 -114.333 12.667 -157 38
s-64 59.666 -64 102.999zM101.001 721.001h69.999c0 -21.333 6.33301 -39.166 19 -53.499s27.334 -21.5 44.001 -21.5c16 0 30.5 7.16699 43.5 21.5s19.5 32.166 19.5 53.499h70c0 -35.333 -13.5 -66.333 -40.5 -93s-57.833 -40 -92.5 -40s-65.5 13.333 -92.5 40
s-40.5 57.667 -40.5 93zM137 -66.999c0 -22 9.33008 -39.333 27.9971 -52s41.667 -19 69 -19s50 6.33301 68 19s27 29.667 27 51c0 9.33301 -1.66699 17.5 -5 24.5s-9.16602 12.833 -17.499 17.5s-15.666 8.5 -21.999 11.5s-16.5 5.66699 -30.5 8s-24.167 3.83301 -30.5 4.5
s-17.166 2 -32.499 4c-36 -16.667 -54 -39.667 -54 -69zM159.997 296.001c0 -26 6.33203 -47.502 18.999 -64.502s30.334 -25.5 53.001 -25.5c22 0 39.333 8.16699 52 24.5s19 37.833 19 64.5v21c0 24.667 -6.5 45.334 -19.5 62.001s-30.5 25 -52.5 25
s-39.333 -8.16699 -52 -24.5s-19 -37.166 -19 -62.499v-20z" />
    <glyph glyph-name="Gdotaccent" unicode="&#x120;" horiz-adv-x="564" 
d="M52 223l0.000976562 279.002c0 78.667 21.167 136.5 63.5 173.5s97.833 55.5 166.5 55.5c70.667 0 128.167 -17.333 172.5 -52s66.5 -81.334 66.5 -140.001c0 -24 -5.16699 -40.333 -15.5 -49s-26.833 -13 -49.5 -13c-42.667 0 -64.334 13.667 -65.001 41
c-2 29.333 -10.333 53.166 -25 71.499s-41 27.5 -79 27.5c-70 0 -105 -38.333 -105 -115v-279c0 -76.667 34.667 -115 104 -115c33.333 0 59.166 9.66699 77.499 29s27.5 48 27.5 86v59h-81c-12.667 0 -22.5 5 -29.5 15s-10.5 22 -10.5 36
c0 13.333 3.66699 25.166 11 35.499s17 15.5 29 15.5h170c12.667 0 22.667 -4.16699 30 -12.5s11 -18.166 11 -29.499v-119c0 -79.333 -21.333 -137.333 -64 -174s-99.667 -55 -171 -55s-128.166 18.333 -170.499 55s-63.5 94.667 -63.5 174zM232.001 873.002
c0 14 5 26.167 15 36.5s22 15.5 36 15.5s25.833 -5.16699 35.5 -15.5s14.5 -22.5 14.5 -36.5s-4.83301 -26.333 -14.5 -37s-21.5 -16 -35.5 -16s-26 5.33301 -36 16s-15 23 -15 37z" />
    <glyph glyph-name="gdotaccent" unicode="&#x121;" horiz-adv-x="470" 
d="M15 -80c0 46 24.334 81.334 73.001 106.001c-28 13.333 -42 34.666 -42 63.999s17 55.333 51 78c-41.333 32 -62 74.333 -62 127v21c0 48.667 18 88.334 54 119.001s83 46 141 46c44 0 82 -9.66699 114 -29c20 45.333 40.333 68 61 68
c15.333 0 27.666 -4.33301 36.999 -13s14 -17.667 14 -27c0 -10.667 -5.33301 -20 -16 -28c-24.667 -17.333 -40.334 -30 -47.001 -38c23.333 -27.333 35 -60 35 -98v-21c0 -48 -18.5 -87.833 -55.5 -119.5s-84.5 -47.5 -142.5 -47.5c-24 0 -45.667 3 -65 9
c-8 -6.66699 -12 -13.334 -12 -20.001c0 -11.333 10.333 -19.666 31 -24.999s45.834 -9.83301 75.501 -13.5s59.167 -9 88.5 -16s54.333 -21.167 75 -42.5s31 -49.333 31 -84c0 -52 -21 -91.167 -63 -117.5s-93.667 -39.5 -155 -39.5c-62 0 -114.333 12.667 -157 38
s-64 59.666 -64 102.999zM137.001 -66.999c0 -22 9.33008 -39.333 27.9971 -52s41.667 -19 69 -19s50 6.33301 68 19s27 29.667 27 51c0 9.33301 -1.66699 17.5 -5 24.5s-9.16602 12.833 -17.499 17.5s-15.666 8.5 -21.999 11.5s-16.5 5.66699 -30.5 8
s-24.167 3.83301 -30.5 4.5s-17.166 2 -32.499 4c-36 -16.667 -54 -39.667 -54 -69zM159.998 296.001c0 -26 6.33203 -47.502 18.999 -64.502s30.334 -25.5 53.001 -25.5c22 0 39.333 8.16699 52 24.5s19 37.833 19 64.5v21c0 24.667 -6.5 45.334 -19.5 62.001
s-30.5 25 -52.5 25s-39.333 -8.16699 -52 -24.5s-19 -37.166 -19 -62.499v-20zM182.997 629.999c0 14 5 26.167 15 36.5s22 15.5 36 15.5s25.833 -5.16699 35.5 -15.5s14.5 -22.5 14.5 -36.5s-4.83301 -26.333 -14.5 -37s-21.5 -16 -35.5 -16s-26 5.33301 -36 16
s-15 23 -15 37z" />
    <glyph glyph-name="Gcommaaccent" unicode="&#x122;" horiz-adv-x="564" 
d="M52 223l0.000976562 279.002c0 78.667 21.167 136.5 63.5 173.5s97.833 55.5 166.5 55.5c70.667 0 128.167 -17.333 172.5 -52s66.5 -81.334 66.5 -140.001c0 -24 -5.16699 -40.333 -15.5 -49s-26.833 -13 -49.5 -13c-42.667 0 -64.334 13.667 -65.001 41
c-2 29.333 -10.333 53.166 -25 71.499s-41 27.5 -79 27.5c-70 0 -105 -38.333 -105 -115v-279c0 -76.667 34.667 -115 104 -115c33.333 0 59.166 9.66699 77.499 29s27.5 48 27.5 86v59h-81c-12.667 0 -22.5 5 -29.5 15s-10.5 22 -10.5 36
c0 13.333 3.66699 25.166 11 35.499s17 15.5 29 15.5h170c12.667 0 22.667 -4.16699 30 -12.5s11 -18.166 11 -29.499v-119c0 -79.333 -21.333 -137.333 -64 -174s-99.667 -55 -171 -55s-128.166 18.333 -170.499 55s-63.5 94.667 -63.5 174zM184.001 -144.998
c0 14 5.66797 23.999 17.001 29.999l132 64c4.66699 2 9 3 13 3c10.667 0 20 -5.16699 28 -15.5s12 -21.5 12 -33.5c0 -15.333 -6 -25.666 -18 -30.999l-130 -62c-6.66699 -2.66699 -11.334 -4 -14.001 -4c-10.667 0 -20 5.33301 -28 16s-12 21.667 -12 33z" />
    <glyph glyph-name="gcommaaccent" unicode="&#x123;" horiz-adv-x="470" 
d="M15 -80c0 46 24.334 81.334 73.001 106.001c-28 13.333 -42 34.666 -42 63.999s17 55.333 51 78c-41.333 32 -62 74.333 -62 127v21c0 48.667 18 88.334 54 119.001s83 46 141 46c44 0 82 -9.66699 114 -29c20 45.333 40.333 68 61 68
c15.333 0 27.666 -4.33301 36.999 -13s14 -17.667 14 -27c0 -10.667 -5.33301 -20 -16 -28c-24.667 -17.333 -40.334 -30 -47.001 -38c23.333 -27.333 35 -60 35 -98v-21c0 -48 -18.5 -87.833 -55.5 -119.5s-84.5 -47.5 -142.5 -47.5c-24 0 -45.667 3 -65 9
c-8 -6.66699 -12 -13.334 -12 -20.001c0 -11.333 10.333 -19.666 31 -24.999s45.834 -9.83301 75.501 -13.5s59.167 -9 88.5 -16s54.333 -21.167 75 -42.5s31 -49.333 31 -84c0 -52 -21 -91.167 -63 -117.5s-93.667 -39.5 -155 -39.5c-62 0 -114.333 12.667 -157 38
s-64 59.666 -64 102.999zM137.001 -66.999c0 -22 9.33008 -39.333 27.9971 -52s41.667 -19 69 -19s50 6.33301 68 19s27 29.667 27 51c0 9.33301 -1.66699 17.5 -5 24.5s-9.16602 12.833 -17.499 17.5s-15.666 8.5 -21.999 11.5s-16.5 5.66699 -30.5 8
s-24.167 3.83301 -30.5 4.5s-17.166 2 -32.499 4c-36 -16.667 -54 -39.667 -54 -69zM147.998 617.001c0 15.333 5.66797 25.667 17.001 31l132 64c6.66699 1.33301 11 2 13 2c10.667 0 20 -5.16699 28 -15.5s12 -21.5 12 -33.5c0 -14.667 -6 -24.667 -18 -30l-130 -63
c-6.66699 -2.66699 -11.334 -4 -14.001 -4c-10.667 0 -20 5.33301 -28 16s-12 21.667 -12 33zM159.999 296.002c0 -26 6.33203 -47.502 18.999 -64.502s30.334 -25.5 53.001 -25.5c22 0 39.333 8.16699 52 24.5s19 37.833 19 64.5v21c0 24.667 -6.5 45.334 -19.5 62.001
s-30.5 25 -52.5 25s-39.333 -8.16699 -52 -24.5s-19 -37.166 -19 -62.499v-20zM169.998 837c0 12 18.666 60.999 55.999 146.999c4.66699 10.667 13.334 16 26.001 16c10 0 19.667 -3.16699 29 -9.5s14 -14.5 14 -24.5c0 -3.33301 -1 -8 -3 -14l-24 -53
c24.667 -13.333 37 -33.666 37 -60.999c0 -18.667 -6.5 -34.667 -19.5 -48s-28.833 -20 -47.5 -20s-34.667 6.66699 -48 20s-20 29 -20 47z" />
    <glyph glyph-name="Hcircumflex" unicode="&#x124;" horiz-adv-x="605" 
d="M60 41v650c0 13.333 6.33301 23.333 19 30s28 10 46 10s33.333 -3.33301 46 -10s19 -16.667 19 -30v-261h225v261c0 13.333 6.33301 23.333 19 30s28 10 46 10s33.333 -3.33301 46 -10s19 -16.667 19 -30v-650c0 -12.667 -6.5 -22.667 -19.5 -30s-28.167 -11 -45.5 -11
c-18 0 -33.333 3.66699 -46 11s-19 17.333 -19 30v287h-225v-287c0 -12.667 -6.5 -22.667 -19.5 -30s-28.167 -11 -45.5 -11c-18 0 -33.333 3.66699 -46 11s-19 17.333 -19 30zM160 859c0 17.333 7.33105 29.667 21.998 37l104 56c5.33301 3.33301 11 5 17 5
c4.66699 0 10.334 -1.66699 17.001 -5l104 -55c14 -8.66699 21 -21.667 21 -39c0 -10 -2.66699 -19 -8 -27s-12 -12 -20 -12c-3.33301 0 -6.66602 1 -9.99902 3l-104 56l-104 -56c-4 -2 -7.66699 -3 -11 -3c-8 0 -14.667 4 -20 12s-8 17.333 -8 28z" />
    <glyph glyph-name="hcircumflex" unicode="&#x125;" 
d="M-30 871c0 17.333 7.33105 29.667 21.998 37l104 56c5.33301 3.33301 11 5 17 5c4.66699 0 10.334 -1.66699 17.001 -5l104 -55c14 -8.66699 21 -21.667 21 -39c0 -10 -2.66699 -19 -8 -27s-12 -12 -20 -12c-3.33301 0 -6.66602 1 -9.99902 3l-104 56l-104 -56
c-4 -2 -7.66699 -3 -11 -3c-8 0 -14.667 4 -20 12s-8 17.333 -8 28zM50.998 41.001l-0.000976562 671c0 12 5.83301 21.667 17.5 29s27.167 11 46.5 11c18 0 33.333 -3.66699 46 -11s19 -17 19 -29v-307c10 21.333 26 39.333 48 54s48 22 78 22c46 0 86.167 -20 120.5 -60
s51.5 -87.667 51.5 -143v-237c0 -12.667 -6.5 -22.667 -19.5 -30s-28.167 -11 -45.5 -11c-16.667 0 -31.5 3.66699 -44.5 11s-19.5 17.333 -19.5 30v237c0 22.667 -8.66699 43.334 -26 62.001s-37.666 28 -60.999 28c-22 0 -41.167 -8.33301 -57.5 -25
s-24.5 -38.334 -24.5 -65.001v-237c0 -10 -6.5 -19.333 -19.5 -28s-28.167 -13 -45.5 -13c-18 0 -33.167 4.16699 -45.5 12.5s-18.5 17.833 -18.5 28.5z" />
    <glyph glyph-name="Hbar" unicode="&#x126;" horiz-adv-x="610" 
d="M17 576c0 11.333 3 21.333 9 30s14 13 24 13h13v72c0 13.333 6.33301 23.333 19 30s28 10 46 10s33.333 -3.33301 46 -10s19 -16.667 19 -30v-72h225v72c0 13.333 6.33301 23.333 19 30s28 10 46 10s33.333 -3.33301 46 -10s19 -16.667 19 -30v-72h11
c10 0 18 -4.33301 24 -13s9 -18.667 9 -30s-3 -21.166 -9 -29.499s-14 -12.5 -24 -12.5h-11v-493c0 -12.667 -6.5 -22.667 -19.5 -30s-28.167 -11 -45.5 -11c-18 0 -33.333 3.66699 -46 11s-19 17.333 -19 30v287h-225v-287c0 -12.667 -6.5 -22.667 -19.5 -30
s-28.167 -11 -45.5 -11c-18 0 -33.333 3.66699 -46 11s-19 17.333 -19 30v493h-13c-10 0 -18 4.16699 -24 12.5s-9 18.166 -9 29.499zM193 430h225v104h-225v-104z" />
    <glyph glyph-name="hbar" unicode="&#x127;" 
d="M-15 597c0 12 3.66602 22.166 10.999 30.499s17 12.5 29 12.5h26v72c0 12 5.83301 21.667 17.5 29s27.167 11 46.5 11c18 0 33.333 -3.66699 46 -11s19 -17 19 -29v-72h50c10.667 0 20.167 -4.16699 28.5 -12.5s12.5 -18.5 12.5 -30.5s-4.16699 -22 -12.5 -30
s-17.833 -12 -28.5 -12h-50v-150c10 21.333 26 39.333 48 54s48 22 78 22c46 0 86.167 -20 120.5 -60s51.5 -87.667 51.5 -143v-237c0 -12.667 -6.5 -22.667 -19.5 -30s-28.167 -11 -45.5 -11c-16.667 0 -31.5 3.66699 -44.5 11s-19.5 17.333 -19.5 30v237
c0 22.667 -8.66699 43.334 -26 62.001s-37.666 28 -60.999 28c-22 0 -41.167 -8.33301 -57.5 -25s-24.5 -38.334 -24.5 -65.001v-237c0 -10 -6.5 -19.333 -19.5 -28s-28.167 -13 -45.5 -13c-18 0 -33.167 4.16699 -45.5 12.5s-18.5 17.833 -18.5 28.5v514h-26
c-12 0 -21.667 3.83301 -29 11.5s-11 17.834 -11 30.501z" />
    <glyph glyph-name="Itilde" unicode="&#x128;" horiz-adv-x="250" 
d="M-46 878c0 18.667 6 33.5 18 44.5s23.5 17.667 34.5 20s22.167 3.5 33.5 3.5c20 0 44.333 -4.83301 73 -14.5s51.667 -14.5 69 -14.5c16 0 32.167 4 48.5 12s27.166 12 32.499 12c11.333 0 19.666 -5 24.999 -15s8 -19 8 -27c0 -14.667 -3.16699 -26.834 -9.5 -36.501
s-14.666 -16.667 -24.999 -21s-19.5 -7.16602 -27.5 -8.49902s-15.667 -2 -23 -2c-23.333 0 -49 4.83301 -77 14.5s-49.667 14.5 -65 14.5c-16 0 -32.333 -4 -49 -12s-27.667 -12 -33 -12c-11.333 0 -19.666 5 -24.999 15s-8 19 -8 27zM60 41v650
c0 13.333 6.33301 23.333 19 30s28 10 46 10s33.333 -3.33301 46 -10s19 -16.667 19 -30v-650c0 -12.667 -6.5 -22.667 -19.5 -30s-28.167 -11 -45.5 -11c-18 0 -33.333 3.66699 -46 11s-19 17.333 -19 30z" />
    <glyph glyph-name="itilde" unicode="&#x129;" horiz-adv-x="229" 
d="M-56 635c0 18.667 6 33.5 18 44.5s23.5 17.667 34.5 20s22.167 3.5 33.5 3.5c20 0 44.333 -4.83301 73 -14.5s51.667 -14.5 69 -14.5c16 0 32.167 4 48.5 12s27.166 12 32.499 12c11.333 0 19.666 -5 24.999 -15s8 -19 8 -27c0 -14.667 -3.16699 -26.834 -9.5 -36.501
s-14.666 -16.667 -24.999 -21s-19.5 -7.16602 -27.5 -8.49902s-15.667 -2 -23 -2c-23.333 0 -49 4.83301 -77 14.5s-49.667 14.5 -65 14.5c-16 0 -32.333 -4 -49 -12s-27.667 -12 -33 -12c-11.333 0 -19.666 5 -24.999 15s-8 19 -8 27zM50 41v394c0 12 6 21.667 18 29
s27.333 11 46 11s34.167 -3.66699 46.5 -11s18.5 -17 18.5 -29v-394c0 -10 -6.5 -19.333 -19.5 -28s-28.167 -13 -45.5 -13c-18 0 -33.167 4.16699 -45.5 12.5s-18.5 17.833 -18.5 28.5z" />
    <glyph glyph-name="Imacron" unicode="&#x12a;" horiz-adv-x="250" 
d="M-19 895c0 12 3.66699 22.166 11 30.499s17 12.5 29 12.5h205c10.667 0 20.167 -4.16699 28.5 -12.5s12.5 -18.5 12.5 -30.5s-4.16699 -22 -12.5 -30s-17.833 -12 -28.5 -12h-205c-12 0 -21.667 3.83301 -29 11.5s-11 17.834 -11 30.501zM60 40.999v650
c0 13.333 6.33301 23.333 19 30s28 10 46 10s33.333 -3.33301 46 -10s19 -16.667 19 -30v-650c0 -12.667 -6.5 -22.667 -19.5 -30s-28.167 -11 -45.5 -11c-18 0 -33.333 3.66699 -46 11s-19 17.333 -19 30z" />
    <glyph glyph-name="imacron" unicode="&#x12b;" horiz-adv-x="229" 
d="M-28 652c0 12 3.66699 22.166 11 30.499s17 12.5 29 12.5h205c10.667 0 20.167 -4.16699 28.5 -12.5s12.5 -18.5 12.5 -30.5s-4.16699 -22 -12.5 -30s-17.833 -12 -28.5 -12h-205c-12 0 -21.667 3.83301 -29 11.5s-11 17.834 -11 30.501zM50 40.999v394
c0 12 6 21.667 18 29s27.333 11 46 11s34.167 -3.66699 46.5 -11s18.5 -17 18.5 -29v-394c0 -10 -6.5 -19.333 -19.5 -28s-28.167 -13 -45.5 -13c-18 0 -33.167 4.16699 -45.5 12.5s-18.5 17.833 -18.5 28.5z" />
    <glyph glyph-name="Ibreve" unicode="&#x12c;" horiz-adv-x="250" 
d="M-8 964h69.999c0 -21.333 6.33301 -39.166 19 -53.499s27.334 -21.5 44.001 -21.5c16 0 30.5 7.16699 43.5 21.5s19.5 32.166 19.5 53.499h70c0 -35.333 -13.5 -66.333 -40.5 -93s-57.833 -40 -92.5 -40s-65.5 13.333 -92.5 40s-40.5 57.667 -40.5 93zM59.999 41v650
c0 13.333 6.33301 23.333 19 30s28 10 46 10s33.333 -3.33301 46 -10s19 -16.667 19 -30v-650c0 -12.667 -6.5 -22.667 -19.5 -30s-28.167 -11 -45.5 -11c-18 0 -33.333 3.66699 -46 11s-19 17.333 -19 30z" />
    <glyph glyph-name="ibreve" unicode="&#x12d;" horiz-adv-x="229" 
d="M-18 721h69.999c0 -21.333 6.33301 -39.166 19 -53.499s27.334 -21.5 44.001 -21.5c16 0 30.5 7.16699 43.5 21.5s19.5 32.166 19.5 53.499h70c0 -35.333 -13.5 -66.333 -40.5 -93s-57.833 -40 -92.5 -40s-65.5 13.333 -92.5 40s-40.5 57.667 -40.5 93zM49.999 41v394
c0 12 6 21.667 18 29s27.333 11 46 11s34.167 -3.66699 46.5 -11s18.5 -17 18.5 -29v-394c0 -10 -6.5 -19.333 -19.5 -28s-28.167 -13 -45.5 -13c-18 0 -33.167 4.16699 -45.5 12.5s-18.5 17.833 -18.5 28.5z" />
    <glyph glyph-name="Iogonek" unicode="&#x12e;" horiz-adv-x="250" 
d="M23 -122c0 48.667 21.666 91.334 64.999 128.001c-18.667 6.66699 -28 18.334 -28 35.001v650c0 13.333 6.33301 23.333 19 30s28 10 46 10s33.333 -3.33301 46 -10s19 -16.667 19 -30v-650c0 -14.667 -9.66699 -26.334 -29 -35.001c-22 -13.333 -40 -31 -54 -53
s-21 -43 -21 -63c0 -31.333 20 -47 60 -47c15.333 0 23 -9.66699 23 -29c0 -17.333 -9.66699 -26 -29 -26c-37.333 0 -66.166 8.16699 -86.499 24.5s-30.5 38.166 -30.5 65.499z" />
    <glyph glyph-name="iogonek" unicode="&#x12f;" horiz-adv-x="229" 
d="M10 -123c0 50 22.667 93.333 68 130c-18.667 8.66699 -28 20 -28 34v394c0 12 6 21.667 18 29s27.333 11 46 11s34.167 -3.66699 46.5 -11s18.5 -17 18.5 -29v-394c0 -13.333 -9.33301 -24.666 -28 -33.999c-22.667 -14 -41.334 -32 -56.001 -54s-22 -43.333 -22 -64
c0 -31.333 20 -47 60 -47c15.333 0 23 -9.66699 23 -29c0 -17.333 -9.66699 -26 -29 -26c-37.333 0 -66.166 8.16699 -86.499 24.5s-30.5 38.166 -30.5 65.499zM43 644c0 17.333 6.83301 32.166 20.5 44.499s30.5 18.5 50.5 18.5c19.333 0 35.833 -6.16699 49.5 -18.5
s20.5 -27.166 20.5 -44.499c0 -16.667 -6.83301 -31.334 -20.5 -44.001s-30.167 -19 -49.5 -19c-20 0 -36.833 6.33301 -50.5 19s-20.5 27.334 -20.5 44.001z" />
    <glyph glyph-name="Idotaccent" unicode="&#x130;" horiz-adv-x="250" 
d="M60 41v650c0 13.333 6.33301 23.333 19 30s28 10 46 10s33.333 -3.33301 46 -10s19 -16.667 19 -30v-650c0 -12.667 -6.5 -22.667 -19.5 -30s-28.167 -11 -45.5 -11c-18 0 -33.333 3.66699 -46 11s-19 17.333 -19 30zM75 873c0 14 5 26.167 15 36.5s22 15.5 36 15.5
s25.833 -5.16699 35.5 -15.5s14.5 -22.5 14.5 -36.5s-4.83301 -26.333 -14.5 -37s-21.5 -16 -35.5 -16s-26 5.33301 -36 16s-15 23 -15 37z" />
    <glyph glyph-name="dotlessi" unicode="&#x131;" horiz-adv-x="229" 
d="M50 41v394c0 12 6 21.667 18 29s27.333 11 46 11s34.167 -3.66699 46.5 -11s18.5 -17 18.5 -29v-394c0 -10 -6.5 -19.333 -19.5 -28s-28.167 -13 -45.5 -13c-18 0 -33.167 4.16699 -45.5 12.5s-18.5 17.833 -18.5 28.5z" />
    <glyph glyph-name="IJ" unicode="&#x132;" horiz-adv-x="781" 
d="M60 41v650c0 13.333 6.33301 23.333 19 30s28 10 46 10s33.333 -3.33301 46 -10s19 -16.667 19 -30v-650c0 -12.667 -6.5 -22.667 -19.5 -30s-28.167 -11 -45.5 -11c-18 0 -33.333 3.66699 -46 11s-19 17.333 -19 30zM255 193c0 24 5 40.5 15 49.5s26.667 13.5 50 13.5
c40.667 0 62.334 -13.667 65.001 -41c2.66699 -71.333 37 -107 103 -107c70.667 0 106 38.333 106 115v394h-102c-12.667 0 -22.667 5.66699 -30 17s-11 25 -11 41c0 15.333 3.5 28.5 10.5 39.5s17.167 16.5 30.5 16.5h175c15.333 0 28.666 -3.66699 39.999 -11
s17 -17.333 17 -30v-467c0 -78.667 -21.167 -136.5 -63.5 -173.5s-97.833 -55.5 -166.5 -55.5c-70.667 0 -128.167 17.833 -172.5 53.5s-66.5 84.167 -66.5 145.5z" />
    <glyph glyph-name="ij" unicode="&#x133;" horiz-adv-x="438" 
d="M43 644c0 17.333 6.83301 32.166 20.5 44.499s30.5 18.5 50.5 18.5c19.333 0 35.833 -6.16699 49.5 -18.5s20.5 -27.166 20.5 -44.499c0 -16.667 -6.83301 -31.334 -20.5 -44.001s-30.167 -19 -49.5 -19c-20 0 -36.833 6.33301 -50.5 19s-20.5 27.334 -20.5 44.001z
M50 41v394c0 12 6 21.667 18 29s27.333 11 46 11s34.167 -3.66699 46.5 -11s18.5 -17 18.5 -29v-394c0 -10 -6.5 -19.333 -19.5 -28s-28.167 -13 -45.5 -13c-18 0 -33.167 4.16699 -45.5 12.5s-18.5 17.833 -18.5 28.5zM169 -168c0 16.667 4.66602 30.166 13.999 40.499
s21 15.5 35 15.5c16.667 0 27.5 6.66699 32.5 20s7.5 33.333 7.5 60v467c0 12 6 21.667 18 29s27 11 45 11c18.667 0 34.334 -3.66699 47.001 -11s19 -17 19 -29v-467c0 -57.333 -13 -103.166 -39 -137.499s-63.333 -51.5 -112 -51.5c-44.667 0 -67 17.667 -67 53z
M250.999 643.999c0 17.333 6.83301 32.166 20.5 44.499s30.5 18.5 50.5 18.5c19.333 0 35.833 -6.16699 49.5 -18.5s20.5 -27.166 20.5 -44.499c0 -16.667 -6.83301 -31.334 -20.5 -44.001s-30.167 -19 -49.5 -19c-20 0 -36.833 6.33301 -50.5 19s-20.5 27.334 -20.5 44.001
z" />
    <glyph glyph-name="Jcircumflex" unicode="&#x134;" horiz-adv-x="539" 
d="M13 193c0 24 5 40.5 15 49.5s26.667 13.5 50 13.5c40.667 0 62.334 -13.667 65.001 -41c2.66699 -71.333 37 -107 103 -107c70.667 0 106 38.333 106 115v394h-102c-12.667 0 -22.667 5.66699 -30 17s-11 25 -11 41c0 15.333 3.5 28.5 10.5 39.5s17.167 16.5 30.5 16.5
h175c15.333 0 28.666 -3.66699 39.999 -11s17 -17.333 17 -30v-467c0 -78.667 -21.167 -136.5 -63.5 -173.5s-97.833 -55.5 -166.5 -55.5c-70.667 0 -128.167 17.833 -172.5 53.5s-66.5 84.167 -66.5 145.5zM128 859c0 17.333 7.33105 29.667 21.998 37l104 56
c5.33301 3.33301 11 5 17 5c4.66699 0 10.334 -1.66699 17.001 -5l104 -55c14 -8.66699 21 -21.667 21 -39c0 -10 -2.66699 -19 -8 -27s-12 -12 -20 -12c-3.33301 0 -6.66602 1 -9.99902 3l-104 56l-104 -56c-4 -2 -7.66699 -3 -11 -3c-8 0 -14.667 4 -20 12
s-8 17.333 -8 28z" />
    <glyph glyph-name="jcircumflex" unicode="&#x135;" horiz-adv-x="231" 
d="M-38 -168c0 16.667 4.66602 30.166 13.999 40.499s21 15.5 35 15.5c16.667 0 27.5 6.66699 32.5 20s7.5 33.333 7.5 60v467c0 12 6 21.667 18 29s27 11 45 11c18.667 0 34.334 -3.66699 47.001 -11s19 -17 19 -29v-467c0 -57.333 -13 -103.166 -39 -137.499
s-63.333 -51.5 -112 -51.5c-44.667 0 -67 17.667 -67 53zM-27.001 615.999c0 17.333 7.33203 29.667 21.999 37l104 56c5.33301 3.33301 11 5 17 5c4.66699 0 10.334 -1.66699 17.001 -5l104 -55c14 -8.66699 21 -21.667 21 -39c0 -10 -2.66699 -19 -8 -27s-12 -12 -20 -12
c-4 0 -7.33301 1 -10 3l-104 56l-104 -56c-4 -2 -7.66699 -3 -11 -3c-8 0 -14.667 4 -20 12s-8 17.333 -8 28z" />
    <glyph glyph-name="Kcommaaccent" unicode="&#x136;" horiz-adv-x="552" 
d="M60 41l-0.00195312 650.001c0 13.333 6.33301 23.333 19 30s28 10 46 10s33.333 -3.33301 46 -10s19 -16.667 19 -30v-273l216 294c9.33301 12.667 21.333 19 36 19c16.667 0 33.334 -7.16699 50.001 -21.5s25 -29.5 25 -45.5c0 -10 -2.66699 -18.333 -8 -25l-179 -224
l218 -332c4.66699 -6.66699 7 -14.334 7 -23.001c0 -16 -8.16699 -30.833 -24.5 -44.5s-34.166 -20.5 -53.499 -20.5c-20 0 -35 8.33301 -45 25l-188 285l-54 -68v-196c0 -12.667 -6.5 -22.667 -19.5 -30s-28.167 -11 -45.5 -11c-18 0 -33.333 3.66699 -46 11
s-19 17.333 -19 30zM178.998 -144.999c0 14 5.66895 23.999 17.002 29.999l132 64c5.33301 2 9.66602 3 12.999 3c10.667 0 20 -5.16699 28 -15.5s12 -21.5 12 -33.5c0 -15.333 -6 -25.666 -18 -30.999l-130 -62c-6.66699 -2.66699 -11.334 -4 -14.001 -4
c-10.667 0 -20 5.33301 -28 16s-12 21.667 -12 33z" />
    <glyph glyph-name="kcommaaccent" unicode="&#x137;" horiz-adv-x="492" 
d="M51 41l-0.00292969 671c0 12 5.83301 21.667 17.5 29s26.834 11 45.501 11s34.334 -3.66699 47.001 -11s19 -17 19 -29v-419l188 177c8 6.66699 16.667 10 26 10c14 0 28 -6.66699 42 -20s21 -27.333 21 -42c0 -8.66699 -3.66699 -16.667 -11 -24l-118 -107l147 -210
c4.66699 -6.66699 7 -13.667 7 -21c0 -14.667 -8.16699 -29 -24.5 -43s-32.5 -21 -48.5 -21c-13.333 0 -24 5.66699 -32 17l-135 199l-62 -57v-110c0 -10 -6.66699 -19.333 -20 -28s-28.666 -13 -45.999 -13c-18 0 -33 4.16699 -45 12.5s-18 17.833 -18 28.5zM143.997 -145
c0 14 5.66797 23.999 17.001 29.999l132 64c4.66699 2 9 3 13 3c10.667 0 20 -5.16699 28 -15.5s12 -21.5 12 -33.5c0 -15.333 -6 -25.666 -18 -30.999l-130 -62c-6.66699 -2.66699 -11.334 -4 -14.001 -4c-10.667 0 -20 5.33301 -28 16s-12 21.667 -12 33z" />
    <glyph glyph-name="kgreenlandic" unicode="&#x138;" horiz-adv-x="491" 
d="M50 41l-0.00292969 394c0 12 5.83301 21.667 17.5 29s26.834 11 45.501 11s34.334 -3.66699 47.001 -11s19 -17 19 -29v-142l188 177c8 6.66699 16.667 10 26 10c14 0 28 -6.66699 42 -20s21 -27.333 21 -42c0 -8.66699 -3.66699 -16.667 -11 -24l-118 -107l147 -210
c4.66699 -6.66699 7 -13.667 7 -21c0 -14.667 -8.16699 -29 -24.5 -43s-32.5 -21 -48.5 -21c-13.333 0 -24 5.66699 -32 17l-135 199l-62 -57v-110c0 -10 -6.66699 -19.333 -20 -28s-28.666 -13 -45.999 -13c-18 0 -33 4.16699 -45 12.5s-18 17.833 -18 28.5z" />
    <glyph glyph-name="Lacute" unicode="&#x139;" horiz-adv-x="484" 
d="M60 41l-0.000976562 649.998c0 13.333 6.33301 23.333 19 30s28 10 46 10s33.333 -3.33301 46 -10s19 -16.667 19 -30v-577h244c12 0 21.5 -5.66699 28.5 -17s10.5 -24.666 10.5 -39.999s-3.5 -28.666 -10.5 -39.999s-16.5 -17 -28.5 -17h-317
c-15.333 0 -28.666 3.66699 -39.999 11s-17 17.333 -17 30zM155.999 859.998c0 14.667 5.66797 25 17.001 31l132 64c6.66699 1.33301 11 2 13 2c10.667 0 20 -5.16699 28 -15.5s12 -21.5 12 -33.5c0 -14.667 -6 -24.667 -18 -30l-130 -63
c-6.66699 -2.66699 -11.334 -4 -14.001 -4c-10.667 0 -20 5.33301 -28 16s-12 21.667 -12 33z" />
    <glyph glyph-name="lacute" unicode="&#x13a;" horiz-adv-x="247" 
d="M46 843c0 15.333 5.66797 25.667 17.001 31l132 64c6.66699 1.33301 11 2 13 2c10.667 0 20 -5.16699 28 -15.5s12 -21.5 12 -33.5c0 -14.667 -6 -24.667 -18 -30l-130 -63c-6.66699 -2.66699 -11.334 -4 -14.001 -4c-10.667 0 -20 5.33301 -28 16s-12 21.667 -12 33z
M59.001 41.001v671c0 12 5.83301 21.667 17.5 29s27.167 11 46.5 11c18 0 33.333 -3.66699 46 -11s19 -17 19 -29v-671c0 -10 -6.5 -19.333 -19.5 -28s-28.167 -13 -45.5 -13c-18 0 -33.167 4.16699 -45.5 12.5s-18.5 17.833 -18.5 28.5z" />
    <glyph glyph-name="Lcommaaccent" unicode="&#x13b;" horiz-adv-x="484" 
d="M60 41l-0.000976562 649.998c0 13.333 6.33301 23.333 19 30s28 10 46 10s33.333 -3.33301 46 -10s19 -16.667 19 -30v-577h244c12 0 21.5 -5.66699 28.5 -17s10.5 -24.666 10.5 -39.999s-3.5 -28.666 -10.5 -39.999s-16.5 -17 -28.5 -17h-317
c-15.333 0 -28.666 3.66699 -39.999 11s-17 17.333 -17 30zM156.999 -145.002c0 14 5.66895 23.999 17.002 29.999l132 64c5.33301 2 9.66602 3 12.999 3c10.667 0 20 -5.16699 28 -15.5s12 -21.5 12 -33.5c0 -15.333 -6 -25.666 -18 -30.999l-130 -62
c-6.66699 -2.66699 -11.334 -4 -14.001 -4c-10.667 0 -20 5.33301 -28 16s-12 21.667 -12 33z" />
    <glyph glyph-name="lcommaaccent" unicode="&#x13c;" horiz-adv-x="247" 
d="M23 -145c0 14 5.66895 23.999 17.002 29.999l132 64c5.33301 2 9.66602 3 12.999 3c10.667 0 20 -5.16699 28 -15.5s12 -21.5 12 -33.5c0 -15.333 -6 -25.666 -18 -30.999l-130 -62c-6.66699 -2.66699 -11.334 -4 -14.001 -4c-10.667 0 -20 5.33301 -28 16
s-12 21.667 -12 33zM59.002 40.999v671c0 12 5.83301 21.667 17.5 29s27.167 11 46.5 11c18 0 33.333 -3.66699 46 -11s19 -17 19 -29v-671c0 -10 -6.5 -19.333 -19.5 -28s-28.167 -13 -45.5 -13c-18 0 -33.167 4.16699 -45.5 12.5s-18.5 17.833 -18.5 28.5z" />
    <glyph glyph-name="Lcaron" unicode="&#x13d;" horiz-adv-x="485" 
d="M60 41l-0.000976562 649.998c0 13.333 6.33301 23.333 19 30s28 10 46 10s33.333 -3.33301 46 -10s19 -16.667 19 -30v-577h244c12 0 21.5 -5.66699 28.5 -17s10.5 -24.666 10.5 -39.999s-3.5 -28.666 -10.5 -39.999s-16.5 -17 -28.5 -17h-317
c-15.333 0 -28.666 3.66699 -39.999 11s-17 17.333 -17 30zM306.999 672.998c0 18.667 6.5 34.667 19.5 48s28.833 20 47.5 20s34.667 -6.66699 48 -20s20 -29 20 -47c0 -12 -18.333 -61 -55 -147c-5.33301 -10.667 -14.333 -16 -27 -16c-10 0 -19.667 3.16699 -29 9.5
s-14 14.5 -14 24.5c0 4.66699 1.33301 9.33398 4 14.001l23 53c-24.667 13.333 -37 33.666 -37 60.999z" />
    <glyph glyph-name="lcaron" unicode="&#x13e;" horiz-adv-x="247" 
d="M59 41v671c0 12 5.83301 21.667 17.5 29s27.167 11 46.5 11c18 0 33.333 -3.66699 46 -11s19 -17 19 -29v-671c0 -10 -6.5 -19.333 -19.5 -28s-28.167 -13 -45.5 -13c-18 0 -33.167 4.16699 -45.5 12.5s-18.5 17.833 -18.5 28.5zM241 673c0 18.667 6.5 34.667 19.5 48
s28.833 20 47.5 20s34.667 -6.66699 48 -20s20 -29 20 -47c0 -12 -18.333 -61 -55 -147c-5.33301 -10.667 -14.333 -16 -27 -16c-10 0 -19.667 3.16699 -29 9.5s-14 14.5 -14 24.5c0 4.66699 1.33301 9.33398 4 14.001l23 53c-24.667 13.333 -37 33.666 -37 60.999z" />
    <glyph glyph-name="Ldot" unicode="&#x13f;" horiz-adv-x="485" 
d="M60 41l-0.000976562 649.998c0 13.333 6.33301 23.333 19 30s28 10 46 10s33.333 -3.33301 46 -10s19 -16.667 19 -30v-577h244c12 0 21.5 -5.66699 28.5 -17s10.5 -24.666 10.5 -39.999s-3.5 -28.666 -10.5 -39.999s-16.5 -17 -28.5 -17h-317
c-15.333 0 -28.666 3.66699 -39.999 11s-17 17.333 -17 30zM295.999 420.998c0 17.333 7 32.166 21 44.499s31 18.5 51 18.5s36.833 -6.16699 50.5 -18.5s20.5 -27.166 20.5 -44.499s-6.83301 -32.333 -20.5 -45s-30.5 -19 -50.5 -19s-37 6.33301 -51 19s-21 27.667 -21 45z
" />
    <glyph glyph-name="ldot" unicode="&#x140;" horiz-adv-x="370" 
d="M59 41v671c0 12 5.83301 21.667 17.5 29s27.167 11 46.5 11c18 0 33.333 -3.66699 46 -11s19 -17 19 -29v-671c0 -10 -6.5 -19.333 -19.5 -28s-28.167 -13 -45.5 -13c-18 0 -33.167 4.16699 -45.5 12.5s-18.5 17.833 -18.5 28.5zM227 300c0 17.333 7 32.166 21 44.499
s31 18.5 51 18.5s36.833 -6.16699 50.5 -18.5s20.5 -27.166 20.5 -44.499s-6.83301 -32.333 -20.5 -45s-30.5 -19 -50.5 -19s-37 6.33301 -51 19s-21 27.667 -21 45z" />
    <glyph glyph-name="Lslash" unicode="&#x141;" horiz-adv-x="490" 
d="M-7 310c0 15.333 5.33203 25.332 15.999 29.999l57 28v323c0 13.333 6.33301 23.333 19 30s28 10 46 10s33.333 -3.33301 46 -10s19 -16.667 19 -30v-260l60 30c2.66699 1.33301 6.66699 2 12 2c11.333 0 21.833 -6.33301 31.5 -19s14.5 -25.334 14.5 -38.001
c0 -14.667 -5.66699 -24.667 -17 -30l-101 -50v-212h244c12 0 21.5 -5.66699 28.5 -17s10.5 -24.666 10.5 -39.999s-3.5 -28.666 -10.5 -39.999s-16.5 -17 -28.5 -17h-317c-15.333 0 -28.666 3.66699 -39.999 11s-17 17.333 -17 30v222l-16 -8c-4 -2 -8 -3 -12 -3
c-12 0 -22.5 6.16699 -31.5 18.5s-13.5 25.5 -13.5 39.5z" />
    <glyph glyph-name="lslash" unicode="&#x142;" horiz-adv-x="319" 
d="M10 310c0 15.333 5.33301 25.333 16 30l68 33v339c0 12 5.83301 21.667 17.5 29s27.167 11 46.5 11c18 0 33.333 -3.66699 46 -11s19 -17 19 -29v-276l30 15c4 2 7.66699 3 11 3c12 0 22.667 -6.33301 32 -19s14 -25.667 14 -39c0 -14.667 -5.66699 -24.667 -17 -30
l-70 -35v-290c0 -10 -6.5 -19.333 -19.5 -28s-28.167 -13 -45.5 -13c-18 0 -33.167 4.16699 -45.5 12.5s-18.5 17.833 -18.5 28.5v227l-27 -13c-4 -2 -8 -3 -12 -3c-12 0 -22.5 6.16699 -31.5 18.5s-13.5 25.5 -13.5 39.5z" />
    <glyph glyph-name="Nacute" unicode="&#x143;" horiz-adv-x="605" 
d="M60 41v649.001c0 13.333 6.33301 23.5 19 30.5s28 10.5 46 10.5c24 0 42.333 -4.33301 55 -13s26.667 -27.334 42 -56.001l193 -373v402c0 13.333 6.33301 23.333 19 30s28 10 46 10s33.333 -3.33301 46 -10s19 -16.667 19 -30v-650c0 -12.667 -6.5 -22.667 -19.5 -30
s-28.167 -11 -45.5 -11c-35.333 0 -60.333 13.667 -75 41l-215 402v-402c0 -12.667 -6.5 -22.667 -19.5 -30s-28.167 -11 -45.5 -11c-18 0 -33.333 3.66699 -46 11s-19 17.333 -19 30zM190 860.001c0 14.667 5.66797 25 17.001 31l132 64c6.66699 1.33301 11 2 13 2
c10.667 0 20 -5.16699 28 -15.5s12 -21.5 12 -33.5c0 -14.667 -6 -24.667 -18 -30l-130 -63c-6.66699 -2.66699 -11.334 -4 -14.001 -4c-10.667 0 -20 5.33301 -28 16s-12 21.667 -12 33z" />
    <glyph glyph-name="nacute" unicode="&#x144;" horiz-adv-x="523" 
d="M50 41l-0.00195312 394.002c0 12 5.83301 21.667 17.5 29s27.167 11 46.5 11c16 0 29.5 -3.66699 40.5 -11s16.5 -17 16.5 -29v-30c10.667 21.333 27.834 39.333 51.501 54s51.167 22 82.5 22c46 0 86.167 -20 120.5 -60s51.5 -87.667 51.5 -143v-237
c0 -12.667 -6.5 -22.667 -19.5 -30s-28.167 -11 -45.5 -11c-16.667 0 -31.5 3.66699 -44.5 11s-19.5 17.333 -19.5 30v237c0 23.333 -8.66699 44.166 -26 62.499s-37.666 27.5 -60.999 27.5c-22 0 -41.167 -8.33301 -57.5 -25s-24.5 -38.334 -24.5 -65.001v-237
c0 -10 -6.5 -19.333 -19.5 -28s-28.167 -13 -45.5 -13c-18 0 -33.167 4.16699 -45.5 12.5s-18.5 17.833 -18.5 28.5zM166.998 617.002c0 15.333 5.66797 25.667 17.001 31l132 64c6.66699 1.33301 11 2 13 2c10.667 0 20 -5.16699 28 -15.5s12 -21.5 12 -33.5
c0 -14.667 -6 -24.667 -18 -30l-130 -63c-6.66699 -2.66699 -11.334 -4 -14.001 -4c-10.667 0 -20 5.33301 -28 16s-12 21.667 -12 33z" />
    <glyph glyph-name="Ncommaaccent" unicode="&#x145;" horiz-adv-x="605" 
d="M60 41v649.001c0 13.333 6.33301 23.5 19 30.5s28 10.5 46 10.5c24 0 42.333 -4.33301 55 -13s26.667 -27.334 42 -56.001l193 -373v402c0 13.333 6.33301 23.333 19 30s28 10 46 10s33.333 -3.33301 46 -10s19 -16.667 19 -30v-650c0 -12.667 -6.5 -22.667 -19.5 -30
s-28.167 -11 -45.5 -11c-35.333 0 -60.333 13.667 -75 41l-215 402v-402c0 -12.667 -6.5 -22.667 -19.5 -30s-28.167 -11 -45.5 -11c-18 0 -33.333 3.66699 -46 11s-19 17.333 -19 30zM201 -144.999c0 14 5.66895 23.999 17.002 29.999l132 64c5.33301 2 9.66602 3 12.999 3
c10.667 0 20 -5.16699 28 -15.5s12 -21.5 12 -33.5c0 -15.333 -6 -25.666 -18 -30.999l-130 -62c-6.66699 -2.66699 -11.334 -4 -14.001 -4c-10.667 0 -20 5.33301 -28 16s-12 21.667 -12 33z" />
    <glyph glyph-name="ncommaaccent" unicode="&#x146;" horiz-adv-x="523" 
d="M50 41l-0.00195312 394.002c0 12 5.83301 21.667 17.5 29s27.167 11 46.5 11c16 0 29.5 -3.66699 40.5 -11s16.5 -17 16.5 -29v-30c10.667 21.333 27.834 39.333 51.501 54s51.167 22 82.5 22c46 0 86.167 -20 120.5 -60s51.5 -87.667 51.5 -143v-237
c0 -12.667 -6.5 -22.667 -19.5 -30s-28.167 -11 -45.5 -11c-16.667 0 -31.5 3.66699 -44.5 11s-19.5 17.333 -19.5 30v237c0 23.333 -8.66699 44.166 -26 62.499s-37.666 27.5 -60.999 27.5c-22 0 -41.167 -8.33301 -57.5 -25s-24.5 -38.334 -24.5 -65.001v-237
c0 -10 -6.5 -19.333 -19.5 -28s-28.167 -13 -45.5 -13c-18 0 -33.167 4.16699 -45.5 12.5s-18.5 17.833 -18.5 28.5zM157.998 -144.998c0 14 5.66797 23.999 17.001 29.999l132 64c4.66699 2 9 3 13 3c10.667 0 20 -5.16699 28 -15.5s12 -21.5 12 -33.5
c0 -15.333 -6 -25.666 -18 -30.999l-130 -62c-6.66699 -2.66699 -11.334 -4 -14.001 -4c-10.667 0 -20 5.33301 -28 16s-12 21.667 -12 33z" />
    <glyph glyph-name="Ncaron" unicode="&#x147;" horiz-adv-x="605" 
d="M60 41v649.001c0 13.333 6.33301 23.5 19 30.5s28 10.5 46 10.5c24 0 42.333 -4.33301 55 -13s26.667 -27.334 42 -56.001l193 -373v402c0 13.333 6.33301 23.333 19 30s28 10 46 10s33.333 -3.33301 46 -10s19 -16.667 19 -30v-650c0 -12.667 -6.5 -22.667 -19.5 -30
s-28.167 -11 -45.5 -11c-35.333 0 -60.333 13.667 -75 41l-215 402v-402c0 -12.667 -6.5 -22.667 -19.5 -30s-28.167 -11 -45.5 -11c-18 0 -33.333 3.66699 -46 11s-19 17.333 -19 30zM160 936.001c0 10 2.66699 19 8 27s12 12 20 12c4.66699 0 8.66699 -1.33301 12 -4
l103 -66l102 66c4.66699 2.66699 8.66699 4 12 4c8 0 14.667 -4 20 -12s8 -17 8 -27c0 -16.667 -7 -29.334 -21 -38.001l-103 -66c-7.33301 -4 -13.333 -6 -18 -6c-6 0 -12 2 -18 6l-103 66c-14.667 8.66699 -22 21.334 -22 38.001z" />
    <glyph glyph-name="ncaron" unicode="&#x148;" horiz-adv-x="523" 
d="M50 41l-0.00195312 394.002c0 12 5.83301 21.667 17.5 29s27.167 11 46.5 11c16 0 29.5 -3.66699 40.5 -11s16.5 -17 16.5 -29v-30c10.667 21.333 27.834 39.333 51.501 54s51.167 22 82.5 22c46 0 86.167 -20 120.5 -60s51.5 -87.667 51.5 -143v-237
c0 -12.667 -6.5 -22.667 -19.5 -30s-28.167 -11 -45.5 -11c-16.667 0 -31.5 3.66699 -44.5 11s-19.5 17.333 -19.5 30v237c0 23.333 -8.66699 44.166 -26 62.499s-37.666 27.5 -60.999 27.5c-22 0 -41.167 -8.33301 -57.5 -25s-24.5 -38.334 -24.5 -65.001v-237
c0 -10 -6.5 -19.333 -19.5 -28s-28.167 -13 -45.5 -13c-18 0 -33.167 4.16699 -45.5 12.5s-18.5 17.833 -18.5 28.5zM114.998 693.002c0 10 2.66699 19 8 27s12 12 20 12c4.66699 0 8.66699 -1.33301 12 -4l103 -66l102 66c4.66699 2.66699 8.66699 4 12 4
c8 0 14.667 -4 20 -12s8 -17 8 -27c0 -16.667 -7 -29.334 -21 -38.001l-103 -66c-6.66699 -4 -12.667 -6 -18 -6c-6 0 -12 2 -18 6l-103 66c-14.667 8.66699 -22 21.334 -22 38.001z" />
    <glyph glyph-name="Eng" unicode="&#x14a;" horiz-adv-x="606" 
d="M60 41l0.000976562 648.999c0 13.333 6.33301 23.5 19 30.5s28 10.5 46 10.5c24 0 42.333 -4.33301 55 -13s26.667 -27.334 42 -56.001l193 -373v402c0 13.333 6.33301 23.333 19 30s28 10 46 10s33.333 -3.33301 46 -10s19 -16.667 19 -30v-723
c0 -57.333 -13 -103.166 -39 -137.499s-63.333 -51.5 -112 -51.5c-44.667 0 -67 17.667 -67 53c0 16.667 4.66699 30.167 14 40.5s21 15.5 35 15.5c15.333 0 25.666 6.66699 30.999 20s8 33.333 8 60v38c0 10.667 -3.33301 22.334 -10 35.001l-215 402v-402
c0 -12.667 -6.5 -22.667 -19.5 -30s-28.167 -11 -45.5 -11c-18 0 -33.333 3.66699 -46 11s-19 17.333 -19 30z" />
    <glyph glyph-name="eng" unicode="&#x14b;" 
d="M50 41l-0.00195312 394.001c0 12 5.83301 21.667 17.5 29s27.167 11 46.5 11c16 0 29.5 -3.66699 40.5 -11s16.5 -17 16.5 -29v-30c10.667 21.333 27.834 39.333 51.501 54s51.167 22 82.5 22c46 0 86.167 -20 120.5 -60s51.5 -87.667 51.5 -143v-310
c0 -57.333 -13 -103.166 -39 -137.499s-63.333 -51.5 -112 -51.5c-44.667 0 -67 17.667 -67 53c0 16.667 4.66699 30.167 14 40.5s21 15.5 35 15.5c16 0 26.667 6.66699 32 20s8 33.333 8 60v310c0 23.333 -8.66699 44.166 -26 62.499s-37.666 27.5 -60.999 27.5
c-22 0 -41.167 -8.33301 -57.5 -25s-24.5 -38.334 -24.5 -65.001v-237c0 -10 -6.5 -19.333 -19.5 -28s-28.167 -13 -45.5 -13c-18 0 -33.167 4.16699 -45.5 12.5s-18.5 17.833 -18.5 28.5z" />
    <glyph glyph-name="Omacron" unicode="&#x14c;" horiz-adv-x="572" 
d="M52 223v279c0 79.333 21.167 137.333 63.5 174s99.166 55 170.499 55s128.333 -18.333 171 -55s64 -94.667 64 -174v-279c0 -79.333 -21.333 -137.333 -64 -174s-99.667 -55 -171 -55s-128.166 18.333 -170.499 55s-63.5 94.667 -63.5 174zM143 895
c0 12 3.66699 22.166 11 30.499s17 12.5 29 12.5h205c10.667 0 20.167 -4.16699 28.5 -12.5s12.5 -18.5 12.5 -30.5s-4.16699 -22 -12.5 -30s-17.833 -12 -28.5 -12h-205c-12 0 -21.667 3.83301 -29 11.5s-11 17.834 -11 30.501zM182 222.999
c0 -76.667 34.667 -115 104 -115c70 0 105 38.333 105 115v279c0 76.667 -35 115 -105 115c-69.333 0 -104 -38.333 -104 -115v-279z" />
    </font>
</defs>
</svg>
